<svg id="Layer_1" data-name="Layer 1" xmlns="http://www.w3.org/2000/svg" viewBox="0 0 94.62 94.62"><title>footer-hipaa</title><path d="M80.93,39.42a47.31,47.31,0,1,0,47.31,47.31A47.37,47.37,0,0,0,80.93,39.42Zm0,91.62a44.31,44.31,0,1,1,44.31-44.31A44.36,44.36,0,0,1,80.93,131Z" transform="translate(-33.61 -39.42)" style="fill:#e1e1e1"/><polygon points="12.97 43.06 13.07 43.84 13.92 44.02 14.54 41.02 13.69 40.84 13.29 41.54 11.4 41.15 11.93 38.59 13.82 38.98 13.91 39.78 14.76 39.96 15.38 36.95 14.53 36.78 14.14 37.46 9.49 36.5 9.35 35.7 8.48 35.52 7.91 38.54 8.72 38.71 9.17 38.01 10.79 38.35 10.26 40.91 8.64 40.58 8.5 39.76 7.64 39.58 7.07 42.6 7.88 42.77 8.33 42.09 12.97 43.06" style="fill:#e1e1e1"/><polygon points="10.72 33.12 15.11 34.93 15.06 35.72 15.86 36.05 17.02 33.23 16.22 32.9 15.7 33.5 11.31 31.69 11.32 30.88 10.5 30.55 9.39 33.39 10.16 33.7 10.72 33.12" style="fill:#e1e1e1"/><path d="M46.44,67.93l4,2.48-.18.77.74.46L52.64,69l-.74-.46-.6.51-1.13-.69.28-.45c1-1.55.79-2.86-.64-3.73-1.11-.68-2.26-.33-3.06,1l-.5.81-1.16,2,.71.43Zm1.23-2a1,1,0,0,1,1.49-.29c.63.39.72,1,.28,1.7l-.28.45-1.92-1.18Z" transform="translate(-33.61 -39.42)" style="fill:#e1e1e1"/><path d="M53.66,65.7l.63.6,2.09-2.18-.63-.6-.71.4-.36-.69,1.54-1.6.71.35-.35.7.63.6L59.4,61l-.63-.6-.65.35-5.78-2.57-1.09,1.18L54,65ZM53,60l2.23,1.1-1.07,1.11Z" transform="translate(-33.61 -39.42)" style="fill:#e1e1e1"/><path d="M59.07,60.13l.48.73,2.52-1.66-.48-.73-.78.23-.2-.76,1.85-1.22.61.49-.5.6.48.73,2.66-1.75-.48-.73-.71.19-5.06-3.79-1.32.9,1.42,6.15ZM61.6,56l-1.29.85-.64-2.41Z" transform="translate(-33.61 -39.42)" style="fill:#e1e1e1"/><path d="M72.11,54.67a3.94,3.94,0,0,0,2.22-1.77l-.78-.71a3.55,3.55,0,0,1-1.63,1.19c-1,.29-1.82-.19-2.27-1.74s-.1-2.52.91-2.81a3.81,3.81,0,0,1,1.12-.15l.49.86.94-.27-.47-1.84a6.82,6.82,0,0,0-2.37.19c-2,.56-2.85,2.27-2.21,4.53S70.16,55.22,72.11,54.67Z" transform="translate(-33.61 -39.42)" style="fill:#e1e1e1"/><path d="M78.75,53.56c2-.12,3.25-1.7,3.11-3.94s-1.36-3.47-3.36-3.35-3.21,1.6-3.07,3.89S76.76,53.69,78.75,53.56Zm-.22-6c1-.06,1.56.61,1.66,2.25.11,1.8-.47,2.48-1.47,2.54S77.2,51.65,77.1,50,77.54,47.58,78.54,47.52Z" transform="translate(-33.61 -39.42)" style="fill:#e1e1e1"/><polygon points="52.56 13.46 51.85 13.07 52.52 9.52 52.59 10.06 53.28 12.6 54.35 12.76 55.9 10.66 56.29 10.06 55.58 13.78 54.77 13.88 54.61 14.74 57.53 15.29 57.7 14.44 57.01 14.05 57.89 9.39 58.65 9.23 58.82 8.36 56.45 7.96 54.3 10.89 53.45 7.34 50.9 6.91 50.75 7.73 51.43 8.16 50.54 12.83 49.76 12.93 49.6 13.79 52.4 14.32 52.56 13.46" style="fill:#e1e1e1"/><path d="M92.36,54.34l-.35.79,2.79,1.24.36-.79L94.57,55l.54-1.22.48.22c1.66.74,2.94.41,3.62-1.12.53-1.19,0-2.28-1.36-2.91L97,49.63l-2.12-.89-.34.76.56.58-1.94,4.34Zm4.14-3.63.73.33a1,1,0,0,1,.48,1.44c-.3.68-.89.84-1.65.5l-.48-.22Z" transform="translate(-33.61 -39.42)" style="fill:#e1e1e1"/><polygon points="65.5 17.97 64.74 17.75 64.25 18.46 68.36 21.3 69.67 19.41 68.89 18.87 68.06 19.68 66.8 18.81 69.47 14.94 70.26 15.12 70.76 14.39 68.22 12.7 67.75 13.38 68.2 14.06 65.5 17.97" style="fill:#e1e1e1"/><polygon points="70.23 21.54 69.51 21.21 68.92 21.85 71.15 23.93 71.74 23.29 71.36 22.59 74.6 19.11 75.36 19.41 75.96 18.76 73.69 16.72 73.12 17.33 73.47 18.06 70.23 21.54" style="fill:#e1e1e1"/><path d="M106.12,63.27l-.69.52,1.81,2.42.69-.52-.28-.77.74-.24,1.33,1.78-.46.64-.63-.46-.7.52,1.91,2.54.69-.52-.23-.7,3.47-5.28-1-1.26-6.05,1.79Zm5.71.26-1.45,2-.92-1.23Z" transform="translate(-33.61 -39.42)" style="fill:#e1e1e1"/><polygon points="77.89 31.11 77.36 30.52 76.56 30.87 77.71 33.53 78.5 33.19 78.43 32.37 81.56 31.02 78.46 35.28 79.12 36.81 84.51 34.49 85.08 35.06 85.89 34.72 84.72 32.12 83.96 32.45 83.97 33.23 80.81 34.59 83.99 30.29 83 28.1 82.23 28.43 82.25 29.24 77.89 31.11" style="fill:#e1e1e1"/><polygon points="84.53 38.09 85.5 38.16 85.69 39.09 81.02 39.99 80.62 39.23 79.77 39.39 80.37 42.54 81.22 42.37 81.31 41.51 85.98 40.61 86.16 41.54 85.27 41.97 85.45 42.88 87.54 42.48 86.41 36.79 84.35 37.19 84.53 38.09" style="fill:#e1e1e1"/><polygon points="11.33 62.47 15.85 61.01 16.36 61.63 17.2 61.36 16.21 58.45 15.42 58.71 15.38 59.53 13.8 60.04 13 57.55 14.57 57.04 15.09 57.68 15.93 57.41 14.94 54.5 14.15 54.76 14.1 55.56 9.57 57.02 9.11 56.38 8.28 56.65 9.22 59.57 10.05 59.31 10.05 58.5 11.89 57.91 12.69 60.4 10.85 60.99 10.38 60.34 9.55 60.6 10.49 63.52 11.32 63.26 11.33 62.47" style="fill:#e1e1e1"/><polygon points="17.58 64.33 18.2 64.85 18.98 64.44 17.52 61.76 16.78 62.15 16.86 62.95 12.65 65.16 12.08 64.61 11.31 65.01 12.73 67.71 13.5 67.31 13.37 66.53 17.58 64.33" style="fill:#e1e1e1"/><path d="M54.47,110.26c1.05-.76,1.17-2,.27-3.2l-.56-.77-1.39-1.83-.67.49.2.78-3.84,2.79-.64-.46-.7.51L48.93,111l.7-.51-.24-.75,1.08-.78.31.43C51.85,110.89,53.12,111.24,54.47,110.26Zm-2.75-1.52-.31-.43L53.23,107l.47.65a1,1,0,0,1-.3,1.49C52.8,109.55,52.21,109.4,51.72,108.73Z" transform="translate(-33.61 -39.42)" style="fill:#e1e1e1"/><path d="M59.49,112.16l-1.2-1.06L52.67,114l-.69-.32-.59.64,2.23,2,.59-.64-.41-.7.69-.38,1.64,1.5-.33.71-.71-.34-.59.64,2.34,2.15.59-.64-.36-.64Zm-2.9,2.94-1.13-1,2.18-1.21Z" transform="translate(-33.61 -39.42)" style="fill:#e1e1e1"/><path d="M63.84,115.42l-4.9,4-.75-.17-.44.75,2.6,1.54.44-.75-.55-.6.59-.51,1.91,1.13-.17.77-.76-.18-.44.75,2.74,1.62.44-.75-.49-.55,1.17-6.22ZM63,119.69l-1.33-.78,1.88-1.64Z" transform="translate(-33.61 -39.42)" style="fill:#e1e1e1"/><path d="M69.23,122.07c-.59,2.24.24,3.72,2.2,4.24a4,4,0,0,0,2.81-.39l-.3-1a3.56,3.56,0,0,1-2,.2c-1-.27-1.47-1.09-1.06-2.66s1.2-2.22,2.22-2a3.84,3.84,0,0,1,1,.44l0,1,.95.25.53-1.82a6.83,6.83,0,0,0-2.14-1C71.46,118.77,69.83,119.79,69.23,122.07Z" transform="translate(-33.61 -39.42)" style="fill:#e1e1e1"/><path d="M79.64,120.2c-2-.11-3.37,1.22-3.49,3.52s.9,3.65,2.9,3.76,3.42-1.32,3.54-3.56S81.64,120.31,79.64,120.2Zm1.28,3.67c-.1,1.8-.75,2.41-1.75,2.36s-1.44-.83-1.35-2.47.71-2.36,1.71-2.31S81,122.22,80.92,123.87Z" transform="translate(-33.61 -39.42)" style="fill:#e1e1e1"/><polygon points="58 85.66 57.16 80.99 57.82 80.56 57.66 79.7 55.31 80.17 54.34 83.68 52.28 80.67 49.75 81.17 49.9 81.99 50.69 82.15 51.53 86.83 50.83 87.2 50.99 88.06 53.79 87.56 53.64 86.7 52.84 86.59 52.2 83.03 52.45 83.51 54.01 85.64 55.06 85.4 55.76 82.89 55.91 82.19 56.58 85.92 55.85 86.3 56.01 87.16 58.94 86.63 58.79 85.77 58 85.66" style="fill:#e1e1e1"/><path d="M94.69,117.59l-.88.37-2.1.93.32.76h.81L94.67,124l-.59.52.34.8,2.81-1.18-.34-.8-.79.06-.51-1.23.49-.21c1.68-.7,2.31-1.86,1.66-3.4C97.23,117.39,96.1,117,94.69,117.59Zm.94,3.32-.49.21L94.27,119l.74-.31a1,1,0,0,1,1.38.64C96.67,120.05,96.39,120.59,95.62,120.91Z" transform="translate(-33.61 -39.42)" style="fill:#e1e1e1"/><polygon points="69.54 78.87 69.96 79.94 68.67 80.76 66.14 76.8 66.61 76.14 66.14 75.4 63.59 77.08 64.04 77.78 64.83 77.63 67.39 81.64 66.89 82.25 67.36 82.98 71.57 80.3 70.34 78.36 69.54 78.87" style="fill:#e1e1e1"/><polygon points="73.57 77.16 70.52 73.53 70.89 72.82 70.33 72.14 68.03 74.15 68.56 74.78 69.33 74.53 72.39 78.16 71.98 78.83 72.54 79.5 74.87 77.53 74.31 76.87 73.57 77.16" style="fill:#e1e1e1"/><path d="M113.11,110.29l-5.92-2.23-1,1.24,3.07,5.52-.3.7.66.57,2-2.29-.66-.57-.69.44-.4-.67,1.44-1.69.73.31-.31.72.66.57,2.07-2.42-.66-.57ZM109.24,112l-1.29-2.14,2.29,1Z" transform="translate(-33.61 -39.42)" style="fill:#e1e1e1"/><polygon points="79.66 60.34 78.88 59.93 77.59 62.48 78.33 62.87 78.94 62.36 81.98 63.96 76.63 64.2 75.56 66.35 76.3 66.73 76.91 66.21 81.11 68.42 80.99 69.2 81.76 69.6 83.11 67.04 82.34 66.63 81.75 67.21 78.73 65.62 83.99 65.36 84.77 63.88 79.57 61.15 79.66 60.34" style="fill:#e1e1e1"/><polygon points="85.57 57.94 81.02 56.61 81.28 55.7 82.26 55.73 82.52 54.83 80.48 54.24 78.89 59.81 80.9 60.4 81.16 59.52 80.32 59.01 80.58 58.1 85.14 59.43 85.15 60.28 85.99 60.52 86.88 57.45 86.05 57.21 85.57 57.94" style="fill:#e1e1e1"/><path d="M77.5,82.58c-.27-.21-.54-.41-.9.12l.88.11Z" transform="translate(-33.61 -39.42)" style="fill:#e1e1e1"/><path d="M83.65,82.49l.06.34.88-.15-.05-.31Z" transform="translate(-33.61 -39.42)" style="fill:#e1e1e1"/><path d="M80.93,56.61A30.12,30.12,0,1,0,111,86.73,30.12,30.12,0,0,0,80.93,56.61Zm0,8.24A21.64,21.64,0,0,1,96.12,71h-.74a21.1,21.1,0,0,0-28.83,0H65.8A21.65,21.65,0,0,1,81,64.85Zm8.36,13.41.32-1,4.44.94A2.21,2.21,0,0,1,92,79C91.1,78.85,90.23,78.53,89.32,78.26Zm2.22,1.13c-.95.92-1.82,1-3.29.22.24-.27.46-.55.72-.8a.47.47,0,0,1,.39-.09C90.07,78.92,90.77,79.15,91.54,79.39Zm-1.28-2.46c-.43-.08-.67-.21-.61-.68a2.11,2.11,0,0,0-.1-.51l3.58.49,3.52.49a2,2,0,0,1-2.35,1.06C93,77.51,91.62,77.19,90.27,76.93Zm6.38-.63c-2.18-.31-4.36-.63-6.55-.9-.66-.08-1-.42-1.19-1.14,3.52.18,7,.57,10.45.83A2.38,2.38,0,0,1,96.65,76.31Zm-8.13,2.36a3.08,3.08,0,0,1-2.5,1.2c-.67,0-1.35,0-2,0a2.4,2.4,0,0,0-2.22,1,1.65,1.65,0,0,1,1.27-1.61A11.21,11.21,0,0,1,85.21,79a3.51,3.51,0,0,0,3.35-2.66A8.8,8.8,0,0,0,88.68,75C89.39,75.67,89.46,77.53,88.52,78.67Zm-4.76,1.61c.82,0,1.65,0,2.47,0a1.65,1.65,0,0,0,.73-.1,1.93,1.93,0,0,1,2,.29,2.34,2.34,0,0,1-1.58.71c-1,0-2.07,0-3.1.09a3.35,3.35,0,0,0-2.57,1.12A2,2,0,0,1,83.76,80.28ZM82.17,86.4c1.19-.36,2.39-.68,3.57-1.06a5.58,5.58,0,0,0,1.13-.57.86.86,0,0,0,.44-1.16A1.2,1.2,0,0,0,86,83.05a1.9,1.9,0,0,0-.64.36,3.46,3.46,0,0,1-2.25.74,2.46,2.46,0,0,1-.66-.16l0-.14L84,83.46l0-.18H82.33a.87.87,0,0,1,.72-1,6.83,6.83,0,0,1,2.14-.34,7,7,0,0,1,2.38.56,1.81,1.81,0,0,1,.54,2.95A5.59,5.59,0,0,1,85.42,87c-1.66.51-3.36.9-5,1.42a7.85,7.85,0,0,0-2,.93,2,2,0,0,0-.11,3.4,15.71,15.71,0,0,0,1.49.93c-.43.24-.82.49-1.24.67a.72.72,0,0,1-.56-.05,3.66,3.66,0,0,1,.19-6.64A35.24,35.24,0,0,1,82.17,86.4ZM81.07,93c0,.26-.59.48-.91.72L80,93.56c0-1.43,0-2.87,0-4.3,0-.12.22-.27.36-.34a4.73,4.73,0,0,1,.73-.21C81.11,90.18,81.16,91.58,81.07,93ZM70.22,75.5c-1.91.3-3.83.54-5.74.81a2.38,2.38,0,0,1-2.69-1.21c3.48-.24,6.93-.67,10.42-.82C72,75.59,71,75.38,70.22,75.5Zm2.08-.34a.43.43,0,0,1,.11-.09,11.75,11.75,0,0,0,.23,1.52A3.49,3.49,0,0,0,75.88,79a16.68,16.68,0,0,1,1.78.13,1.81,1.81,0,0,1,1.68,1.64,2.76,2.76,0,0,0-2.49-.92,14.13,14.13,0,0,1-2.41-.08A3.19,3.19,0,0,1,72.3,75.16Zm-.82.6c.11,1,.11,1-.77,1.21-1.31.28-2.61.58-3.93.82a2.29,2.29,0,0,1-2.42-1ZM67.2,78.15l4.3-.91.34,1c-1.17.19-2.19,1-3.43.7a6.09,6.09,0,0,1-1.27-.62Zm4.6.58a.54.54,0,0,1,.43.13,8.76,8.76,0,0,1,.64.73c-1.31.78-2.33.74-3.26-.2C70.37,79.15,71.08,78.92,71.8,78.73Zm2.26,1.39a4.83,4.83,0,0,0,1.7.15c.42,0,.85,0,1.27,0,1.5,0,2.19.62,2.45,2.23-.89-1.19-2.17-1.24-3.43-1.31-.73,0-1.46,0-2.19,0a2.34,2.34,0,0,1-1.72-.75C72.79,80.2,73.28,79.77,74.06,80.12Zm-1.47,3.6a1.72,1.72,0,0,1,1-1.26,5.73,5.73,0,0,1,4.31-.29,1.16,1.16,0,0,1,1,1.09H77.19l0,.18,1.47.41,0,.12a2.25,2.25,0,0,1-.63.17,3.34,3.34,0,0,1-2.24-.74,1.23,1.23,0,0,0-1.53-.22c-.62.34-.75,1-.17,1.39a10.43,10.43,0,0,0,2.26,1.09c1,.36,2.1.6,3.15.89-.67.32-1.34.65-2,1a.55.55,0,0,1-.39,0A37.58,37.58,0,0,1,73.63,86,2,2,0,0,1,72.59,83.73Zm8.64-7.06q0,4.35,0,8.7c0,.85,0,.85-.84,1l-.28.06-.09,0V76h1.23C81.22,76.26,81.22,76.46,81.22,76.67ZM79,75.55c-.16,0-.32-.26-.47-.4.17-.15.32-.4.51-.42a15.13,15.13,0,0,1,1.61,0h0c.52,0,1,0,1.55,0,.16,0,.3.25.45.39-.14.15-.27.42-.42.42Q80.6,75.6,79,75.55Zm1.53-1.29a2.08,2.08,0,0,1,.08-4.15,2,2,0,0,1,2,2.08A2,2,0,0,1,80.52,74.26ZM59.25,72.42H73.67a2.14,2.14,0,0,1,2.17,2.87,2,2,0,0,0,1,2.47,1.9,1.9,0,0,0,2.52-.85l.12-.14v3a3.33,3.33,0,0,0-2.65-1.14,8.83,8.83,0,0,1-1.71-.18,2.83,2.83,0,0,1-2.19-2.93c0-1.35-.37-1.71-1.72-1.59l-9.52.81a2.89,2.89,0,0,1-3-2.29ZM79,108.23A21.71,21.71,0,0,1,61.53,76.87a2.14,2.14,0,0,0,.44.26,21,21,0,0,0-2.24,9.45A21.26,21.26,0,0,0,79,107.72Zm-.67-6.05a4.13,4.13,0,0,1,1.94-1.73,12.4,12.4,0,0,0,1.89-1.17,1.76,1.76,0,0,0,.68-1.9,2.24,2.24,0,0,0-1.68-1.66h0a26.55,26.55,0,0,0,0,2.79,1.21,1.21,0,0,1-1,1.47v0h0l-.24.14c-1,.57-1,.57-1.86-.27a3.08,3.08,0,0,1,.32-4.73,22.21,22.21,0,0,1,2.64-1.35,12.63,12.63,0,0,0,2.2-1.3,1.87,1.87,0,0,0,0-2.76,13.72,13.72,0,0,0-1.54-1.11,11.67,11.67,0,0,1,1.74-.45,1.2,1.2,0,0,1,.86.41,3.54,3.54,0,0,1-.85,5.64,14.68,14.68,0,0,1-2,.9c-.56.24-1.15.42-1.7.68a2.22,2.22,0,0,0-1.45,2A2.63,2.63,0,0,0,80.08,100h0c0-.94,0-1.89-.08-2.83s0-1.17,1.1-1.43v0h0c.46-.18.91-.38,1.38-.52a.66.66,0,0,1,.53.14A3.06,3.06,0,0,1,83,100a11.35,11.35,0,0,1-2.45,1.35c-2,.89-2.45,2.52-1.13,4.25l.1.15A2.68,2.68,0,0,1,78.33,102.17Zm3.47,3.59a12.63,12.63,0,0,0,.67-1.83,2,2,0,0,0-1.54-2.26c0,.42.06.83.06,1.25,0,2.07-.07,4.14-.13,6.21,0,.66-.13,1.31-.2,2h-.15c-.08-1-.2-1.92-.24-2.87-.07-1.69-.05-3.37-.14-5.06,0-.71,0-1.27.8-1.5a2.12,2.12,0,0,0,.6-.18c.52-.35.8-.13,1.11.32C83.5,103.07,83.08,105.28,81.79,105.77Zm.54,2.51v-.52a21.24,21.24,0,0,0,19.86-21.17,21,21,0,0,0-2.45-9.81l0,0a2.14,2.14,0,0,0,.34-.4,21.69,21.69,0,0,1-17.78,31.92ZM99.76,74.7c-1.57-.09-3.14-.25-4.7-.39-1.87-.16-3.74-.34-5.62-.48a1.19,1.19,0,0,0-1.23,1.29,3,3,0,0,1-3.05,3.43c-.42,0-.85,0-1.26.08a3,3,0,0,0-2.25,1.17V76.72a6.73,6.73,0,0,0,.51.65,1.92,1.92,0,0,0,2.33.3,1.88,1.88,0,0,0,.85-2.29,2.2,2.2,0,0,1,1.43-2.89,2.43,2.43,0,0,1,.56-.08l14.69.27.44,0A2.65,2.65,0,0,1,99.76,74.7Z" transform="translate(-33.61 -39.42)" style="fill:#e1e1e1"/><circle cx="10.15" cy="49.31" r="1.38" style="fill:#e1e1e1"/><circle cx="84.57" cy="49.31" r="1.38" style="fill:#e1e1e1"/></svg>