<svg id="Layer_1" data-name="Layer 1" xmlns="http://www.w3.org/2000/svg" viewBox="0 0 94.62 94.62"><title>footer-pci</title><path d="M79,44.19A47.31,47.31,0,1,0,126.31,91.5,47.36,47.36,0,0,0,79,44.19Zm0,91.62A44.31,44.31,0,1,1,123.31,91.5,44.36,44.36,0,0,1,79,135.81Z" transform="translate(-31.69 -44.19)" style="fill:#e1e1e1"/><path d="M45.68,82.86v.79l.82.28,1-2.89-.82-.28-.48.63L44.91,81l.17-.5c.58-1.72.13-3-1.46-3.5-1.23-.41-2.28.19-2.76,1.64l-.3.9-.69,2.2.79.26.52-.61Zm-3.76-3.74a1,1,0,0,1,1.39-.62c.7.24.92.81.66,1.59l-.17.5-2.13-.71Z" transform="translate(-31.69 -44.19)" style="fill:#e1e1e1"/><path d="M46,75.48c2,1.19,3.63.82,4.68-.92a4,4,0,0,0,.42-2.81H50a3.55,3.55,0,0,1-.38,2c-.54.9-1.46,1.11-2.85.27S45,72.25,45.56,71.35a3.78,3.78,0,0,1,.72-.88l.94.3.51-.84-1.6-1a6.85,6.85,0,0,0-1.6,1.75C43.46,72.42,44,74.27,46,75.48Z" transform="translate(-31.69 -44.19)" style="fill:#e1e1e1"/><polygon points="17.34 22.46 20.91 25.59 20.6 26.32 21.25 26.9 23.27 24.61 22.61 24.03 21.93 24.43 18.36 21.29 18.63 20.53 17.97 19.95 16 22.27 16.62 22.82 17.34 22.46" style="fill:#e1e1e1"/><path d="M61.38,63.78A4,4,0,0,0,63,61.45L62,61a3.57,3.57,0,0,1-1.22,1.61c-.88.56-1.8.34-2.67-1s-.81-2.39.07-3a3.79,3.79,0,0,1,1-.47l.71.68.82-.53-1-1.63a6.82,6.82,0,0,0-2.22.86c-1.73,1.1-2.08,3-.82,5S59.67,64.88,61.38,63.78Z" transform="translate(-31.69 -44.19)" style="fill:#e1e1e1"/><path d="M68,60.62C69.85,60,70.63,58.1,69.89,56s-2.25-3-4.14-2.32-2.66,2.41-1.9,4.58S66.07,61.28,68,60.62Zm-1.85-5.76c.94-.33,1.67.16,2.21,1.72s.22,2.52-.72,2.85S66,59.2,65.41,57.64,65.17,55.18,66.11,54.85Z" transform="translate(-31.69 -44.19)" style="fill:#e1e1e1"/><polygon points="41.37 8.87 41.68 13.6 40.95 13.9 41.01 14.77 43.85 14.58 43.8 13.71 43.01 13.52 42.77 9.9 42.97 10.41 44.28 12.7 45.35 12.58 46.32 10.16 46.55 9.48 46.8 13.26 46.04 13.56 46.1 14.43 49.07 14.23 49.01 13.36 48.25 13.16 47.93 8.43 48.63 8.08 48.57 7.2 46.18 7.41 44.83 10.79 43.11 7.57 40.54 7.79 40.6 8.62 41.37 8.87" style="fill:#e1e1e1"/><path d="M85.44,58.35,84.75,58,85,56.66l.52.1c1.79.32,2.95-.3,3.25-2,.23-1.28-.51-2.23-2-2.5l-.94-.17-2.27-.36-.15.81.68.43-.85,4.67-.78.11-.16.85,3,.54Zm.15-5,.79.14a1,1,0,0,1,.81,1.28c-.13.73-.66,1-1.48.88l-.52-.1Z" transform="translate(-31.69 -44.19)" style="fill:#e1e1e1"/><polygon points="62.98 15.63 62.09 15.28 61.47 16.25 60.05 15.68 61.8 11.31 62.6 11.31 62.93 10.5 60.08 9.41 59.77 10.18 60.36 10.74 58.59 15.15 57.8 15.1 57.48 15.91 62.12 17.77 62.98 15.63" style="fill:#e1e1e1"/><polygon points="66.35 19.29 65.84 18.69 68.3 14.63 69.1 14.76 69.55 14.01 66.92 12.47 66.49 13.18 66.97 13.82 64.51 17.88 63.74 17.71 63.29 18.45 65.9 20.03 66.35 19.29" style="fill:#e1e1e1"/><path d="M99.38,64.22l-.59.64,2.23,2,.59-.64-.41-.71.69-.38,1.64,1.5-.33.71-.71-.34-.59.64,2.35,2.15.59-.64-.36-.64,2.43-5.85-1.2-1.06-5.62,2.89Zm5.67-.81-1,2.26-1.14-1Z" transform="translate(-31.69 -44.19)" style="fill:#e1e1e1"/><polygon points="74.68 26.62 74.06 26.13 73.33 26.6 74.91 29.03 75.64 28.56 75.42 27.77 78.28 25.91 75.95 30.62 76.86 32.02 81.78 28.82 82.44 29.29 83.17 28.81 81.58 26.45 80.88 26.9 81.03 27.68 78.15 29.55 80.54 24.77 79.19 22.79 78.5 23.24 78.66 24.03 74.68 26.62" style="fill:#e1e1e1"/><polygon points="82.68 32.98 83.66 32.89 83.98 33.79 79.5 35.39 78.99 34.71 78.17 35 79.25 38.01 80.08 37.72 80.03 36.85 84.5 35.25 84.82 36.14 84.01 36.7 84.33 37.58 86.33 36.85 84.34 31.4 82.37 32.11 82.68 32.98" style="fill:#e1e1e1"/><path d="M47.84,108.51c1.2-.49,1.6-1.63,1-3l-.36-.88-.92-2.11-.77.32v.81l-4.39,1.81-.52-.6-.8.33L42.26,108l.81-.33-.06-.79,1.23-.5.2.49C45.14,108.51,46.29,109.15,47.84,108.51Zm-2.31-2.13-.2-.49,2.08-.86.3.74a1,1,0,0,1-.64,1.38C46.38,107.44,45.84,107.15,45.53,106.39Z" transform="translate(-31.69 -44.19)" style="fill:#e1e1e1"/><path d="M47.37,114.79c-.59-.87-.4-1.79.94-2.7s2.36-.89,3,0a3.8,3.8,0,0,1,.5,1l-.66.73.55.81,1.6-1a6.81,6.81,0,0,0-.92-2.19c-1.15-1.69-3.05-2-5-.67s-2.26,3-1.12,4.64a4,4,0,0,0,2.38,1.55l.43-1A3.55,3.55,0,0,1,47.37,114.79Z" transform="translate(-31.69 -44.19)" style="fill:#e1e1e1"/><polygon points="22.15 70.79 22.46 71.54 19.05 74.85 18.34 74.48 17.72 75.09 19.84 77.28 20.47 76.67 20.12 75.96 23.54 72.66 24.28 72.99 24.91 72.37 22.75 70.22 22.15 70.79" style="fill:#e1e1e1"/><path d="M62.95,121.1c-1.76-1-3.61-.52-4.81,1.5s-.8,3.64.94,4.68a4,4,0,0,0,2.81.4v-1.06a3.55,3.55,0,0,1-2-.37c-.9-.54-1.11-1.45-.28-2.85s1.77-1.8,2.67-1.26a3.79,3.79,0,0,1,.88.71l-.29.94.84.5,1-1.61A6.86,6.86,0,0,0,62.95,121.1Z" transform="translate(-31.69 -44.19)" style="fill:#e1e1e1"/><path d="M69.35,123.92c-1.93-.62-3.57.33-4.27,2.52s-.05,3.76,1.85,4.37,3.65-.41,4.33-2.55S71.26,124.53,69.35,123.92Zm.3,3.88c-.55,1.71-1.34,2.14-2.29,1.84s-1.18-1.17-.68-2.74,1.28-2.11,2.24-1.8S70.16,126.22,69.65,127.79Z" transform="translate(-31.69 -44.19)" style="fill:#e1e1e1"/><polygon points="45.8 84.69 44.48 81.29 41.9 81.2 41.86 82.03 42.59 82.37 42.34 87.11 41.58 87.32 41.53 88.19 44.37 88.34 44.42 87.47 43.66 87.18 43.86 83.57 44 84.09 45.02 86.52 46.1 86.53 47.35 84.24 47.66 83.6 47.46 87.38 46.66 87.59 46.62 88.46 49.59 88.62 49.64 87.75 48.91 87.46 49.16 82.72 49.89 82.46 49.94 81.58 47.54 81.5 45.8 84.69" style="fill:#e1e1e1"/><path d="M86,125l-.93.17-2.25.47.15.82.79.16.86,4.67-.69.38.16.85,3-.55-.16-.85-.78-.11-.24-1.31.52-.1c1.79-.33,2.65-1.32,2.35-3C88.57,125.3,87.54,124.68,86,125Zm.21,3.45-.52.1-.41-2.21.79-.15a1,1,0,0,1,1.22.91C87.46,127.78,87.07,128.25,86.25,128.4Z" transform="translate(-31.69 -44.19)" style="fill:#e1e1e1"/><polygon points="63.25 82.9 63.46 84.03 62.04 84.6 60.31 80.23 60.9 79.67 60.58 78.86 57.76 80.02 58.06 80.8 58.87 80.8 60.62 85.21 60.01 85.72 60.33 86.53 64.98 84.69 64.13 82.55 63.25 82.9" style="fill:#e1e1e1"/><polygon points="68.29 81.53 65.88 77.45 66.37 76.81 65.92 76.05 63.33 77.64 63.75 78.36 64.54 78.23 66.96 82.32 66.44 82.92 66.88 83.67 69.51 82.12 69.06 81.37 68.29 81.53" style="fill:#e1e1e1"/><path d="M107.51,119.86,102,116.81l-1.18,1.08,2.25,5.9-.4.65.57.65,2.27-2-.57-.65-.75.33-.3-.72,1.67-1.46.68.41-.41.67.57.65,2.39-2.1-.57-.65ZM103.42,121l-1-2.3,2.13,1.29Z" transform="translate(-31.69 -44.19)" style="fill:#e1e1e1"/><polygon points="77.86 64.63 77.14 64.13 75.56 66.5 76.24 66.97 76.9 66.54 79.72 68.5 74.39 68.08 73.06 70.08 73.75 70.56 74.42 70.11 78.32 72.82 78.09 73.58 78.81 74.08 80.46 71.7 79.75 71.2 79.1 71.7 76.3 69.75 81.55 70.14 82.5 68.77 77.68 65.42 77.86 64.63" style="fill:#e1e1e1"/><polygon points="84.36 62.15 79.96 60.37 80.32 59.48 81.29 59.61 81.64 58.75 79.67 57.95 77.52 63.33 79.46 64.12 79.81 63.27 79.02 62.68 79.38 61.8 83.78 63.58 83.7 64.44 84.51 64.76 85.71 61.8 84.9 61.47 84.36 62.15" style="fill:#e1e1e1"/><path d="M91,83.66a2.51,2.51,0,0,0,2.73,2.62,2.56,2.56,0,0,0,2.8-2.57,2.77,2.77,0,0,0-5.53,0Z" transform="translate(-31.69 -44.19)" style="fill:#e1e1e1"/><path d="M84.92,96.72a3.18,3.18,0,0,1-2.54-3.52,3.1,3.1,0,0,1,2.75-2.95,6.32,6.32,0,0,1,3.58.54l.48.21V87.91c-.18-.07-.34-.14-.51-.19a11.07,11.07,0,0,0-3.94-.35,9.34,9.34,0,0,0-4.09,1.11,5.82,5.82,0,0,0-2.45,7.73,5.65,5.65,0,0,0,3.45,2.88,12.48,12.48,0,0,0,6,.51c.63-.08,1.24-.25,1.87-.39v-3l-.51.17A7.25,7.25,0,0,1,84.92,96.72Z" transform="translate(-31.69 -44.19)" style="fill:#e1e1e1"/><path d="M74.91,88.54a8.14,8.14,0,0,0-3.7-1c-2,0-3.95,0-5.92,0a3.92,3.92,0,0,0-.39,0V99.51h4.47V95.95l.46-.05c.64,0,1.27,0,1.91-.09a6.8,6.8,0,0,0,3.58-1.3C77.12,93.11,77.17,89.75,74.91,88.54ZM72,92.66a1.49,1.49,0,0,1-.52.41,3.93,3.93,0,0,1-2.09.29V90.11a3.5,3.5,0,0,1,1.88.15A1.52,1.52,0,0,1,72,92.66Z" transform="translate(-31.69 -44.19)" style="fill:#e1e1e1"/><path d="M79,61.38A30.12,30.12,0,1,0,109.12,91.5,30.12,30.12,0,0,0,79,61.38Zm-11,47.1L57.64,80.25l1.71-.12,9-.52L73,79.38,78.84,79l4.49-.24,6.13-.35,5.47-.28,8.61,19.15Z" transform="translate(-31.69 -44.19)" style="fill:#e1e1e1"/><path d="M91.54,99.52H96V87.6H91.54Z" transform="translate(-31.69 -44.19)" style="fill:#e1e1e1"/><circle cx="10.53" cy="48.16" r="1.38" style="fill:#e1e1e1"/><circle cx="84.95" cy="48.16" r="1.38" style="fill:#e1e1e1"/></svg>