<svg width="40" height="40" viewBox="0 0 40 40" fill="none" xmlns="http://www.w3.org/2000/svg">
<path d="M26.7538 12.7469L18.3183 21.2492L15.9346 18.7985C24.2368 10.4963 25.0696 11.2465 26.7538 12.7469Z" fill="#36364C"/>
<path d="M18.3178 21.4816C18.2431 21.4798 18.1717 21.4501 18.1177 21.3984L15.7171 18.9978C15.663 18.9418 15.6328 18.8671 15.6328 18.7893C15.6328 18.7115 15.663 18.6368 15.7171 18.5808C23.9024 10.3955 25.0196 10.7787 26.9532 12.5292C26.9856 12.5551 27.0115 12.5882 27.0289 12.6258C27.0462 12.6635 27.0546 12.7047 27.0533 12.7461C27.0658 12.8274 27.0345 12.9105 26.9701 12.963L18.5347 21.3991C18.4756 21.4533 18.398 21.4824 18.3178 21.4816ZM16.3504 18.7977L18.3178 20.7652L26.32 12.763C26.0437 12.4167 25.6494 12.1845 25.2126 12.1107C24.7758 12.0368 24.3272 12.1266 23.9524 12.3629C22.502 13.013 20.1683 14.9967 16.3504 18.7977Z" fill="white"/>
<path d="M20.7352 23.5996L18.4346 21.249L26.87 12.913C29.1375 15.1304 25.7697 18.8321 20.7352 23.5996Z" fill="#36364C"/>
<path d="M20.7344 23.8999C20.6606 23.894 20.5905 23.8649 20.5343 23.8167L18.1837 21.5161C18.1484 21.4306 18.1484 21.3346 18.1837 21.2491C18.1587 21.179 18.1587 21.1024 18.1837 21.0322L26.6191 12.5968C26.6777 12.5417 26.7552 12.511 26.8357 12.511C26.9162 12.511 26.9937 12.5417 27.0523 12.5968C27.3255 12.8482 27.5413 13.1555 27.6851 13.4978C27.8289 13.8401 27.8973 14.2094 27.8857 14.5805C27.8857 16.8311 25.3181 19.665 20.9507 23.7998C20.8923 23.8576 20.8162 23.893 20.7344 23.8999ZM18.867 21.2491L20.7506 23.1322C24.0846 19.9813 27.2693 16.7304 27.2855 14.5298C27.3036 14.0633 27.1494 13.6064 26.8523 13.2463L18.867 21.2491Z" fill="white"/>
<path d="M16.0011 18.8484L17.6684 20.5158C17.6791 20.5252 17.6876 20.5367 17.6934 20.5496C17.6993 20.5626 17.7023 20.5766 17.7023 20.5908C17.7023 20.605 17.6993 20.619 17.6934 20.6319C17.6876 20.6449 17.6791 20.6564 17.6684 20.6658L14.1506 21.416C14.0796 21.4313 14.0055 21.423 13.9396 21.3924C13.8738 21.3617 13.8198 21.3104 13.7858 21.2462C13.7518 21.182 13.7397 21.1084 13.7514 21.0367C13.7631 20.965 13.7979 20.8991 13.8505 20.849L15.9011 18.8153C15.9011 18.8153 15.968 18.8153 16.0011 18.8484Z" fill="#36364C"/>
<path d="M14.0664 21.7492C13.9552 21.7478 13.8463 21.7179 13.75 21.6624C13.6537 21.6069 13.5732 21.5277 13.5162 21.4322C13.4521 21.3113 13.4289 21.1729 13.4499 21.0377C13.471 20.9025 13.5353 20.7777 13.6331 20.682L15.6668 18.6315C15.7402 18.5659 15.8351 18.5297 15.9334 18.5297C16.0318 18.5297 16.1267 18.5659 16.2001 18.6315L17.8674 20.2988C17.9662 20.3926 18.0049 20.5345 17.9674 20.6658C17.9299 20.797 17.8199 20.9014 17.6842 20.9327L14.1664 21.6829L14.0664 21.7492ZM15.9338 19.2154L14.0501 21.099L17.1678 20.4319L15.9338 19.2154Z" fill="white"/>
<path d="M31.2375 8.06165C30.0309 6.89758 28.1354 6.84882 26.8701 7.94724C25.6047 9.04566 25.3884 10.9312 26.3737 12.2878C27.359 13.6444 29.2164 14.0245 30.6542 13.163L28.3868 10.8955L31.2375 8.06165Z" fill="#36364C"/>
<path d="M28.9878 13.9296C28.2945 13.9207 27.6193 13.708 27.0461 13.318C26.4729 12.928 26.0272 12.378 25.7644 11.7365C25.5018 11.0954 25.4329 10.3914 25.5662 9.71163C25.6996 9.03183 26.0293 8.40604 26.5146 7.91167C27.182 7.25648 28.08 6.8894 29.0153 6.8894C29.9506 6.8894 30.8485 7.25648 31.5159 7.91167C31.5797 7.96544 31.616 8.04483 31.616 8.12861C31.6158 8.16982 31.6068 8.21052 31.5896 8.24795C31.5723 8.28538 31.5472 8.31866 31.5159 8.34554L28.8152 10.8962L30.8658 12.9137C30.899 12.9454 30.9239 12.9848 30.9384 13.0284C30.9529 13.0719 30.9565 13.1184 30.9489 13.1637C30.944 13.2074 30.9295 13.2495 30.9065 13.287C30.8835 13.3245 30.8525 13.3565 30.8158 13.3807C30.2649 13.725 29.6316 13.915 28.9821 13.9308L28.9878 13.9296ZM28.9878 7.46093C27.7999 7.46718 26.7372 8.18175 26.2914 9.27392C25.8457 10.3661 26.0882 11.6233 26.921 12.4623C27.3351 12.8789 27.8655 13.1607 28.4426 13.2708C29.0196 13.3809 29.6165 13.3142 30.155 13.0793L28.1875 11.1119C28.1563 11.0869 28.131 11.0552 28.1137 11.0191C28.0963 10.983 28.0873 10.9435 28.0873 10.9034C28.0873 10.8634 28.0963 10.8238 28.1137 10.7878C28.131 10.7517 28.1563 10.7199 28.1875 10.6949L30.7883 8.07734C30.2713 7.68113 29.6391 7.4651 28.9878 7.46093Z" fill="white"/>
<path d="M31.2883 8.11182L28.4375 10.9457L30.705 13.2132C30.9332 13.0822 31.1457 12.9255 31.3383 12.7462C31.9326 12.118 32.2596 11.2836 32.2502 10.4189C32.2409 9.55422 31.896 8.727 31.2883 8.11182Z" fill="#36364C"/>
<path d="M30.6537 13.4632C30.6163 13.4652 30.5789 13.4588 30.5442 13.4444C30.5096 13.43 30.4786 13.408 30.4537 13.38L28.1862 11.1125C28.1549 11.0875 28.1297 11.0558 28.1123 11.0197C28.0949 10.9836 28.0859 10.9441 28.0859 10.904C28.0859 10.864 28.0949 10.8245 28.1123 10.7884C28.1297 10.7523 28.1549 10.7206 28.1862 10.6956L31.0201 7.91167C31.0474 7.8704 31.0846 7.83655 31.1282 7.81314C31.1719 7.78972 31.2206 7.77747 31.2701 7.77747C31.3197 7.77747 31.3684 7.78972 31.412 7.81314C31.4557 7.83655 31.4928 7.8704 31.5202 7.91167C31.8529 8.23764 32.1172 8.62671 32.2976 9.05611C32.4781 9.4855 32.571 9.94659 32.571 10.4123C32.571 10.8781 32.4781 11.3392 32.2976 11.7686C32.1172 12.198 31.8529 12.5871 31.5202 12.913C31.324 13.1212 31.0994 13.3007 30.8532 13.4463C30.7911 13.4776 30.7201 13.4836 30.6537 13.4632ZM28.8201 10.8962L30.7037 12.7799C30.8333 12.689 30.956 12.5887 31.0707 12.4798C31.6244 11.9276 31.9363 11.1781 31.9378 10.3961C31.9391 9.69625 31.684 9.02016 31.2208 8.49558L28.8201 10.8962Z" fill="white"/>
<path d="M27.1025 13.0968C26.8767 12.8848 26.5786 12.7667 26.2689 12.7667C25.9591 12.7667 25.661 12.8848 25.4352 13.0968L17.8838 20.6313L19.1341 21.8986L27.1194 14.8967C27.2412 14.7799 27.3378 14.6395 27.4033 14.4841C27.4687 14.3286 27.5017 14.1614 27.5001 13.9928C27.4985 13.8241 27.4624 13.6575 27.3941 13.5033C27.3257 13.3491 27.2265 13.2112 27.1025 13.0968Z" fill="#36364C"/>
<path d="M19.0681 22.1993C18.9934 22.1975 18.9221 22.1678 18.8681 22.1162L17.6009 20.849C17.5468 20.793 17.5166 20.7183 17.5166 20.6405C17.5166 20.5627 17.5468 20.4879 17.6009 20.432L25.1529 12.9131C25.3704 12.6958 25.6482 12.5489 25.9502 12.4914C26.2522 12.4339 26.5646 12.4685 26.8467 12.5907C27.1288 12.7128 27.3677 12.9169 27.5325 13.1765C27.6972 13.4361 27.7801 13.7392 27.7705 14.0465C27.7618 14.2551 27.7117 14.4598 27.6229 14.6487C27.5341 14.8377 27.4085 15.007 27.2535 15.1468L19.2682 22.1487C19.2101 22.1898 19.1387 22.2083 19.0681 22.1993ZM18.1848 20.6314L19.0181 21.4816L26.8534 14.6629C27.0472 14.4941 27.1628 14.2528 27.1703 13.9958C27.1778 13.7389 27.0766 13.4876 26.8871 13.3125C26.7122 13.1383 26.4754 13.0405 26.2285 13.0405C25.9816 13.0405 25.7448 13.1383 25.5699 13.3125L18.1848 20.6314Z" fill="white"/>
<path d="M12.0319 29.2175C12.0106 29.2464 11.9991 29.2815 11.9991 29.3175C11.9991 29.3535 12.0106 29.3885 12.0319 29.4175L12.3651 30.8679C12.3785 30.9533 12.3658 31.0406 12.3288 31.1187C12.2918 31.1968 12.2321 31.2619 12.1576 31.3055C12.0833 31.349 11.9972 31.3677 11.9116 31.3591C11.8259 31.3504 11.7453 31.3148 11.6812 31.2574L9.39746 29.0568L16.5163 21.8817H18.9838L20.6511 23.549C18.0502 25.823 15.1502 27.7302 12.0319 29.2175Z" fill="#36364C"/>
<path d="M11.8827 31.6682C11.6939 31.6645 11.5076 31.5869 11.3826 31.4513L9.19887 29.2676C9.1676 29.2426 9.14235 29.2108 9.12499 29.1747C9.10764 29.1386 9.09863 29.0991 9.09863 29.0591C9.09863 29.019 9.10764 28.9795 9.12499 28.9434C9.14235 28.9073 9.1676 28.8756 9.19887 28.8506L16.3671 21.6655C16.4072 21.6228 16.4597 21.5938 16.5171 21.5823H19.0009C19.0656 21.5595 19.1362 21.5595 19.201 21.5823L20.8683 23.2497C20.9 23.2789 20.9241 23.3154 20.9386 23.356C20.9531 23.3966 20.9575 23.4402 20.9514 23.4829C20.9526 23.5243 20.9442 23.5654 20.9268 23.6031C20.9095 23.6407 20.8837 23.6738 20.8514 23.6998L20.7183 23.8167C18.1069 25.9937 15.2339 27.8362 12.1659 29.3013L12.4829 30.6517C12.5074 30.7559 12.5083 30.8642 12.4856 30.9688C12.4629 31.0733 12.4172 31.1715 12.3517 31.2562C12.2862 31.3408 12.2027 31.4098 12.1072 31.458C12.0117 31.5063 11.9066 31.5326 11.7996 31.5351L11.8827 31.6682ZM9.84905 29.0506L11.8158 31.0343C11.8342 31.0506 11.8579 31.0597 11.8824 31.0597C11.907 31.0597 11.9307 31.0506 11.949 31.0343C11.9613 31.0173 11.9679 30.9968 11.9679 30.9758C11.9679 30.9549 11.9613 30.9344 11.949 30.9174L11.6158 29.467C11.5895 29.3629 11.6001 29.2529 11.6457 29.1557C11.6912 29.0585 11.769 28.9801 11.8658 28.9337C14.8513 27.4882 17.6502 25.6855 20.2012 23.5654L18.834 22.1981H16.6003L9.84905 29.0506Z" fill="white"/>
<path d="M7.6815 30.7679L9.34883 29.1006L11.9164 31.6682L7.83217 31.385C7.76204 31.3795 7.69545 31.352 7.64188 31.3064C7.58832 31.2608 7.55052 31.1994 7.53389 31.1311C7.51725 31.0627 7.52263 30.9909 7.54925 30.9258C7.57587 30.8607 7.62237 30.8056 7.68212 30.7685L7.6815 30.7679Z" fill="#36364C"/>
<path d="M11.9664 31.9182L7.89839 31.635C7.65708 31.6125 7.44952 31.4475 7.3645 31.2268C7.27948 31.0061 7.33137 30.7442 7.49829 30.5679L9.16561 28.9005C9.22156 28.8465 9.29631 28.8163 9.37411 28.8163C9.4519 28.8163 9.52665 28.8465 9.5826 28.9005L12.1333 31.4512C12.1686 31.4996 12.1876 31.558 12.1876 31.6178C12.1876 31.6777 12.1686 31.7361 12.1333 31.7845C12.0947 31.8468 12.0357 31.8945 11.9664 31.9182ZM7.89839 30.9849L11.2324 31.2018L9.3988 29.4845L7.89839 30.9849Z" fill="white"/>
<path d="M19.2174 22.0831L15.8496 22.6002L17.8001 20.6665L19.2174 22.0831Z" fill="#36364C"/>
<path d="M15.8509 22.9157C15.7949 22.9172 15.7398 22.9022 15.6923 22.8725C15.6448 22.8428 15.6071 22.7998 15.5839 22.7488C15.5484 22.7005 15.5293 22.6422 15.5293 22.5822C15.5293 22.5223 15.5484 22.4639 15.5839 22.4156L17.5176 20.4651C17.5762 20.41 17.6537 20.3793 17.7342 20.3793C17.8147 20.3793 17.8922 20.41 17.9508 20.4651L19.3687 21.8817C19.397 21.9266 19.4121 21.9787 19.4121 22.0318C19.4121 22.0849 19.397 22.1369 19.3687 22.1818C19.3548 22.2365 19.3254 22.2861 19.2841 22.3246C19.2427 22.3631 19.1911 22.3888 19.1355 22.3987L15.8015 22.9157H15.8509ZM17.8014 21.0984L16.718 22.1818L18.5854 21.8986L17.8014 21.0984Z" fill="white"/>
<path d="M19.2181 22.0817L16.8675 22.3818C16.8046 22.396 16.7387 22.3897 16.6797 22.3636C16.6207 22.3375 16.5717 22.2931 16.5399 22.237C16.5081 22.1809 16.4953 22.116 16.5033 22.052C16.5113 21.988 16.5397 21.9282 16.5843 21.8816L17.8015 20.6644L19.2181 22.0817Z" fill="#36364C"/>
<path d="M16.8007 22.6994C16.6918 22.6984 16.585 22.6685 16.4914 22.6128C16.3977 22.5572 16.3204 22.4777 16.2675 22.3825C16.2038 22.2683 16.1791 22.1366 16.1972 22.0071C16.2152 21.8777 16.275 21.7577 16.3675 21.6654L17.5847 20.4482C17.6433 20.3931 17.7208 20.3624 17.8013 20.3624C17.8818 20.3624 17.9593 20.3931 18.0179 20.4482L19.4352 21.8654C19.4773 21.9054 19.507 21.9567 19.5206 22.0131C19.5341 22.0696 19.531 22.1288 19.5117 22.1835C19.4923 22.2382 19.4574 22.2862 19.4113 22.3215C19.3652 22.3568 19.3099 22.378 19.252 22.3825L16.9183 22.6825L16.8007 22.6994ZM16.8007 22.0824L18.5681 21.8654L17.7847 21.0821L16.7845 22.0824H16.8007ZM31.3047 10.0291C31.2733 9.97651 31.2236 9.93726 31.1652 9.91882C31.1068 9.90038 31.0436 9.90403 30.9877 9.92908C30.9601 9.94307 30.9356 9.96245 30.9156 9.98607C30.8956 10.0097 30.8806 10.0371 30.8714 10.0666C30.8529 10.1262 30.8587 10.1908 30.8877 10.246C31.0046 10.4917 30.9721 10.7824 30.8045 10.9962C30.7837 11.0168 30.7674 11.0415 30.7567 11.0688C30.7459 11.096 30.7409 11.1252 30.742 11.1544C30.7426 11.213 30.7649 11.2694 30.8045 11.3126C30.8473 11.3295 30.8949 11.3295 30.9377 11.3126C30.9765 11.3223 31.0173 11.3213 31.0555 11.3095C31.0938 11.2977 31.128 11.2756 31.1546 11.2457C31.2919 11.0776 31.3788 10.8741 31.4054 10.6588C31.4319 10.4434 31.397 10.2255 31.3047 10.0291Z" fill="white"/>
</svg>
