<svg width="2250" height="1000" viewBox="0 0 2250 1000" fill="none" xmlns="http://www.w3.org/2000/svg">
<g opacity="0.05">
<path d="M1134.82 927C1237.14 927 1320.09 906.624 1320.09 881.479C1320.09 856.334 1237.14 835.957 1134.82 835.957C1032.51 835.957 949.563 856.334 949.563 881.479C949.563 906.624 1032.51 927 1134.82 927Z" fill="#03031C"/>
</g>
<path d="M1421.14 721.937C1417.57 737.578 1384.42 731.809 1358.41 716.668C1348.5 710.899 1339.63 703.829 1333.83 696.025C1333.83 696.025 1333.79 695.992 1333.76 695.958C1333.76 695.958 1312.22 751.151 1271.83 790.003C1231.44 833.49 1201.56 866.372 1202.29 867.039C1203.03 867.706 1215.73 872.308 1210.86 884.747C1210.86 884.747 1198.12 903.389 1167.04 884.28C1165.91 883.38 1164.87 882.346 1163.87 881.145C1160.57 877.143 1158.14 871.574 1156.34 865.238C1153.9 856.7 1152.6 846.796 1151.97 837.458C1150.8 820.717 1151.73 805.843 1151.83 803.976C1151.83 803.842 1151.83 803.776 1151.83 803.776H1119.98C1119.98 803.776 1119.98 803.876 1119.98 804.042C1120.02 804.676 1120.12 806.344 1120.22 808.778V809.378C1120.38 813.38 1120.52 819.183 1120.35 825.886V826.019C1120.28 829.021 1120.15 832.222 1119.95 835.457C1119.32 845.829 1117.92 857.101 1115.05 866.505C1113.25 872.374 1110.88 877.544 1107.74 881.279C1106.81 882.412 1105.81 883.413 1104.74 884.247C1073.66 903.322 1060.92 884.714 1060.92 884.714C1056.02 872.308 1068.76 867.706 1069.49 867.005C1070.22 866.305 1040.38 833.423 999.955 789.969C959.568 751.118 938.023 695.925 938.023 695.925C938.023 695.925 937.99 695.992 937.957 696.025C937.957 696.025 937.957 696.059 937.923 696.092C932.02 703.962 922.982 711.132 912.977 716.902C906.574 720.57 899.737 723.705 893.067 726.073C872.623 733.343 853.313 733.643 850.678 721.937C848.711 712.533 861.45 702.161 872.956 673.181C876.392 664.444 877.125 652.471 878.359 643.501C883.262 608.084 881.294 571.967 884.462 536.317C887.897 496.999 898.403 458.147 921.448 424.565C946.961 387.247 974.042 359.834 998.555 339.992C1037.37 308.51 1085.97 291.636 1135.93 291.636C1160.87 291.636 1185.52 295.838 1208.8 304.008C1232.04 312.145 1253.89 324.251 1273.3 339.992C1297.81 359.868 1324.86 387.247 1350.4 424.565C1373.41 458.147 1383.95 496.999 1387.39 536.317C1390.59 571.967 1388.62 608.051 1393.53 643.501C1394.76 652.471 1395.49 664.444 1398.89 673.181C1410.4 702.161 1423.14 712.5 1421.17 721.937H1421.14Z" fill="#23E2C2"/>
<g opacity="0.12">
<path d="M1120.42 832.789L1119.98 835.557L1115.08 866.605C1113.28 872.475 1110.91 877.644 1107.78 881.379C1100.24 834.023 1069.12 790.269 1064.86 784.433C1080.33 793.838 1097.84 800.274 1116.52 802.909C1118.28 803.542 1119.48 803.976 1119.95 804.143C1120.08 804.176 1120.15 804.209 1120.15 804.209V808.878V809.445L1120.28 825.953V832.789H1120.42Z" fill="#03031C"/>
</g>
<g opacity="0.12">
<path d="M1206.7 784.5C1201.96 790.936 1171.38 834.257 1163.87 881.145C1160.57 877.143 1158.14 871.574 1156.34 865.238L1151.97 837.458L1151.23 832.723L1151.47 804.109C1151.47 804.109 1151.6 804.076 1151.87 803.976C1152.4 803.809 1153.5 803.409 1155.04 802.842C1173.75 800.241 1191.25 793.838 1206.73 784.467L1206.7 784.5Z" fill="#03031C"/>
</g>
<path d="M1217.6 665.744C1214.17 666.378 1211 666.678 1208.16 666.678C1204.16 666.678 1200.69 666.111 1197.66 665.077C1187.89 661.842 1182.12 654.139 1176.11 646.135C1175.38 645.135 1174.61 644.134 1173.85 643.134C1173.04 642.1 1172.94 640.733 1173.58 639.632C1174.18 638.498 1175.38 637.831 1176.68 637.931C1176.98 637.965 1206.26 640.232 1237.98 628.594C1238.95 628.227 1240.01 628.36 1240.88 628.927L1241.45 629.394C1241.98 629.961 1242.28 630.695 1242.31 631.462C1242.85 641.633 1238.35 661.909 1217.63 665.744H1217.6Z" fill="white"/>
<g opacity="0.12">
<path d="M1217.6 665.744C1214.17 666.378 1211 666.678 1208.16 666.678C1204.16 666.678 1200.69 666.111 1197.66 665.077C1234.68 660.709 1240.85 628.927 1240.85 628.927L1241.38 629.394C1241.91 629.961 1242.21 630.695 1242.25 631.462C1242.78 641.633 1238.28 661.909 1217.57 665.744H1217.6Z" fill="#03031C"/>
</g>
<g opacity="0.12">
<path d="M1070.53 542.387L1061.59 542.253L1022.07 541.686L1013.86 541.553C1011.86 541.553 1009.86 541.119 1007.99 540.352C1002.46 538.051 997.554 535.85 993.385 531.248C984.547 521.61 979.445 506.837 976.176 494.864C973.408 484.593 966.638 470.486 979.445 463.616C990.384 457.847 1008.06 458.047 1020.17 458.047C1032.27 458.047 1041.11 459.548 1049.25 461.916C1050.88 462.382 1052.45 462.916 1053.92 463.516C1072.66 471.187 1080.83 490.896 1084.53 509.671C1085.53 514.807 1086.2 519.876 1086.7 524.612V524.745C1087.73 534.283 1080.16 542.553 1070.59 542.42L1070.53 542.387Z" fill="#03031C"/>
</g>
<g opacity="0.12">
<path d="M1201.29 542.387L1210.23 542.253L1249.75 541.686L1257.96 541.553C1259.96 541.553 1261.96 541.119 1263.82 540.352C1269.36 538.051 1274.26 535.85 1278.43 531.248C1287.27 521.61 1292.37 506.837 1295.64 494.864C1298.41 484.593 1305.18 470.486 1292.37 463.616C1281.43 457.847 1263.76 458.047 1251.65 458.047C1239.55 458.047 1230.71 459.548 1222.57 461.916C1220.94 462.382 1219.37 462.916 1217.9 463.516C1199.16 471.187 1190.99 490.896 1187.29 509.671C1186.28 514.807 1185.62 519.876 1185.12 524.612V524.745C1184.08 534.283 1191.65 542.553 1201.23 542.42L1201.29 542.387Z" fill="#03031C"/>
</g>
<path d="M1073.39 548.023L1064.46 547.889L1024.93 547.322L1016.73 547.189C1014.73 547.189 1012.73 546.755 1010.86 545.988C1005.32 543.687 1000.42 541.486 996.253 536.884C987.416 527.246 982.313 512.473 979.044 500.5C976.276 490.229 969.506 476.122 982.313 469.252C993.252 463.483 1010.93 463.683 1023.03 463.683C1035.14 463.683 1043.98 465.184 1052.12 467.551C1053.75 468.018 1055.32 468.552 1056.78 469.152C1075.53 476.823 1083.7 496.532 1087.4 515.307C1088.4 520.443 1089.07 525.512 1089.57 530.248V530.381C1090.6 539.919 1083.03 548.189 1073.46 548.056L1073.39 548.023Z" fill="white"/>
<path d="M1198.42 548.023L1207.36 547.889L1246.88 547.322L1255.09 547.189C1257.09 547.189 1259.09 546.755 1260.96 545.988C1266.49 543.687 1271.4 541.486 1275.56 536.884C1284.4 527.246 1289.5 512.473 1292.77 500.5C1295.54 490.229 1302.31 476.122 1289.5 469.252C1278.57 463.483 1260.89 463.683 1248.78 463.683C1236.68 463.683 1227.84 465.184 1219.7 467.551C1218.07 468.018 1216.5 468.552 1215.03 469.152C1196.29 476.823 1188.12 496.532 1184.42 515.307C1183.42 520.443 1182.75 525.512 1182.25 530.248V530.381C1181.22 539.919 1188.79 548.189 1198.36 548.056L1198.42 548.023Z" fill="white"/>
<path d="M1203.29 548.123L1209.83 548.023L1238.71 547.589L1244.72 547.489C1246.18 547.489 1247.65 547.155 1248.98 546.588C1253.05 544.921 1256.59 543.287 1259.66 539.952C1266.13 532.915 1269.86 522.11 1272.23 513.373C1274.26 505.869 1279.2 495.565 1269.86 490.562C1261.86 486.327 1248.95 486.494 1240.11 486.494C1231.27 486.494 1224.8 487.594 1218.87 489.328C1217.67 489.662 1216.53 490.062 1215.47 490.496C1201.76 496.132 1195.79 510.472 1193.09 524.245C1192.35 527.98 1191.85 531.682 1191.52 535.15V535.25C1190.75 542.22 1196.29 548.256 1203.29 548.156V548.123Z" fill="#CE2199"/>
<path d="M1069.76 548.123L1063.22 548.023L1034.34 547.589L1028.34 547.489C1026.87 547.489 1025.4 547.155 1024.07 546.588C1020 544.921 1016.46 543.287 1013.4 539.952C1006.93 532.915 1003.19 522.11 1000.82 513.373C998.788 505.869 993.852 495.565 1003.19 490.562C1011.19 486.327 1024.1 486.494 1032.94 486.494C1041.78 486.494 1048.25 487.594 1054.18 489.328C1055.38 489.662 1056.52 490.062 1057.59 490.496C1071.29 496.132 1077.26 510.472 1079.96 524.245C1080.7 527.98 1081.2 531.682 1081.53 535.15V535.25C1082.3 542.22 1076.76 548.256 1069.76 548.156V548.123Z" fill="#CE2199"/>
<path d="M1216.63 529.08H1218.94L1229.11 528.914H1231.21C1231.74 528.914 1232.24 528.78 1232.71 528.58C1234.14 527.98 1235.41 527.413 1236.48 526.246C1238.75 523.778 1240.08 519.976 1240.91 516.908C1241.61 514.273 1243.35 510.638 1240.08 508.871C1237.28 507.37 1232.71 507.437 1229.61 507.437C1226.51 507.437 1224.2 507.837 1222.14 508.437C1221.7 508.537 1221.3 508.704 1220.94 508.837C1216.1 510.805 1214 515.874 1213.07 520.71C1212.8 522.01 1212.63 523.344 1212.5 524.545C1212.23 527.013 1214.17 529.18 1216.63 529.114V529.08Z" fill="white"/>
<path d="M1055.05 529.08H1052.75L1042.58 528.914H1040.48C1039.94 528.914 1039.44 528.78 1038.98 528.58C1037.54 527.98 1036.27 527.413 1035.21 526.246C1032.94 523.778 1031.6 519.976 1030.77 516.908C1030.07 514.273 1028.34 510.638 1031.6 508.871C1034.41 507.37 1038.98 507.437 1042.08 507.437C1045.18 507.437 1047.48 507.837 1049.55 508.437C1049.98 508.537 1050.38 508.704 1050.75 508.837C1055.58 510.805 1057.69 515.874 1058.62 520.71C1058.89 522.01 1059.05 523.344 1059.15 524.545C1059.42 527.013 1057.49 529.18 1055.02 529.114L1055.05 529.08Z" fill="white"/>
<path d="M1365.24 73C1367.75 110.284 1370.25 147.535 1372.75 184.819C1376.55 242.079 1334.73 290.569 1276.3 287.901C1234.88 283.465 1193.89 276.162 1153.6 266.09C1154.9 238.044 1156.2 209.997 1157.47 181.951C1161.57 140.832 1207.03 106.416 1260.22 95.3105C1295.74 90.2081 1330.83 82.7712 1365.24 73.0667V73Z" fill="#EA26A9"/>
<path d="M907.274 696.192L898.036 702.462C897.602 702.762 897.202 703.095 896.802 703.462C892.967 706.697 887.23 706.53 883.595 702.895C881.694 700.994 880.76 698.493 880.76 695.992C880.76 693.724 881.527 691.49 883.062 689.656C883.395 689.255 883.729 688.855 884.062 688.422L890.299 679.184L890.832 679.718L886.864 685.587C886.563 686.054 886.23 686.421 885.863 686.821C884.329 688.622 883.562 690.889 883.562 693.157C883.562 695.658 884.496 698.159 886.397 700.06C889.998 703.662 895.768 703.862 899.603 700.627C900.004 700.26 900.404 699.927 900.837 699.627L906.74 695.625L907.274 696.159V696.192Z" fill="#03031C" fill-opacity="0.12"/>
<path d="M1360.84 696.192L1370.08 702.462C1370.51 702.762 1370.91 703.095 1371.31 703.462C1375.12 706.697 1380.89 706.53 1384.52 702.895C1386.42 700.994 1387.36 698.493 1387.36 695.992C1387.36 693.724 1386.59 691.49 1385.05 689.656C1384.72 689.255 1384.39 688.855 1384.09 688.422L1377.85 679.184L1377.28 679.718L1381.25 685.587C1381.55 686.054 1381.92 686.421 1382.25 686.821C1383.79 688.622 1384.55 690.889 1384.55 693.157C1384.55 695.658 1383.62 698.159 1381.72 700.06C1378.12 703.662 1372.35 703.862 1368.51 700.627C1368.11 700.26 1367.71 699.927 1367.28 699.627L1361.38 695.625L1360.84 696.159V696.192Z" fill="#03031C" fill-opacity="0.12"/>
<path d="M1358.37 716.668C1348.47 710.899 1339.6 703.829 1333.79 696.025L1344.8 666.845C1344.8 666.845 1346.53 694.391 1358.41 716.668H1358.37Z" fill="#03031C" fill-opacity="0.12"/>
<path d="M937.957 696.125C932.054 703.996 923.016 711.166 913.01 716.935C925.35 695.358 927.118 667.345 927.118 667.345L937.957 696.159V696.125Z" fill="#03031C" fill-opacity="0.12"/>
<g opacity="0.12">
<path d="M1365.24 73C1367.75 110.284 1370.25 147.535 1372.75 184.819C1376.55 242.079 1334.73 290.569 1276.3 287.901C1234.88 283.465 1193.86 276.162 1153.6 266.09C1152.77 264.723 1206.63 274.228 1259.99 248.816C1313.42 225.305 1366.38 166.911 1365.24 73.0333V73Z" fill="#03031C"/>
</g>
<g opacity="0.05">
<path d="M468.547 927C570.867 927 653.81 906.624 653.81 881.479C653.81 856.334 570.867 835.957 468.547 835.957C366.228 835.957 283.285 856.334 283.285 881.479C283.285 906.624 366.228 927 468.547 927Z" fill="#03031C"/>
</g>
<path d="M753.962 729.007C750.426 744.648 717.209 738.845 691.196 723.738C681.291 718.002 672.386 710.899 666.583 703.129C666.583 703.095 666.55 703.095 666.516 703.062C666.516 703.062 644.972 758.221 604.551 797.039C564.13 840.493 534.248 873.308 534.982 874.042C535.715 874.742 548.422 879.344 543.553 891.717C543.553 891.717 530.846 910.326 499.697 891.283C498.563 890.383 497.529 889.349 496.529 888.149C493.26 884.147 490.792 878.577 488.958 872.274C486.523 863.737 485.223 853.866 484.589 844.528C483.455 828.254 483.755 804.009 483.855 801.041V800.841C483.855 800.841 480.987 800.441 477.686 800.074C471.416 799.374 465.046 799.374 458.776 800.107L452.573 800.841V800.908C452.573 801.875 452.606 810.979 452.639 811.146C452.673 811.779 452.773 813.447 452.873 815.881V816.482C453.039 820.484 453.173 826.286 453.006 832.956V833.089C452.939 836.124 452.806 839.259 452.606 842.527C451.972 852.899 450.572 864.137 447.737 873.542C445.936 879.411 443.568 884.58 440.433 888.282C439.499 889.382 438.499 890.416 437.431 891.25C406.315 910.326 393.575 891.684 393.575 891.684C388.706 879.278 401.413 874.676 402.146 874.009C402.88 873.308 372.998 840.46 332.577 797.006C292.156 758.188 270.612 703.029 270.612 703.029C270.612 703.062 270.579 703.095 270.545 703.129C270.545 703.129 270.512 703.162 270.512 703.195C264.609 711.066 255.571 718.202 245.532 723.972C239.129 727.673 232.292 730.741 225.589 733.143C205.145 740.379 185.835 740.713 183.167 728.974C181.199 719.57 193.939 709.198 205.445 680.285C208.88 671.547 209.614 659.608 210.848 650.637C215.717 615.254 213.783 579.171 216.951 543.554C220.386 504.269 230.891 465.417 253.937 431.902C279.483 394.617 306.564 367.238 331.076 347.395C369.897 315.947 418.555 299.106 468.514 299.106C493.494 299.106 518.14 303.308 541.418 311.478C564.664 319.616 586.542 331.688 605.952 347.395C630.464 367.238 657.545 394.617 683.092 431.902C706.137 465.451 716.642 504.269 720.077 543.554C723.279 579.171 721.311 615.221 726.181 650.637C727.414 659.575 728.148 671.547 731.583 680.285C743.123 709.231 755.829 719.57 753.861 728.974H753.895L753.962 729.007Z" fill="#23E2C2"/>
<g opacity="0.12">
<path d="M453.039 832.889V833.023C452.973 836.024 452.839 839.192 452.639 842.46C452.006 852.832 450.605 864.071 447.77 873.475C445.969 879.344 443.601 884.513 440.466 888.215C435.03 854.233 417.454 820.45 406.415 802.909C411.151 804.709 416.554 805.91 422.424 805.91C437.832 805.91 444.001 802.842 452.606 800.841C452.606 801.808 452.639 810.912 452.673 811.079C452.706 811.713 452.806 813.38 452.906 815.815V816.415C453.073 820.417 453.206 826.219 453.039 832.889Z" fill="#03031C"/>
</g>
<g opacity="0.12">
<path d="M530.479 803.175C519.407 820.75 501.998 854.333 496.562 888.115C493.294 884.113 490.826 878.544 488.991 872.241C486.557 863.704 485.256 853.832 484.622 844.495C483.489 828.22 483.755 803.976 483.889 801.008V800.808C493.027 802.809 501.064 805.977 516.239 805.977C521.542 805.977 526.277 804.876 530.446 803.175H530.479Z" fill="#03031C"/>
</g>
<g opacity="0.12">
<path d="M270.512 703.195C264.609 711.066 255.571 718.202 245.532 723.972C257.872 702.428 259.64 674.415 259.64 674.415L270.512 703.195Z" fill="#03031C"/>
</g>
<g opacity="0.12">
<path d="M524.81 636.597C530.88 636.597 535.782 631.695 535.782 625.626C535.782 619.556 530.88 614.654 524.81 614.654C518.74 614.654 513.838 619.556 513.838 625.626C513.838 631.695 518.74 636.597 524.81 636.597Z" fill="#03031C"/>
<path d="M468.714 636.597C474.784 636.597 479.687 631.695 479.687 625.626C479.687 619.556 474.784 614.654 468.714 614.654C462.644 614.654 457.742 619.556 457.742 625.626C457.742 631.695 462.644 636.597 468.714 636.597Z" fill="#03031C"/>
<path d="M412.352 636.597C418.422 636.597 423.324 631.695 423.324 625.626C423.324 619.556 418.422 614.654 412.352 614.654C406.282 614.654 401.379 619.556 401.379 625.626C401.379 631.695 406.282 636.597 412.352 636.597Z" fill="#03031C"/>
</g>
<path d="M246.733 73C244.232 110.284 241.73 147.535 239.229 184.819C235.427 242.079 277.249 290.569 335.679 287.901C377.1 283.465 418.088 276.162 458.376 266.09C457.075 238.044 455.774 209.997 454.507 181.951C450.405 140.832 404.948 106.416 351.754 95.3105C316.202 90.1747 281.117 82.7379 246.733 73Z" fill="#EA26A9"/>
<g opacity="0.12">
<path d="M246.733 73C244.232 110.284 241.73 147.535 239.229 184.819C235.427 242.079 277.249 290.569 335.679 287.901C377.1 283.465 418.088 276.162 458.376 266.09C459.209 264.723 405.348 274.228 351.987 248.816C298.56 225.271 245.599 166.877 246.733 73Z" fill="#03031C"/>
</g>
<g opacity="0.05">
<path d="M1777.39 927C1865.4 927 1936.74 906.624 1936.74 881.479C1936.74 856.334 1865.4 835.957 1777.39 835.957C1689.38 835.957 1618.01 856.334 1618.01 881.479C1618.01 906.624 1689.34 927 1777.39 927Z" fill="#03031C"/>
</g>
<path d="M1665.93 558.427C1665.63 559.261 1665.33 560.061 1665.03 560.862C1664.73 561.662 1664.4 562.396 1664.07 563.13C1663.53 564.23 1663 565.231 1662.43 566.164C1662.03 566.831 1661.6 567.465 1661.16 568.032C1660.43 569.032 1659.63 569.866 1658.8 570.6C1642.05 585.54 1602.23 585.54 1595.9 579.871C1589.56 574.235 1581.16 538.685 1591.56 519.909C1595.9 512.372 1601.67 503.202 1609.77 495.631C1621.54 484.693 1638.35 477.089 1663.13 482.558C1671.5 484.426 1674.7 533.082 1666 558.394L1665.93 558.427Z" fill="white"/>
<path d="M1639.65 561.262C1639.49 561.762 1639.29 562.263 1639.09 562.729C1638.89 563.196 1638.69 563.663 1638.49 564.097C1638.18 564.764 1637.85 565.364 1637.48 565.964C1637.25 566.364 1636.98 566.765 1636.72 567.098C1636.25 567.698 1635.78 568.232 1635.28 568.666C1625.08 577.736 1600.87 577.736 1597.03 574.302C1593.16 570.867 1588.06 549.256 1594.4 537.818C1597.03 533.216 1600.53 527.646 1605.47 523.044C1612.64 516.374 1622.84 511.739 1637.92 515.107C1643.02 516.241 1644.96 545.855 1639.65 561.229V561.262Z" fill="#EA26A9"/>
<path d="M1617.91 555.193C1617.84 555.393 1617.77 555.559 1617.71 555.759C1617.64 555.926 1617.57 556.093 1617.47 556.293C1617.37 556.527 1617.24 556.76 1617.11 556.993C1617.01 557.127 1616.91 557.294 1616.81 557.427C1616.64 557.66 1616.47 557.827 1616.27 558.027C1612.47 561.429 1603.4 561.429 1601.97 560.128C1600.53 558.861 1598.63 550.757 1601 546.488C1602 544.754 1603.3 542.687 1605.13 540.953C1607.8 538.451 1611.64 536.717 1617.27 537.984C1619.18 538.418 1619.91 549.457 1617.91 555.226V555.193Z" fill="white"/>
<path d="M1784.66 866.472C1784.66 866.472 1767.75 883.98 1767.75 889.649C1755.05 893.284 1732.53 887.715 1732.53 883.88C1732.53 880.045 1751.28 865.071 1751.28 865.071C1751.28 865.071 1742.91 846.262 1732.53 833.156C1723.63 822.051 1677.07 790.369 1662.86 781.098C1711.82 812.08 1768.95 817.215 1768.95 817.215L1784.66 866.472Z" fill="#23E2C2"/>
<g opacity="0.12">
<path d="M1784.66 866.472C1784.66 866.472 1767.75 883.98 1767.75 889.649C1755.05 893.284 1732.53 887.715 1732.53 883.88C1732.53 880.045 1751.28 865.071 1751.28 865.071C1751.28 865.071 1742.91 846.262 1732.53 833.156C1723.63 822.051 1677.07 790.369 1662.86 781.098C1711.82 812.08 1768.95 817.215 1768.95 817.215L1784.66 866.472Z" fill="#03031C"/>
</g>
<path d="M1986.43 511.105C1981.96 481.291 1971.59 450.81 1956.95 423.031C1930.14 372.307 1882.54 335.756 1826.82 322.183C1815.24 319.382 1803.5 317.581 1791.7 316.814C1787.43 316.514 1783.16 316.414 1778.92 316.414C1769.19 316.414 1759.45 317.114 1749.78 318.515L1721.16 322.684C1686.84 327.686 1654.23 341.192 1626.95 362.602C1604.73 380.01 1581.49 404.889 1565.61 439.338C1525.79 525.545 1526.79 635.13 1594.03 719.303C1661.26 803.509 1757.65 822.284 1757.65 822.284L1776.42 865.304C1776.42 865.304 1755.38 884.113 1755.38 889.749C1755.38 895.385 1774.16 897.219 1788.86 895.385C1795.3 894.585 1802.5 893.084 1808.61 891.617C1816.41 889.749 1822.38 887.915 1822.38 887.915C1822.38 887.915 1830.75 882.279 1832.79 869.106C1832.79 869.106 1876.91 829.721 1876.91 803.475C1876.91 803.475 1893.65 799.64 1904.29 788.535C1914.69 777.196 1921.03 769.726 1923.07 751.184C1923.07 751.184 1952.48 723.104 1967.19 683.719C1981.93 644.334 1997.14 580.271 1986.46 511.038L1986.43 511.105ZM1661.33 568.032C1660.6 569.032 1659.8 569.866 1658.96 570.6C1642.22 585.54 1602.4 585.54 1596.06 579.871C1589.73 574.235 1581.32 538.685 1591.76 519.909C1596.1 512.372 1601.87 503.201 1609.94 495.631C1621.71 484.693 1638.52 477.089 1663.3 482.558C1672.94 484.693 1675.7 548.89 1661.36 568.032H1661.33Z" fill="#23E2C2"/>
<g opacity="0.12">
<path d="M1967.12 683.786C1952.41 723.171 1923 751.251 1923 751.251C1920.96 769.793 1914.63 777.263 1904.22 788.602C1893.58 799.707 1876.84 803.542 1876.84 803.542C1876.84 829.788 1832.72 869.173 1832.72 869.173C1830.68 882.312 1822.31 887.982 1822.31 887.982C1822.31 887.982 1816.38 889.783 1808.54 891.683C1886.25 781.832 1849.99 698.26 1840.16 679.818C1784.79 750.784 1743.27 745.849 1730.57 743.748C1716.36 741.38 1707.85 727.407 1729 698.26C1750.14 669.113 1759.68 616.421 1759.68 616.421L1821.48 657.941C1822.95 654.906 1831.32 658.141 1837.29 658.908C1842.39 646.035 1848.89 627.426 1852.83 607.784C1868.77 467.251 1811.17 352.264 1791.6 316.848C1803.4 317.581 1815.14 319.382 1826.72 322.217C1882.44 335.823 1930.07 372.34 1956.85 423.064C1971.52 450.844 1981.86 481.358 1986.33 511.139C1996.97 580.371 1981.76 644.468 1967.05 683.819L1967.12 683.786Z" fill="#03031C"/>
</g>
<g opacity="0.12">
<path d="M1662.56 567.065C1662.2 567.432 1661.76 567.765 1661.36 568.065C1675.74 548.956 1672.97 484.759 1663.3 482.592C1638.52 477.089 1621.74 484.693 1609.94 495.665C1621.84 482.859 1639.49 472.921 1666.87 478.99C1677.01 481.258 1679.54 552.091 1662.56 567.031V567.065Z" fill="#03031C"/>
</g>
<path d="M1759.75 616.321C1759.75 616.321 1753.04 671.18 1734.9 696.225C1716.76 721.204 1723.7 734.477 1736.24 735.244C1748.01 735.944 1784.99 734.443 1837.35 658.841" fill="#23E2C2"/>
<path d="M1957.15 97.2113V195.124C1956.55 244.38 1918.9 285.266 1869.84 289.902H1764.48V190.222C1766.22 139.831 1806.47 99.2789 1856.83 97.2447H1957.15V97.2113Z" fill="#EA26A9"/>
<g opacity="0.12">
<path d="M1957.15 97.2113V195.124C1956.55 244.38 1918.9 285.266 1869.84 289.902H1764.48C1764.48 289.902 1944.48 254.151 1957.15 97.2447V97.2113Z" fill="#03031C"/>
</g>
</svg>
