<svg width="204" height="45" viewBox="0 0 204 45" fill="none" xmlns="http://www.w3.org/2000/svg">
<path d="M39.6503 0.87C39.0848 0.28275 38.3453 0 37.4971 0H12.7673V2.97975C12.7673 3.7845 13.0501 4.4805 13.6373 5.046C14.2246 5.63325 14.9641 5.93775 15.8123 5.93775H23.7076V35.8875L26.6003 35.9093C27.4486 35.9093 28.1881 35.6048 28.7536 35.0393C29.3408 34.452 29.6453 33.7342 29.6453 32.9513V5.9595L40.5421 5.93775V3.1755C40.5203 2.3925 40.2376 1.479 39.6503 0.87Z" fill="#505071"/>
<path d="M55.3538 10.9619C54.5056 10.9619 53.7661 11.2447 53.2006 11.8319C52.6133 12.4192 52.3088 13.1369 52.3088 13.9199V25.8607C51.2648 28.7969 48.0893 30.2107 44.6746 30.2107C41.8471 30.2107 40.4768 28.8839 40.4768 26.1869V13.9199C40.4768 13.1369 40.1723 12.4409 39.5851 11.8319C39.0196 11.2447 38.2801 10.9619 37.4318 10.9619H34.5391V26.7524C34.5391 32.8207 37.6276 35.9092 44.0221 35.9092C47.1758 35.9092 50.6123 34.7999 52.2653 32.6467C52.1348 34.5607 51.9173 35.5612 50.8516 36.9967C49.6553 38.6062 47.3063 39.2152 44.8486 39.2152C42.4996 39.2152 40.2376 38.7584 37.7581 37.8232C37.3448 37.7144 36.9533 37.6709 36.6271 37.6709C35.2786 37.6709 34.5391 38.4104 34.5391 39.7589V42.1949L34.7131 42.3037C37.5406 44.0219 40.8466 44.8919 44.8486 44.8919C53.1571 44.8919 58.2248 40.3462 58.2248 31.3634V10.9619H55.3538Z" fill="#505071"/>
<path d="M82.5848 24.9473C82.1498 23.6205 81.6278 23.4248 80.9971 22.8375C81.2798 22.4678 81.6278 21.7718 82.1281 20.2928L85.8691 10.9838H82.4761C80.6273 10.9838 79.4311 11.745 78.9526 13.224L76.4078 19.1618C76.2121 19.662 75.6248 19.9013 74.6678 19.9013H69.1216L69.1433 2.9145C69.1433 2.1315 68.8823 1.479 68.2951 0.87C67.7296 0.28275 66.9901 0 66.1418 0H63.2056V35.8875H66.1201C66.9683 35.8875 67.7078 35.583 68.2951 34.9958C68.8606 34.4303 69.1651 33.7343 69.1651 32.9295L69.1216 25.9043H75.6901C76.6253 25.9043 76.8646 26.3393 76.9733 26.6655L80.0183 33.7778C80.4751 35.1915 81.6496 35.8875 83.5201 35.8875H86.8913L82.5848 24.9473Z" fill="#505071"/>
<path d="M15.7688 17.2044C15.4207 13.1589 12.093 9.98344 8.004 9.93994H1.566H1.3485H0V11.3102V11.7234V18.2484C0.174 22.4027 3.48 25.7522 7.6125 25.9044H14.2245H14.442H15.7905V24.5342V17.2262C15.7905 17.2044 15.7688 17.2044 15.7688 17.2044Z" fill="#00D9BA"/>
<path d="M125.528 22.3902C125.528 26.5952 124.196 29.8861 121.532 32.2628C118.968 34.573 115.55 35.7282 111.277 35.7282H97V13.3653C97 9.17693 98.3322 5.88607 100.996 3.49272C103.56 1.18247 106.987 0.0273438 111.277 0.0273438C115.55 0.0273438 118.968 1.18247 121.532 3.49272C124.196 5.88607 125.528 9.17693 125.528 13.3653V22.3902ZM111.277 31.5398C114.125 31.5398 116.421 30.7586 118.164 29.1963C119.973 27.5841 120.878 25.3819 120.878 22.5897V13.3653C120.878 10.573 119.973 8.36252 118.164 6.73371C116.421 5.17139 114.125 4.39022 111.277 4.39022C108.411 4.39022 106.107 5.17139 104.365 6.73371C102.555 8.36252 101.65 10.573 101.65 13.3653V31.5398H111.277Z" fill="#2CA597"/>
<path d="M143.349 13.7642C140.366 13.7642 138.247 14.6451 136.99 16.4068C135.968 17.8362 135.457 19.9719 135.457 22.814C135.457 25.6562 135.968 27.8002 136.99 29.2462C138.247 31.008 140.366 31.8888 143.349 31.8888C146.332 31.8888 148.451 31.008 149.708 29.2462C150.714 27.8002 151.216 25.6562 151.216 22.814C151.216 19.9719 150.714 17.8362 149.708 16.4068C148.451 14.6451 146.332 13.7642 143.349 13.7642ZM143.349 9.60075C151.543 9.60075 155.64 14.0052 155.64 22.814C155.64 31.6229 151.543 36.0273 143.349 36.0273C135.138 36.0273 131.033 31.6229 131.033 22.814C131.033 14.0052 135.138 9.60075 143.349 9.60075Z" fill="#2CA597"/>
<path d="M182.384 33.634C179.703 35.2296 176.343 36.0273 172.305 36.0273C164.094 36.0273 159.988 31.6229 159.988 22.814C159.988 14.0052 164.094 9.60075 172.305 9.60075C176.343 9.60075 179.703 10.3985 182.384 11.9941V14.0883C182.384 14.9359 181.99 15.3598 181.202 15.3598C180.934 15.3598 180.633 15.3182 180.298 15.2351C177.583 14.2379 174.919 13.7393 172.305 13.7393C169.322 13.7393 167.202 14.6285 165.946 16.4068C164.923 17.8362 164.412 19.9719 164.412 22.814C164.412 25.6562 164.923 27.7919 165.946 29.2212C167.202 30.9996 169.322 31.8888 172.305 31.8888C174.919 31.8888 177.583 31.3902 180.298 30.393C180.633 30.3099 180.934 30.2683 181.202 30.2683C181.99 30.2683 182.384 30.6922 182.384 31.5398V33.634Z" fill="#2CA597"/>
<path d="M193.795 9.60075C197.415 9.60075 200.565 10.4068 203.246 12.019V14.0883C203.246 14.9526 202.852 15.3847 202.065 15.3847C201.813 15.3847 201.512 15.3348 201.16 15.2351C198.428 14.2545 195.974 13.7642 193.795 13.7642C192.354 13.7642 191.223 14.1381 190.402 14.8861C189.648 15.5509 189.271 16.3653 189.271 17.3293C189.271 18.526 190.05 19.3653 191.608 19.8473C191.642 19.8639 193.343 20.188 196.711 20.8196C199.007 21.2351 200.699 21.8916 201.788 22.7891C203.263 23.9858 204 25.7559 204 28.0994V28.3237C203.966 30.4179 203.171 32.188 201.612 33.634C199.903 35.2296 197.599 36.0273 194.7 36.0273C191.064 36.0273 187.905 35.2296 185.224 33.634V31.5647C185.224 30.7005 185.626 30.2683 186.431 30.2683C186.682 30.2683 186.975 30.3099 187.31 30.393C190.042 31.3902 192.505 31.8888 194.7 31.8888C196.141 31.8888 197.322 31.5149 198.244 30.767C199.082 30.0855 199.501 29.2711 199.501 28.3237C199.501 26.9609 198.738 25.9969 197.214 25.4318C196.761 25.2656 195.069 24.9165 192.136 24.3847C189.841 23.9692 188.157 23.3625 187.084 22.5647C185.542 21.4179 184.772 19.6728 184.772 17.3293C184.772 15.2185 185.509 13.4484 186.984 12.019C188.626 10.4068 190.896 9.60075 193.795 9.60075Z" fill="#2CA597"/>
</svg>

