<svg width="73" height="73" viewBox="0 0 73 73" fill="none" xmlns="http://www.w3.org/2000/svg">
<g clip-path="url(#clip0_2018_5729)">
<path d="M0 10C0 4.47715 4.47715 0 10 0H63C68.5228 0 73 4.47715 73 10V63C73 68.5228 68.5228 73 63 73H10C4.47715 73 0 68.5228 0 63V10Z" fill="#03031C"/>
<path d="M43.7318 38.7227H29.2676" stroke="white" stroke-width="2.1" stroke-miterlimit="10" stroke-linecap="round"/>
<path d="M43.7318 34.6875H29.2676" stroke="white" stroke-width="2.1" stroke-miterlimit="10" stroke-linecap="round"/>
<path d="M43.7318 46.6484H29.2676" stroke="white" stroke-width="2.1" stroke-miterlimit="10" stroke-linecap="round"/>
<path d="M43.7318 42.6133H29.2676" stroke="white" stroke-width="2.1" stroke-miterlimit="10" stroke-linecap="round"/>
<path d="M40.8634 18.0327H32.139C31.9572 18.0327 31.7829 18.1047 31.6543 18.2328C31.5258 18.361 31.4536 18.5348 31.4536 18.716V22.4539C31.4536 22.8373 31.6063 23.2049 31.8782 23.4759C32.15 23.7469 32.5187 23.8992 32.9031 23.8992H32.9237C33.2195 23.8964 33.5079 23.8059 33.752 23.6392C33.9961 23.4725 34.1849 23.2371 34.2944 22.963C34.4723 22.5191 34.7797 22.1385 35.1767 21.8704C35.5737 21.6023 36.0422 21.459 36.5217 21.459C37.0013 21.459 37.4698 21.6023 37.8668 21.8704C38.2638 22.1385 38.5712 22.5191 38.7491 22.963C38.8586 23.2371 39.0474 23.4725 39.2915 23.6392C39.5356 23.8059 39.824 23.8964 40.1198 23.8992H40.1404C40.5251 23.8992 40.8942 23.7471 41.1665 23.4761C41.4389 23.2052 41.5924 22.8376 41.5933 22.4539V18.7195C41.594 18.6256 41.5752 18.5326 41.5383 18.4462C41.5013 18.3599 41.4468 18.282 41.3784 18.2176C41.3099 18.1532 41.2288 18.1035 41.1402 18.0717C41.0516 18.0399 40.9574 18.0266 40.8634 18.0327Z" stroke="white" stroke-miterlimit="10" stroke-linecap="round"/>
<path d="M29.1271 18.0315H22.1092C21.8774 18.0315 21.6552 18.1233 21.4913 18.2867C21.3274 18.4501 21.2354 18.6717 21.2354 18.9028V53.0324C21.2354 53.4855 21.4159 53.9201 21.7372 54.2404C22.0585 54.5608 22.4943 54.7408 22.9487 54.7408H49.732C50.2773 54.7408 50.8003 54.5248 51.1859 54.1404C51.5715 53.7559 51.7881 53.2345 51.7881 52.6908V18.9028C51.7881 18.7866 51.7649 18.6716 51.7197 18.5645C51.6745 18.4575 51.6083 18.3605 51.5249 18.2793C51.4416 18.1981 51.3428 18.1344 51.2344 18.0918C51.126 18.0493 51.0102 18.0288 50.8937 18.0315H43.8758" stroke="white" stroke-miterlimit="10" stroke-linecap="round"/>
<path d="M43.2183 52.7457H48.8381C49.0353 52.7457 49.2245 52.6676 49.3639 52.5286C49.5034 52.3895 49.5817 52.2009 49.5817 52.0043V46.3906L49.4755 46.7323C49.0099 48.1734 48.194 49.4773 47.1004 50.5277C46.0069 51.5781 44.6697 52.3424 43.208 52.7526L43.2183 52.7457Z" fill="white"/>
<path d="M23.4116 46.3906V52.0043C23.4116 52.1025 23.4312 52.1998 23.4692 52.2904C23.5072 52.3811 23.5629 52.4633 23.633 52.5322C23.7032 52.6012 23.7864 52.6556 23.8778 52.6923C23.9692 52.7289 24.067 52.7471 24.1655 52.7457H29.7853L29.4427 52.6364C27.9989 52.1718 26.6927 51.3584 25.6404 50.2687C24.5882 49.179 23.8225 47.8468 23.4116 46.3906V46.3906Z" fill="white"/>
<path d="M43.3793 28.6055H29.6244C28.9109 28.6055 28.3325 29.1822 28.3325 29.8936V30.1327C28.3325 30.8441 28.9109 31.4209 29.6244 31.4209H43.3793C44.0928 31.4209 44.6712 30.8441 44.6712 30.1327V29.8936C44.6712 29.1822 44.0928 28.6055 43.3793 28.6055Z" fill="#0DC5AF"/>
</g>
<defs>
<clipPath id="clip0_2018_5729">
<rect width="73" height="73" fill="white"/>
</clipPath>
</defs>
</svg>
