<svg width="73" height="73" viewBox="0 0 73 73" fill="none" xmlns="http://www.w3.org/2000/svg">
<g clip-path="url(#clip0_2018_5671)">
<path d="M0 10C0 4.47715 4.47715 0 10 0H63C68.5228 0 73 4.47715 73 10V63C73 68.5228 68.5228 73 63 73H10C4.47715 73 0 68.5228 0 63V10Z" fill="#03031C"/>
<path d="M20.7321 20.0443C20.7321 19.5347 20.3185 19.1211 19.8089 19.1211C19.2994 19.1211 18.8857 19.5347 18.8857 20.0443C18.8857 20.5538 19.2994 20.9675 19.8089 20.9675C20.3185 20.9675 20.7321 20.5538 20.7321 20.0443Z" fill="white"/>
<path d="M24.4245 20.0443C24.4245 19.5347 24.0109 19.1211 23.5013 19.1211C22.9918 19.1211 22.5781 19.5347 22.5781 20.0443C22.5781 20.5538 22.9918 20.9675 23.5013 20.9675C24.0109 20.9675 24.4245 20.5538 24.4245 20.0443Z" fill="white"/>
<path d="M28.1174 20.0443C28.1174 19.5347 27.7037 19.1211 27.1942 19.1211C26.6846 19.1211 26.271 19.5347 26.271 20.0443C26.271 20.5538 26.6846 20.9675 27.1942 20.9675C27.7037 20.9675 28.1174 20.5538 28.1174 20.0443Z" fill="white"/>
<path d="M25.68 49.6826H18.793C17.3159 49.6826 16.1157 48.4824 16.1157 47.0053V18.5527C16.1157 17.3525 17.0943 16.3555 18.3129 16.3555H54.6865C55.8867 16.3555 56.8837 17.334 56.8837 18.5527V47.0053C56.8837 48.4824 55.6836 49.6826 54.2065 49.6826H47.6703" stroke="white" stroke-miterlimit="10" stroke-linecap="round" stroke-linejoin="round"/>
<path d="M16.1157 25.0664H56.8653" stroke="white" stroke-miterlimit="10" stroke-linecap="round" stroke-linejoin="round"/>
<path d="M43.8672 46.6172C43.8672 46.6172 43.8118 48.7405 42.8517 50.4761C41.5777 52.821 40.3037 54.5751 40.3037 57.5108" stroke="white" stroke-miterlimit="10" stroke-linecap="round" stroke-linejoin="round"/>
<path d="M38.8264 43.2374C38.9372 40.1724 39.0849 39.3785 38.4386 38.9538C37.7001 38.4553 36.9615 39.0646 36.3892 39.637" stroke="white" stroke-miterlimit="10" stroke-linecap="round" stroke-linejoin="round"/>
<path d="M41.3562 44.7101C41.4669 41.6451 41.6147 40.8512 40.9684 40.4265C40.2299 39.928 39.4913 40.5373 38.9189 41.1096" stroke="white" stroke-miterlimit="10" stroke-linecap="round" stroke-linejoin="round"/>
<path d="M43.8669 46.6124C43.9777 43.5474 44.1254 42.7535 43.4792 42.3288C42.7406 41.8303 42.0021 42.4396 41.4297 43.012" stroke="white" stroke-miterlimit="10" stroke-linecap="round" stroke-linejoin="round"/>
<path d="M29.853 60.6662V58.4505C29.853 57.9335 30.2592 57.5273 30.7762 57.5273H41.0605C41.5775 57.5273 41.9837 57.9335 41.9837 58.4505V60.6662" stroke="white" stroke-miterlimit="10" stroke-linecap="round" stroke-linejoin="round"/>
<path d="M31.6444 57.5277V54.4812C31.6444 49.7545 30.315 48.3882 28.6348 46.3572C28.6348 46.3572 27.4716 44.7693 27.6008 42.9229C27.7116 41.335 29.9827 41.1688 30.3335 42.7013C30.3704 42.849 30.3889 42.9968 30.4073 43.1814C30.4812 43.9753 30.9243 44.6954 31.6444 45.0462C32.5676 45.5078 33.6385 44.8431 33.6385 43.8092V43.366V34.7065C33.6385 34.0049 34.2109 33.4141 34.931 33.4141C35.6326 33.4141 36.2234 33.9864 36.2234 34.7065V42.3136" stroke="white" stroke-miterlimit="10" stroke-linecap="round" stroke-linejoin="round"/>
<path d="M38.5309 35.0378C38.1801 35.0378 37.8847 34.7424 37.8847 34.3915C37.8847 32.6929 36.4999 31.3081 34.8012 31.3081C33.1025 31.3081 31.7178 32.6929 31.7178 34.3915C31.7178 34.7424 31.4223 35.0378 31.0715 35.0378C30.7207 35.0378 30.4253 34.7424 30.4253 34.3915C30.4253 31.9728 32.3825 30.0156 34.8012 30.0156C37.22 30.0156 39.1771 31.9728 39.1771 34.3915C39.1771 34.7608 38.8817 35.0378 38.5309 35.0378Z" fill="#0DC5AF"/>
</g>
<defs>
<clipPath id="clip0_2018_5671">
<rect width="73" height="73" fill="white"/>
</clipPath>
</defs>
</svg>
