<svg width="73" height="73" viewBox="0 0 73 73" fill="none" xmlns="http://www.w3.org/2000/svg">
<g clip-path="url(#clip0_2016_5631)">
<rect width="73" height="73" rx="10" fill="#5C2D90"/>
<path d="M33.3994 39.6409L54.7986 36.0195L56.1155 50.8344L35.0455 54.785L33.3994 39.6409Z" fill="white"/>
<path d="M13.646 15.9372L52.1646 11.3281L56.1152 48.5298L18.2551 54.4557L13.646 15.9372Z" fill="white"/>
<ellipse cx="26.8151" cy="51.7287" rx="4.49064" ry="6.58437" transform="rotate(-22.8621 26.8151 51.7287)" fill="white"/>
<mask id="mask0_2016_5631" style="mask-type:luminance" maskUnits="userSpaceOnUse" x="12" y="11" width="48" height="52">
<path d="M60 11H12V62.1901H60V11Z" fill="white"/>
</mask>
<g mask="url(#mask0_2016_5631)">
<path d="M54.736 36.0142L55.9044 50.9261L35.2207 54.6377L33.4402 39.7258L36.3951 39.3133C36.8758 39.5196 37.2201 39.5878 37.7698 39.7258C38.663 39.9321 39.6942 40.2065 41.2047 39.3823C41.5482 39.1761 42.3042 38.5573 42.5794 38.1456L54.736 36.0142ZM22.7807 53.7452C22.4372 53.1962 21.8185 52.5767 20.8563 51.8208C19.4816 50.7213 19.9631 48.7968 20.7873 47.6291C21.8259 45.6364 27.2469 43.025 26.9724 39.7948C26.8351 38.6263 26.6979 37.1144 25.5977 36.0149C25.5287 36.4274 25.5977 36.8399 25.5977 36.8399C25.5977 36.8399 25.1169 36.2909 24.9107 35.4652C24.7044 35.1907 24.4982 35.0527 24.292 34.6402C24.1547 35.1209 24.1547 35.6024 24.1547 35.6024C24.1547 35.6024 23.8112 34.7092 23.7422 34.0222C23.536 34.3657 23.4677 34.9844 23.4677 34.9844C23.4677 34.9844 22.987 33.6097 23.1242 32.8552C22.918 32.2365 22.231 30.9308 22.4372 28.0448C23.6057 28.8698 26.2172 28.6636 27.2476 27.1516C27.5911 26.6708 27.7966 25.2969 27.1104 22.6157C26.6296 20.8975 25.4612 18.3551 24.9812 17.3928L24.9122 17.4618C25.1867 18.2185 25.6689 19.867 25.8744 20.692C26.4234 23.0972 26.6311 23.9222 26.3551 25.0216C26.1489 25.9839 25.5984 26.6019 24.1562 27.2896C22.7815 27.9766 20.8578 26.2509 20.788 26.1901C19.4133 25.0906 18.3828 23.2968 18.2456 22.4792C18.1083 21.517 18.7946 20.9672 19.1388 20.2113C18.6581 20.3485 18.1002 20.6237 18.1002 20.6237C18.1002 20.6237 18.7189 19.9368 19.5431 19.387C19.8565 19.2042 20.1551 18.9974 20.4364 18.7683H19.5521C19.5521 18.7683 20.377 18.2875 21.2703 18.0116H20.0343L23.3327 16.5686C24.3713 16.1561 25.3254 16.2941 25.8751 17.0493C26.6319 18.088 27.3871 18.6296 28.9673 19.042C29.9295 18.6296 30.273 18.3551 31.5098 18.0034C32.6092 16.7667 33.5025 16.6287 33.5025 16.6287C33.5025 16.6287 32.8837 17.1777 32.8155 17.7972C33.4342 17.3164 34.1212 16.9039 34.1212 16.9039C34.1212 16.9039 33.8467 17.2474 33.6405 17.7289L33.7095 17.7979C34.4662 17.3854 35.2897 17.0412 35.2897 17.0412C35.2897 17.0412 35.0152 17.3157 34.7407 17.7282C35.2897 17.7282 36.3899 17.7282 36.8031 17.7972C39.3456 17.8662 39.8953 15.1167 40.8575 14.705C42.0942 14.2925 42.644 14.018 44.7057 16.0797C46.4921 17.8662 47.8661 20.9591 47.1799 21.6461C46.6309 22.1951 45.4617 21.4398 44.1559 19.8596C43.469 19.0346 42.9875 18.0049 42.713 16.7674C42.5757 15.7288 41.8197 15.1182 41.8197 15.1182C41.8197 15.1182 42.3005 16.1568 42.3005 17.0427C42.3005 17.5234 42.3695 19.3106 43.1255 20.3411C43.0565 20.4783 42.9882 21.0978 42.9192 21.1661C42.026 20.0666 40.0259 19.3113 39.7588 19.0368C40.8583 19.9301 43.3325 21.9302 44.2947 23.8472C45.1879 25.7019 44.6382 27.3519 45.1197 27.7644C45.2569 27.9016 47.0441 30.1013 47.3876 31.2691C48.0063 33.2618 47.4566 35.3235 46.6309 36.5602L44.4319 36.9037C44.1447 36.8538 43.8666 36.761 43.6069 36.6284C43.7442 36.3539 44.0877 35.6662 44.0877 35.529L43.9504 35.3227C43.2635 36.2849 42.0957 37.2472 41.1328 37.7969C39.896 38.4839 38.4523 38.4156 37.4975 38.0714C34.8171 37.2464 32.2746 35.46 31.7257 34.9792C31.7257 34.9792 31.7257 35.3227 31.7946 35.46C32.9075 36.6311 34.1528 37.6689 35.5056 38.5521L32.3451 38.8956L33.8571 50.5781C33.1701 50.6471 33.1004 50.7154 32.3451 50.8526C31.7264 48.5847 30.4904 47.1417 29.115 46.2485C27.9465 45.4917 26.2973 45.2862 24.7171 45.6297L24.6481 45.767C25.7475 45.6297 27.0533 45.836 28.359 46.6602C29.6647 47.4844 30.6959 49.6151 31.1077 50.8519C31.5884 52.5011 31.9326 54.22 30.6269 56.0747C29.6647 57.3805 26.916 58.1372 24.7171 56.5555C25.3358 57.5177 26.0918 58.2737 27.1912 58.4102C28.7715 58.6164 30.2834 58.3412 31.3829 57.3107C32.2761 56.4175 32.7576 54.493 32.6196 52.4313L34.0626 52.2251L34.5433 55.8603L57.9669 53.0649L55.9044 34.3731L54.736 34.5793L52.3998 11L13.3662 15.5359L18 54.5L22.7807 53.7452Z" fill="#5C2D90"/>
</g>
<path d="M41.352 33.3C42.3906 34.0567 43.2764 34.5367 44.1696 34.4685C44.7186 34.3995 45.2691 33.5063 45.6126 32.682C45.8871 32.133 45.8871 31.5136 45.4753 31.3073C45.2691 31.2383 44.4367 31.2383 43.8261 31.3073C42.6577 31.4446 41.4892 31.8563 41.2147 32.064C40.8022 32.3385 41.0085 33.0263 41.352 33.3008M41.6264 25.2587V25.3277L41.6954 25.465C41.9699 26.014 42.2444 26.5644 42.7949 26.8397C42.9322 26.8397 43.0694 26.7707 43.2074 26.7707C43.6881 26.7707 43.9641 26.8397 44.1696 26.9079V26.4954C44.1006 25.8085 44.3069 24.571 42.9329 23.884C42.3839 23.6095 41.6962 23.7468 41.4209 24.0212H41.5582C41.9017 24.1585 41.6954 24.2957 41.6272 24.4337C41.5582 24.7082 41.4892 24.7772 41.6264 25.2587Z" fill="#5C2D90"/>
<path d="M35.4422 25.398C35.7857 25.1235 33.862 24.711 32.35 25.6725C31.2506 26.4292 31.2506 28.0094 32.281 28.9026C32.3844 28.954 32.4774 29.0239 32.5555 29.1089C32.83 28.9716 33.2425 28.8344 33.5942 28.6964C34.2812 28.4901 34.8309 28.3529 35.3124 28.2839C35.5186 28.0094 35.7931 27.5969 35.7249 26.8409C35.6559 25.8023 34.8316 26.016 35.4504 25.398M46.6514 42.0904L43.3529 47.5803L39.5048 46.4119L36.1366 51.5658L36.2739 53.215L54.6912 49.8468L53.5917 38.3698L50.5678 44.6922L46.6514 42.0904Z" fill="#5C2D90"/>
</g>
<defs>
<clipPath id="clip0_2016_5631">
<rect width="73" height="73" fill="white"/>
</clipPath>
</defs>
</svg>
