<svg width="73" height="73" viewBox="0 0 73 73" fill="none" xmlns="http://www.w3.org/2000/svg">
<g clip-path="url(#clip0_2016_5648)">
<rect width="73" height="73" rx="10" fill="#111C3F"/>
<path d="M58.9888 37.9955C58.9939 36.1281 58.4214 34.3048 57.3496 32.7755C56.278 31.2462 54.7595 30.0858 53.0025 29.4533C53.1623 28.6387 53.2428 27.8106 53.243 26.9805C53.2416 24.2345 52.3701 21.5596 50.7532 19.3401C49.1364 17.1205 46.8577 15.4706 44.2442 14.6274C41.631 13.7842 38.8176 13.7911 36.2084 14.647C33.5992 15.503 31.3286 17.164 29.7226 19.3914C28.5374 18.476 27.0865 17.971 25.589 17.9529C24.0915 17.9347 22.6288 18.4043 21.4218 19.2908C20.2147 20.1772 19.3289 21.4324 18.898 22.8666C18.4672 24.3009 18.5148 25.8364 19.0336 27.2413C17.2744 27.8818 15.7534 29.0453 14.6749 30.5756C13.5963 32.1058 13.0119 33.9294 13.0001 35.8015C12.9927 37.6776 13.5681 39.51 14.6469 41.0449C15.7257 42.58 17.2546 43.742 19.0223 44.3707C18.6576 46.2475 18.7126 48.1817 19.1833 50.0349C19.6541 51.8879 20.5289 53.6138 21.7452 55.089C22.9615 56.5643 24.489 57.7521 26.2184 58.5674C27.9478 59.3828 29.8361 59.8054 31.7481 59.8052C33.8061 59.807 35.8348 59.3167 37.6649 58.375C39.495 57.4333 41.0735 56.0677 42.2685 54.3921C43.4498 55.3178 44.9013 55.8323 46.4018 55.8571C47.9025 55.882 49.3702 55.4158 50.5816 54.5294C51.7928 53.6433 52.6812 52.3856 53.1119 50.9478C53.5424 49.51 53.4914 47.9708 52.9665 46.5647C54.7271 45.9238 56.2494 44.7592 57.3282 43.2269C58.4068 41.695 58.9903 39.8692 59 37.9955" fill="white"/>
<path d="M31.0805 33.7273L41.1445 38.3154L51.2963 29.4203C51.8104 26.8556 51.4226 24.192 50.1991 21.8802C48.9755 19.5683 46.9908 17.7501 44.581 16.733C42.1712 15.7159 39.484 15.5624 36.9739 16.2985C34.4639 17.0345 32.2851 18.6149 30.8062 20.7724L29.1157 29.5394L31.0805 33.7273Z" fill="#FEC514"/>
<path d="M20.6664 44.3788C20.1422 46.9556 20.5266 49.6343 21.7542 51.9596C22.9818 54.2851 24.9769 56.1133 27.4002 57.1341C29.8235 58.1547 32.5255 58.3046 35.047 57.5583C37.5683 56.812 39.7533 55.2155 41.2307 53.0402L42.9054 44.3091L40.6574 40.038L30.5664 35.4297L20.6664 44.3788Z" fill="#00BFB3"/>
<path d="M20.5958 26.9667L27.497 28.5942L29.0076 20.7534C28.0693 20.043 26.9263 19.6555 25.7495 19.6485C24.5727 19.6416 23.4252 20.0157 22.4786 20.7149C21.532 21.4141 20.837 22.4009 20.4977 23.5277C20.1583 24.6546 20.1927 25.861 20.5958 26.9667Z" fill="#F04E98"/>
<path d="M20.0029 28.6094C18.5121 29.1019 17.2102 30.0437 16.2758 31.3055C15.3415 32.5673 14.8205 34.0874 14.7842 35.657C14.7481 37.2267 15.1985 38.7692 16.0736 40.0728C16.9488 41.3762 18.2059 42.3772 19.6725 42.9378L29.3387 34.191L27.5651 30.4077L20.0029 28.6094Z" fill="#1BA9F5"/>
<path d="M42.9966 53.0444C43.7993 53.6628 44.7597 54.0433 45.7681 54.1432C46.7767 54.243 47.7928 54.0577 48.7014 53.6084C49.6098 53.1592 50.3739 52.4642 50.9069 51.6023C51.4399 50.7404 51.7204 49.7462 51.7164 48.7328C51.7191 48.0881 51.608 47.4481 51.3882 46.8423L44.4982 45.2305L42.9966 53.0444Z" fill="#93C90E"/>
<path d="M44.3994 43.4264L51.9863 45.2C53.5005 44.6895 54.8176 43.7193 55.7541 42.4247C56.6906 41.1299 57.1997 39.5752 57.2105 37.9774C57.2092 36.4369 56.7391 34.9332 55.8631 33.6661C54.9871 32.3989 53.7462 31.4282 52.3055 30.8828L42.3853 39.5757L44.3994 43.4264Z" fill="#0077CC"/>
</g>
<defs>
<clipPath id="clip0_2016_5648">
<rect width="73" height="73" fill="white"/>
</clipPath>
</defs>
</svg>
