<?xml version="1.0" encoding="utf-8"?>
<!-- Generator: Adobe Illustrator 26.5.0, SVG Export Plug-In . SVG Version: 6.00 Build 0)  -->
<svg version="1.1" id="Layer_1" xmlns="http://www.w3.org/2000/svg" xmlns:xlink="http://www.w3.org/1999/xlink" x="0px" y="0px"
	 viewBox="0 0 287 92" style="enable-background:new 0 0 287 92;" xml:space="preserve">
<style type="text/css">
	.st0{fill:#697586;}
	.st1{fill:#EB5454;}
	.st2{fill-rule:evenodd;clip-rule:evenodd;fill:#EB5454;}
	.st3{fill-rule:evenodd;clip-rule:evenodd;fill:#697586;}
</style>
<path class="st0" d="M0.5,45.8c0,12.9,8.3,22.9,21.3,22.9c7.2,0,13.3-3.2,16.3-8.6v9.2c0,8.7-5.6,14.4-14.3,14.4
	c-7.7,0-12.8-3.9-13.9-10.7H1c1.7,11.7,10.3,18.7,22.8,18.7c14.1,0,23-9.2,23-23.7V24h-7.9l-0.7,7.8c-2.9-5.7-8.7-9.1-16.1-9.1
	C8.8,22.7,0.5,32.9,0.5,45.8z M9.3,45.6c0-8.5,5.3-15.2,14.1-15.2c9,0,14.3,6.4,14.3,15.2c0,9-5.5,15.4-14.4,15.4
	C14.7,61.1,9.3,54.3,9.3,45.6z"/>
<path class="st0" d="M81.2,23.6c-1.8-0.4-3.1-0.6-4.7-0.6c-6.3,0-10.9,3.2-12.8,8l-0.6-7h-8.3V70h8.8V45.6c0-8.8,5.2-13.9,13.5-13.9
	h3.9V23.6z"/>
<path class="st0" d="M98.3,71.1c7.4,0,13.7-3.3,16.1-8.6l0.9,7.4h7.5V41.1c0-12.4-7.7-18.4-19.1-18.4C91.9,22.7,84,29,84,38.6h7.7
	c0-5.5,4.2-8.8,11.7-8.8c6.2,0,10.8,2.7,10.8,10.4v1.3l-14.5,1.1c-10.8,0.8-17.1,6.1-17.1,14.6C82.6,65.6,88.4,71.1,98.3,71.1z
	 M100.8,64.3c-5.7,0-9.3-2.4-9.3-7.3c0-4.5,3.2-7.5,11-8.3l11.8-0.9v2.4C114.3,58.8,109.2,64.3,100.8,64.3z"/>
<path class="st0" d="M125,90.6c2.4,0.6,4.8,0.9,7.7,0.9c7.1,0,11.7-3.3,14.8-11.2L169.2,24h-9.1l-13.6,37.1L133.1,24h-9.3l18.5,48.4
	l-1.6,4.4c-2.2,5.8-5.5,6.5-9.8,6.5H125V90.6z"/>
<path class="st1" d="M183.4,70V0.8h-8.8V70H183.4z"/>
<path class="st1" d="M239.3,45.8c0,12.9,8.3,22.9,21.3,22.9c7.2,0,13.3-3.2,16.3-8.6v9.2c0,8.7-5.6,14.4-14.3,14.4
	c-7.7,0-12.8-3.9-13.9-10.7h-8.8c1.7,11.7,10.3,18.7,22.8,18.7c14.1,0,23-9.2,23-23.7V24h-7.9l-0.7,7.8c-2.9-5.7-8.7-9.1-16.1-9.1
	C247.7,22.7,239.3,32.9,239.3,45.8z M248.2,45.6c0-8.5,5.3-15.2,14.1-15.2c9,0,14.3,6.4,14.3,15.2c0,9-5.5,15.4-14.4,15.4
	C253.5,61.1,248.2,54.3,248.2,45.6z"/>
<path class="st2" d="M212.5,62c8.6,0,15.5-6.9,15.5-15.5S221.1,31,212.5,31S197,37.9,197,46.5S203.9,62,212.5,62z M212.5,70
	c13,0,23.5-10.5,23.5-23.5S225.5,23,212.5,23S189,33.5,189,46.5S199.5,70,212.5,70z"/>
<path class="st3" d="M213.8,36.1c0.1-0.4,0.7-0.5,0.9-0.1l4.3,8.8c0.1,0.2,0.3,0.3,0.4,0.3h3.5c0.8,0,1.5,0.7,1.5,1.5
	S223.8,48,223,48h-5.4c-0.2,0-0.4-0.1-0.4-0.3l-2.2-4.5l-3.7,13.7c-0.1,0.4-0.7,0.5-0.9,0.1l-4.3-8.8c-0.1-0.2-0.3-0.3-0.4-0.3H202
	c-0.8,0-1.5-0.7-1.5-1.5s0.7-1.5,1.5-1.5h5.4c0.2,0,0.4,0.1,0.4,0.3l2.2,4.5L213.8,36.1z"/>
</svg>
