<svg width="73" height="73" viewBox="0 0 73 73" fill="none" xmlns="http://www.w3.org/2000/svg">
<g clip-path="url(#clip0_2018_5658)">
<rect width="73" height="73" rx="10" fill="#0A0A0A"/>
<g clip-path="url(#clip1_2018_5658)">
<path d="M8.09766 36.9057C8.09766 39.4141 9.71717 41.3585 12.2538 41.3585C13.6586 41.3585 14.8489 40.7363 15.4342 39.6863V41.4752C15.4342 43.1668 14.3416 44.2752 12.644 44.2752C11.1416 44.2752 10.1464 43.5168 9.9318 42.1946H8.19522C8.52692 44.4696 10.205 45.8307 12.644 45.8307C15.3952 45.8307 17.1318 44.0418 17.1318 41.2224V32.6668H15.5903L15.4538 34.1835C14.8879 33.0752 13.7562 32.4141 12.3123 32.4141C9.71717 32.4141 8.09766 34.3974 8.09766 36.9057ZM9.81473 36.8668C9.81473 35.2141 10.8489 33.9113 12.5659 33.9113C14.322 33.9113 15.3562 35.1557 15.3562 36.8668C15.3562 38.6168 14.283 39.8613 12.5464 39.8613C10.8684 39.8807 9.81473 38.5585 9.81473 36.8668Z" fill="#697586"/>
<path d="M23.8436 32.5893C23.4924 32.5115 23.2387 32.4727 22.9265 32.4727C21.6973 32.4727 20.7997 33.0949 20.429 34.0282L20.3119 32.6671H18.6924V41.6115H20.4095V36.8671C20.4095 35.156 21.4241 34.1643 23.0436 34.1643H23.8046V32.5893H23.8436Z" fill="#697586"/>
<path d="M27.1806 41.8252C28.6245 41.8252 29.8538 41.1835 30.3221 40.153L30.4977 41.5918H31.9611V35.9918C31.9611 33.5807 30.4587 32.4141 28.2343 32.4141C25.9318 32.4141 24.3904 33.6391 24.3904 35.5057H25.8928C25.8928 34.4363 26.7123 33.7946 28.1757 33.7946C29.3855 33.7946 30.283 34.3196 30.283 35.8168V36.0696L27.4538 36.2835C25.3465 36.4391 24.1172 37.4696 24.1172 39.1224C24.1172 40.7557 25.2489 41.8252 27.1806 41.8252ZM27.6684 40.503C26.5562 40.503 25.8538 40.0363 25.8538 39.0835C25.8538 38.2085 26.4782 37.6252 28.0001 37.4696L30.3026 37.2946V37.7613C30.3026 39.4335 29.3074 40.503 27.6684 40.503Z" fill="#697586"/>
<path d="M32.3899 45.618C32.8582 45.7346 33.3265 45.793 33.8923 45.793C35.2777 45.793 36.1753 45.1513 36.7802 43.6152L41.0143 32.668H39.2387L36.585 39.8819L33.9704 32.668H32.1558L35.7655 42.0791L35.4533 42.9346C35.0241 44.0624 34.3802 44.1985 33.5411 44.1985H32.3899V45.618Z" fill="#697586"/>
<path d="M43.7854 41.6118V28.1562H42.0684V41.6118H43.7854Z" fill="#EB5454"/>
<path d="M54.6929 36.9057C54.6929 39.4141 56.3124 41.3585 58.849 41.3585C60.2538 41.3585 61.4441 40.7363 62.0295 39.6863V41.4752C62.0295 43.1668 60.9368 44.2752 59.2392 44.2752C57.7368 44.2752 56.7417 43.5168 56.527 42.1946H54.8099C55.1416 44.4696 56.8197 45.8307 59.2587 45.8307C62.0099 45.8307 63.7465 44.0418 63.7465 41.2224V32.6668H62.2051L62.0685 34.1835C61.5026 33.0752 60.3709 32.4141 58.927 32.4141C56.3319 32.4141 54.6929 34.3974 54.6929 36.9057ZM56.4295 36.8668C56.4295 35.2141 57.4636 33.9113 59.1807 33.9113C60.9368 33.9113 61.9709 35.1557 61.9709 36.8668C61.9709 38.6168 60.8978 39.8613 59.1612 39.8613C57.4636 39.8807 56.4295 38.5585 56.4295 36.8668Z" fill="#EB5454"/>
<path fill-rule="evenodd" clip-rule="evenodd" d="M49.4633 40.056C51.1413 40.056 52.4877 38.7143 52.4877 37.0421C52.4877 35.3699 51.1413 34.0282 49.4633 34.0282C47.7852 34.0282 46.4389 35.3699 46.4389 37.0421C46.4389 38.7143 47.7852 40.056 49.4633 40.056ZM49.4633 41.6115C51.9999 41.6115 54.0487 39.5699 54.0487 37.0421C54.0487 34.5143 51.9999 32.4727 49.4633 32.4727C46.9267 32.4727 44.8779 34.5143 44.8779 37.0421C44.8779 39.5699 46.9267 41.6115 49.4633 41.6115Z" fill="#EB5454"/>
<path fill-rule="evenodd" clip-rule="evenodd" d="M49.7172 35.0221C49.7367 34.9443 49.8538 34.9249 49.8928 35.0026L50.7318 36.7137C50.7513 36.7526 50.7904 36.7721 50.8099 36.7721H51.4928C51.6489 36.7721 51.7855 36.9082 51.7855 37.0637C51.7855 37.2193 51.6684 37.336 51.5123 37.336H50.4587C50.4196 37.336 50.3806 37.3165 50.3806 37.2776L49.9513 36.4026L49.2294 39.0665C49.2099 39.1443 49.0928 39.1637 49.0538 39.086L48.2148 37.3749C48.1952 37.336 48.1562 37.3165 48.1367 37.3165H47.4148C47.2587 37.3165 47.1221 37.1804 47.1221 37.0249C47.1221 36.8693 47.2587 36.7332 47.4148 36.7332H48.4684C48.5074 36.7332 48.5465 36.7526 48.5465 36.7915L48.9757 37.6665L49.7172 35.0221Z" fill="#697586"/>
</g>
</g>
<defs>
<clipPath id="clip0_2018_5658">
<rect width="73" height="73" fill="white"/>
</clipPath>
<clipPath id="clip1_2018_5658">
<rect width="56" height="17.8889" fill="white" transform="translate(8 28)"/>
</clipPath>
</defs>
</svg>
