<svg width="73" height="73" viewBox="0 0 73 73" fill="none" xmlns="http://www.w3.org/2000/svg">
<g clip-path="url(#clip0_2016_5015)">
<rect width="73" height="73" rx="10" fill="#5EE4E4"/>
<path d="M24.1596 40.9936L24.2397 41.0158L43.5027 46.9135C43.6628 46.958 43.814 47.038 43.9474 47.1403C44.0809 47.2471 44.1876 47.3761 44.2677 47.5228C44.3477 47.6696 44.4011 47.8297 44.4189 47.9987C44.4322 48.1322 44.4278 48.2656 44.4011 48.399L44.3789 48.4969L41.1498 58.8289C41.0342 59.1447 40.8163 59.4071 40.5227 59.5761C40.2603 59.7273 39.9534 59.7896 39.651 59.754L39.562 59.7407L20.299 53.7896C19.9788 53.6918 19.7074 53.4694 19.5473 53.1759C19.4006 52.9045 19.3605 52.5932 19.4228 52.2997L19.445 52.2107L22.6518 41.9009C22.7452 41.5762 22.9676 41.3005 23.2656 41.1359C23.5414 40.9714 23.8572 40.9269 24.1596 40.9936ZM56.6812 45.7082L56.6367 45.7526L43.774 57.6636C43.3025 58.1351 43.0579 57.9794 43.2091 57.3656L43.2269 57.3033L45.9089 48.6748C46.029 48.319 46.238 47.9987 46.5138 47.7408C46.7584 47.5139 47.0519 47.3449 47.3722 47.2471L47.4923 47.2115L56.3343 45.2011C56.9614 44.9743 57.1082 45.2278 56.7257 45.6637L56.6812 45.7082ZM14.5926 32.2761L14.6326 32.3206L20.7927 38.9654C21.0329 39.259 21.2063 39.6015 21.2864 39.9706C21.362 40.2998 21.3664 40.6378 21.3042 40.9669L21.2775 41.0915L18.5955 49.72C18.431 50.3649 18.133 50.3872 17.9995 49.7867L17.9862 49.72L14.0811 32.623C13.8943 31.9825 14.1834 31.8269 14.5926 32.2761ZM53.8658 21.2769C54.1282 21.4326 54.3239 21.6817 54.4173 21.9708L54.4396 22.0508L58.9495 41.6207C58.9985 41.7808 59.0118 41.9499 58.9896 42.1144C58.9673 42.279 58.914 42.4391 58.8295 42.5814C58.745 42.7238 58.6293 42.8483 58.4914 42.9461C58.3802 43.0218 58.2602 43.0796 58.1356 43.1196L58.0378 43.1418L47.43 45.5747C47.1053 45.6548 46.7628 45.6059 46.4782 45.4324C46.2158 45.2767 46.0201 45.0277 45.9267 44.7386L45.9044 44.6585L41.4034 25.0886C41.3233 24.7684 41.3722 24.4259 41.5412 24.1412C41.6969 23.8788 41.9415 23.6831 42.2262 23.5897L42.3062 23.5675L52.9096 21.1346C53.2387 21.0545 53.5812 21.1079 53.8658 21.2769ZM40.0335 25.8536L40.0512 25.9203L44.3166 44.3916C44.4901 45.0633 44.0987 45.4235 43.4626 45.2812L43.4004 45.2634L25.2359 39.6726C24.591 39.4947 24.4531 38.9788 24.8846 38.5073L24.9335 38.4584L38.8326 25.5467C39.304 25.0842 39.8333 25.2398 40.0335 25.8536ZM30.0439 14.0005C30.2085 14.0049 30.373 14.0405 30.5243 14.1072C30.6444 14.1606 30.7555 14.2362 30.8534 14.3207L30.9246 14.3919L38.29 22.3666C38.5123 22.6068 38.6324 22.927 38.6191 23.2517C38.6102 23.5497 38.4901 23.8388 38.2855 24.0567L38.2277 24.1146L23.4747 37.7957C23.23 38.0225 22.9098 38.1382 22.5762 38.1293C22.2738 38.1204 21.9847 38.0003 21.7623 37.7913L21.7045 37.7334L14.3257 29.7542C14.1033 29.5141 13.9877 29.1938 14.001 28.8692C14.0099 28.5712 14.13 28.2865 14.3302 28.0641L14.388 28.0063L29.141 14.3518C29.2611 14.2362 29.399 14.1473 29.5547 14.085C29.7103 14.0227 29.8749 13.996 30.0439 14.0005ZM33.7755 14.3341L33.8378 14.3518L50.6635 19.5023C51.3128 19.6757 51.3351 19.9648 50.748 20.1517L50.6857 20.1694L41.8437 22.1754C41.4745 22.251 41.092 22.2376 40.7273 22.1353C40.4026 22.0464 40.1046 21.8863 39.8467 21.6683L39.7533 21.5838L33.5932 14.9567C33.0595 14.4275 33.1618 14.1828 33.7755 14.3341Z" fill="#020A47"/>
</g>
<defs>
<clipPath id="clip0_2016_5015">
<rect width="73" height="73" fill="white"/>
</clipPath>
</defs>
</svg>
