<svg width="73" height="73" viewBox="0 0 73 73" fill="none" xmlns="http://www.w3.org/2000/svg">
<g clip-path="url(#clip0_2016_5587)">
<rect width="73" height="73" rx="10" fill="black"/>
<path d="M33.965 15.7882C33.6245 15.4402 33.1518 15.2258 32.6252 15.2258C32.0997 15.2258 31.6309 15.4402 31.2947 15.7882H31.2859C30.9464 16.1336 30.7358 16.6157 30.7358 17.1484C30.7358 17.6843 30.9464 18.1634 31.2859 18.5054L31.2947 18.5149C31.6309 18.8599 32.0997 19.0712 32.6252 19.0712C33.1518 19.0712 33.6245 18.8599 33.965 18.5149L33.9688 18.5054C34.3098 18.1634 34.5177 17.6843 34.5177 17.1484C34.5177 16.6157 34.3098 16.1336 33.9688 15.7882H33.965V15.7882ZM32.6252 42.1075C33.1518 42.1075 33.6245 41.8892 33.965 41.5475L33.9688 41.5377C34.3098 41.1966 34.5177 40.7145 34.5177 40.1846C34.5177 39.6489 34.3098 39.1689 33.9688 38.8218H33.965C33.6245 38.4705 33.1518 38.2581 32.6252 38.2581C32.0997 38.2581 31.6309 38.4705 31.2947 38.8218H31.2859C30.9464 39.1689 30.7358 39.6489 30.7358 40.1846C30.7358 40.7145 30.9464 41.1966 31.2859 41.5377L31.2947 41.5475C31.6309 41.8892 32.0997 42.1075 32.6252 42.1075ZM42.9193 36.282C43.3873 36.1568 43.811 35.8512 44.0696 35.3889L44.1045 35.3213C44.3345 34.8837 44.3767 34.3775 44.2537 33.9285C44.1297 33.4489 43.826 33.0234 43.3726 32.7589L43.3461 32.7406C42.9043 32.4936 42.4015 32.4398 41.9395 32.568C41.4696 32.6874 41.0472 33.0058 40.79 33.4641C40.5295 33.9196 40.4751 34.4431 40.5997 34.9251C40.7285 35.3993 41.0298 35.8275 41.4803 36.0951H41.4831C41.9345 36.3595 42.4451 36.4066 42.9193 36.282H42.9193ZM34.5631 26.6963C34.0671 26.193 33.3827 25.8776 32.6252 25.8776C31.8686 25.8776 31.1862 26.193 30.6912 26.6963C30.1975 27.1991 29.8934 27.8925 29.8934 28.6634C29.8934 29.4343 30.1975 30.1307 30.6912 30.6394C31.1862 31.1397 31.8686 31.4522 32.6252 31.4522C33.3827 31.4522 34.0671 31.1397 34.5631 30.6394C35.0577 30.1307 35.3619 29.4343 35.3619 28.6634C35.3619 27.8925 35.0577 27.1991 34.5631 26.6963ZM33.4733 23.4196C34.5728 23.6039 35.5604 24.1397 36.3151 24.9135H36.3209C36.441 25.0352 36.5578 25.1693 36.6662 25.3033L38.5528 24.193C38.299 23.4131 38.2874 22.5978 38.4912 21.8329C38.7601 20.8092 39.4125 19.8925 40.3904 19.3182L40.4224 19.2975C41.3897 18.7406 42.4892 18.6247 43.4816 18.8983C44.4867 19.1723 45.3934 19.8392 45.9577 20.8329V20.8358C46.5195 21.8241 46.6334 22.9582 46.3655 23.979C46.0981 25.0027 45.4432 25.9254 44.4663 26.4967L44.2086 26.6514H44.1825C43.2786 27.0892 42.2852 27.1577 41.3727 26.9132C40.6234 26.711 39.9361 26.2852 39.3979 25.6814L37.5143 26.7884C37.7308 27.3715 37.8504 27.9995 37.8504 28.6634C37.8504 29.3239 37.7308 29.9612 37.5143 30.5471L39.3979 31.6514C39.9361 31.0381 40.6234 30.6217 41.3727 30.4192C42.3782 30.1396 43.4922 30.2584 44.4663 30.8361L44.5288 30.8656V30.8685C45.4694 31.4492 46.1011 32.3448 46.3655 33.3567C46.6334 34.3716 46.5195 35.5062 45.9577 36.4964L45.9237 36.5654L45.9198 36.5595C45.3556 37.5142 44.4662 38.1609 43.4845 38.4344C42.4775 38.7045 41.363 38.5891 40.3904 38.0199V38.012C39.4125 37.4368 38.7601 36.5181 38.4911 35.4963C38.2873 34.7349 38.299 33.9196 38.5528 33.1397L36.6662 32.0323C36.5577 32.1663 36.4409 32.2945 36.3208 32.4162L36.315 32.4221C35.5604 33.193 34.5728 33.7289 33.4733 33.9072V36.1252C34.257 36.2919 34.9583 36.6907 35.508 37.2501L35.511 37.256C36.2478 38.0021 36.704 39.0417 36.704 40.1846C36.704 41.3238 36.2478 42.3575 35.511 43.1076L35.508 43.1192C34.766 43.869 33.7485 44.3333 32.6251 44.3333C31.5077 44.3333 30.4872 43.869 29.7471 43.1192H29.7442V43.1076C29.0065 42.3575 28.5493 41.3238 28.5493 40.1846C28.5493 39.0417 29.0065 38.0021 29.7442 37.256V37.2501H29.7471C30.2963 36.6907 30.9991 36.2919 31.78 36.1252V33.9072C30.6805 33.7289 29.6948 33.193 28.9411 32.4221L28.9334 32.4162C27.9923 31.4551 27.4028 30.1307 27.4028 28.6634C27.4028 27.1991 27.9923 25.8746 28.9334 24.9135H28.9411C29.6948 24.1397 30.6805 23.6039 31.78 23.4196V21.2109C30.9991 21.0385 30.2963 20.6397 29.7471 20.0832H29.7442V20.0772C29.0066 19.3241 28.5493 18.2915 28.5493 17.1484C28.5493 16.0114 29.0066 14.9698 29.7442 14.2197L29.7471 14.2167C30.4873 13.464 31.5078 13 32.6252 13C33.7485 13 34.766 13.464 35.5081 14.2167V14.2197H35.511C36.2478 14.9698 36.704 16.0114 36.704 17.1484C36.704 18.2915 36.2478 19.3241 35.511 20.0772L35.5081 20.0832C34.9584 20.6397 34.257 21.0385 33.4733 21.2109V23.4196V23.4196ZM44.0696 21.9463L44.0537 21.9221C43.7936 21.4762 43.3785 21.1784 42.9193 21.0501C42.4451 20.9222 41.9345 20.9758 41.4803 21.241H41.4831C41.0298 21.5027 40.7266 21.9311 40.5996 22.4105C40.4751 22.8867 40.5295 23.4131 40.79 23.8716L40.7987 23.8834C41.0599 24.3358 41.4754 24.6394 41.9395 24.7617C42.4053 24.8957 42.9251 24.8391 43.3726 24.5739L43.3969 24.562C43.8376 24.2944 44.1312 23.8716 44.2537 23.4072C44.3787 22.9281 44.3287 22.4046 44.0696 21.9463" fill="white"/>
<path d="M15 48H17.1928V54.4858L20.355 51.0967H22.9842L19.1666 55.023L23 60H20.4893L17.1928 55.5544V60H15V48" fill="white"/>
<path d="M25.2015 55.0407C25.2015 56.209 26.0247 57.9075 28.008 57.9075C29.2351 57.9075 30.0427 57.2547 30.4616 56.3993C30.6809 55.9841 30.7819 55.5402 30.8158 55.0783C30.831 54.6315 30.7483 54.1666 30.5623 53.7539C30.1763 52.8642 29.3195 52.0927 27.9917 52.0927C26.2111 52.0927 25.2015 53.5666 25.2015 55.0251V55.0407V55.0407ZM33 59.7094H30.7971V58.3544C30.2108 59.4503 28.9833 60 27.6887 60C24.7304 60 23 57.6483 23 54.991C23 52.0239 25.1005 50 27.6887 50C29.3693 50 30.3942 50.9092 30.7971 51.6648V50.2908H33V59.7094Z" fill="white"/>
<path d="M35.187 52.8701H34V51.2623H35.187V50.7699C35.187 48.1738 37.3556 48.0173 39 48V49.605C38.4218 49.605 37.4787 49.605 37.4787 50.8333V51.2623H39V52.8701H37.4787V60H35.187V52.8701" fill="white"/>
<path d="M40 48H42.1923V54.4858L45.3554 51.0967H47.9848L44.1669 55.023L48 60H45.489L42.1923 55.5544V60H40V48Z" fill="white"/>
<path d="M50.2006 55.0407C50.2006 56.209 51.0236 57.9075 53.0076 57.9075C54.2333 57.9075 55.0411 57.2547 55.4607 56.3993C55.6808 55.9841 55.7821 55.5402 55.8153 55.0783C55.8306 54.6315 55.7479 54.1666 55.5614 53.7539C55.176 52.8642 54.3191 52.0927 52.9914 52.0927C51.2101 52.0927 50.2006 53.5666 50.2006 55.0251V55.0407V55.0407ZM58 59.7094H55.7973V58.3544C55.2092 59.4503 53.9825 60 52.6883 60C49.7294 60 48 57.6483 48 54.991C48 52.0239 50.1003 50 52.6883 50C54.3682 50 55.3943 50.9092 55.7973 51.6648V50.2908H58V59.7094Z" fill="white"/>
</g>
<defs>
<clipPath id="clip0_2016_5587">
<rect width="73" height="73" fill="white"/>
</clipPath>
</defs>
</svg>
