<svg width="73" height="73" viewBox="0 0 73 73" fill="none" xmlns="http://www.w3.org/2000/svg">
<g clip-path="url(#clip0_2016_5617)">
<rect width="73" height="73" fill="#FDFF37"/>
<path fill-rule="evenodd" clip-rule="evenodd" d="M17.0575 56.6012C16.6655 56.8342 15.6329 56.9354 15.1246 56.9354C13.7006 56.9354 12.8433 56.1944 12.8433 54.93V48.5069L12 48.4196V46.5742H15.4656V54.2324C15.4656 54.6688 15.7208 54.8577 16.2291 54.8577H16.7667L17.0575 56.6012Z" fill="#002E42"/>
<path fill-rule="evenodd" clip-rule="evenodd" d="M32.9108 51.1695C33.1868 51.4455 33.26 51.7947 33.26 52.143C33.26 53.669 32.1409 54.4686 29.5539 54.4686C29.1908 54.4686 28.5791 54.425 28.5657 54.425C28.4173 54.4245 28.3857 54.5103 28.3758 54.5438C28.2744 54.8897 28.5522 54.9414 29.2652 55.0656L31.3122 55.369C33.0134 55.6302 33.4339 56.4297 33.4339 57.4334C33.4339 58.7412 32.7221 59.7 29.4814 59.7C28.3483 59.7 27.0832 59.5692 26.0232 59.3946V57.6221C27.3015 57.7235 28.3166 57.8102 29.5083 57.8102C30.4817 57.8102 30.8491 57.7807 30.8491 57.4179C30.8639 57.1275 30.52 57.0414 29.7593 56.9158L27.8829 56.6198C26.6624 56.4008 26.2992 55.7033 26.3281 55.0353C26.3422 54.6285 26.5455 54.2358 26.8945 53.9886C26.1246 53.5818 25.7754 52.9137 25.7754 51.9684C25.7754 50.0792 27.1565 49.5273 29.5828 49.5273H34.3168V51.1695H32.9108ZM30.4261 51.1695H29.5687C28.7544 51.1695 28.4932 51.3583 28.4932 52.0269C28.4932 52.695 28.784 52.9714 29.5687 52.9714C30.3678 52.9714 30.6146 52.6808 30.6146 52.0126C30.6146 51.6051 30.5423 51.3441 30.4261 51.1695Z" fill="#002E42"/>
<path fill-rule="evenodd" clip-rule="evenodd" d="M49.5976 49.5703H48.3519H47.4771V50.1483V50.1754V51.2541V51.832H48.3519V54.9474V56.793H50.9822V54.9474V49.5703H49.5976Z" fill="#002E42"/>
<path fill-rule="evenodd" clip-rule="evenodd" d="M49.3523 46C50.1694 46 50.7444 46.5598 50.7444 47.3469C50.7444 48.1186 50.1694 48.6784 49.3523 48.6784C48.5503 48.6784 47.9751 48.1186 47.9751 47.3469C47.9751 46.5598 48.5503 46 49.3523 46Z" fill="#002E42"/>
<path fill-rule="evenodd" clip-rule="evenodd" d="M45.1076 54.1211C45.9248 54.1211 46.4997 54.6809 46.4997 55.468C46.4997 56.2397 45.9248 56.7995 45.1076 56.7995C44.3056 56.7995 43.7305 56.2397 43.7305 55.468C43.7305 54.6809 44.3056 54.1211 45.1076 54.1211Z" fill="#002E42"/>
<path fill-rule="evenodd" clip-rule="evenodd" d="M21.1493 54.7133C20.1955 54.7133 19.5119 54.0474 19.5119 53.1298C19.5119 52.1938 20.1955 51.5281 21.1493 51.5281C22.1209 51.5281 22.8048 52.1938 22.8048 53.1298C22.8048 54.0474 22.1209 54.7133 21.1493 54.7133ZM21.137 49.3203C18.861 49.3203 17.229 50.9088 17.229 53.1423C17.229 55.3323 18.861 56.9211 21.137 56.9211C23.4555 56.9211 25.0877 55.3323 25.0877 53.1423C25.0877 50.9088 23.4555 49.3203 21.137 49.3203Z" fill="#002E42"/>
<path fill-rule="evenodd" clip-rule="evenodd" d="M56.0614 54.7602C55.1076 54.7602 54.4238 54.0943 54.4238 53.1765C54.4238 52.2405 55.1076 51.575 56.0614 51.575C57.0331 51.575 57.7169 52.2405 57.7169 53.1765C57.7169 54.0943 57.0331 54.7602 56.0614 54.7602ZM56.0491 49.3672C53.7731 49.3672 52.1411 50.9557 52.1411 53.1892C52.1411 55.379 53.7731 56.968 56.0491 56.968C58.3676 56.968 59.9998 55.379 59.9998 53.1892C59.9998 50.9557 58.3676 49.3672 56.0491 49.3672Z" fill="#002E42"/>
<path fill-rule="evenodd" clip-rule="evenodd" d="M41.8789 56.7344H34.9321V54.9466L38.8416 51.2848H36.9381H36.8221H35.4054V49.5117H41.8063V51.2848L37.9257 54.9466L40.0042 54.9614V54.0751H41.8789V56.7344Z" fill="#002E42"/>
<path fill-rule="evenodd" clip-rule="evenodd" d="M29.6544 24.6578L35.8816 21.0627L42.6922 24.9948V32.8589L35.8797 36.7919L29.3887 32.994L24.1163 29.9501V35.7373L35.9222 42.5533L47.7279 35.7371V22.105L35.9222 15.289L24.6745 21.7827L29.6544 24.6578ZM30.7708 25.3024L35.9222 28.2765L41.0331 25.3259L35.8816 22.3517L30.7708 25.3024ZM41.5759 26.3016L36.4804 29.2434V35.156L41.5759 32.2142V26.3016ZM35.9222 43.8423L23 36.3818V28.0168L35.3641 35.1548V29.2434L23.6456 22.4778C23.3982 22.3351 23.2443 22.0686 23.2443 21.7829C23.2443 21.4971 23.3982 21.2306 23.6458 21.0878L35.9222 14L48.8442 21.4605V36.3816L35.9222 43.8423Z" fill="#002E42"/>
</g>
<defs>
<clipPath id="clip0_2016_5617">
<rect width="73" height="73" rx="10" fill="white"/>
</clipPath>
</defs>
</svg>
