<svg width="73" height="73" viewBox="0 0 73 73" fill="none" xmlns="http://www.w3.org/2000/svg">
<g clip-path="url(#clip0_2016_5608)">
<g clip-path="url(#clip1_2016_5608)">
<path d="M63.875 0H9.125C4.0854 0 0 4.0854 0 9.125V63.875C0 68.9146 4.0854 73 9.125 73H63.875C68.9146 73 73 68.9146 73 63.875V9.125C73 4.0854 68.9146 0 63.875 0Z" fill="#FF4F00"/>
<path d="M40.3414 37.4531H32.6572V54.7441H40.3414V37.4531Z" fill="white"/>
<path d="M53.1577 31.6901H55.7127V54.7426H48.0295V31.6901H50.6009V26.7161C49.8 26.495 49.0701 26.0701 48.4824 25.4828C47.8947 24.8956 47.4692 24.166 47.2475 23.3654H44.7125L36.5 31.5779L28.2875 23.3654H25.7608C25.5392 24.1652 25.1143 24.894 24.5274 25.4808C23.9406 26.0677 23.2117 26.4926 22.4119 26.7142V43.2159H24.9733V54.7444H17.2901V43.2159H19.8506V26.7142C19.041 26.4903 18.3043 26.0581 17.714 25.4606C17.1237 24.863 16.7004 24.1212 16.4863 23.309C16.2722 22.4968 16.2748 21.6427 16.4939 20.8318C16.713 20.021 17.1408 19.2817 17.7348 18.6879C18.3287 18.094 19.0681 17.6663 19.8789 17.4473C20.6898 17.2284 21.544 17.2259 22.3561 17.4401C23.1683 17.6543 23.9101 18.0778 24.5075 18.6682C25.1049 19.2586 25.537 19.9953 25.7608 20.8049H29.3469L36.5 27.958L43.654 20.8049H47.2392C47.4631 19.9955 47.8953 19.259 48.4926 18.6687C49.09 18.0785 49.8316 17.6552 50.6436 17.441C51.4556 17.2268 52.3095 17.2292 53.1203 17.448C53.931 17.6668 54.6703 18.0943 55.2643 18.6879C55.8582 19.2815 56.2862 20.0205 56.5055 20.8311C56.7248 21.6417 56.7278 22.4957 56.5141 23.3078C56.3004 24.1199 55.8775 24.8618 55.2876 25.4595C54.6977 26.0572 53.9615 26.4899 53.1522 26.7142L53.1577 31.6901Z" fill="white"/>
</g>
</g>
<defs>
<clipPath id="clip0_2016_5608">
<rect width="73" height="73" fill="white"/>
</clipPath>
<clipPath id="clip1_2016_5608">
<rect width="73" height="73" fill="white"/>
</clipPath>
</defs>
</svg>
