<svg width="73" height="73" viewBox="0 0 73 73" fill="none" xmlns="http://www.w3.org/2000/svg">
<g clip-path="url(#clip0_2016_5613)">
<rect width="73" height="73" fill="#F5F5F5"/>
<rect width="73" height="73" rx="10" fill="#E6522C"/>
<g clip-path="url(#clip1_2016_5613)">
<path d="M36.5 15C24.6266 15 15 24.6248 15 36.5C15 48.3734 24.6266 58 36.5 58C48.3734 58 58 48.3734 58 36.5C58 24.6248 48.3734 15 36.5 15ZM36.5 55.2408C33.1227 55.2408 30.3833 52.9833 30.3833 50.1991H42.6167C42.6167 52.9815 39.8791 55.2408 36.5 55.2408ZM46.605 48.531H26.395V44.8653H46.605V48.531ZM46.5333 42.9805H26.4505C26.3842 42.9034 26.3162 42.8264 26.2517 42.7475C24.1823 40.2374 23.695 38.9259 23.2238 37.5893C23.2148 37.5445 25.7321 38.1035 27.5148 38.5049C27.5148 38.5049 28.4339 38.7181 29.7759 38.9617C28.4859 37.4514 27.7208 35.5307 27.7208 33.5688C27.7208 29.2581 31.0265 25.492 29.835 22.448C30.996 22.5429 32.2358 24.8972 32.32 28.579C33.5545 26.8752 34.0705 23.7595 34.0705 21.8513C34.0705 19.8751 35.373 17.5782 36.6756 17.4994C35.5146 19.4147 36.9766 21.054 38.2773 25.1247C38.7647 26.6548 38.702 29.2276 39.0782 30.8598C39.2036 27.47 39.7859 22.525 41.9359 20.8175C40.9881 22.9675 42.0775 25.6586 42.821 26.9522C44.0232 29.0377 44.7524 30.6197 44.7524 33.61C44.7455 35.5783 44.0409 37.4803 42.7637 38.9779C44.1827 38.7109 45.1645 38.4708 45.1645 38.4708L49.7745 37.5714C49.7745 37.5714 49.1062 40.327 46.5333 42.9805Z" fill="white"/>
</g>
</g>
<defs>
<clipPath id="clip0_2016_5613">
<rect width="73" height="73" fill="white"/>
</clipPath>
<clipPath id="clip1_2016_5613">
<rect width="43" height="43" fill="white" transform="translate(15 15)"/>
</clipPath>
</defs>
</svg>
