<svg width="73" height="73" viewBox="0 0 73 73" fill="none" xmlns="http://www.w3.org/2000/svg">
<g clip-path="url(#clip0_2018_5669)">
<rect width="73" height="73" rx="10" fill="#0B64FF"/>
<g clip-path="url(#clip1_2018_5669)">
<path fill-rule="evenodd" clip-rule="evenodd" d="M47.9097 47.6689C49.5829 46.1688 51.0203 44.3791 52.142 42.2958C56.2888 34.5943 54.8226 25.2233 49.1027 19.0955L49.78 18.4727C55.7678 24.8874 57.2986 34.6863 52.9625 42.7396C51.7896 44.9178 50.286 46.7898 48.537 48.3578L47.9097 47.6689Z" fill="white"/>
<path fill-rule="evenodd" clip-rule="evenodd" d="M48.5261 48.5785L47.6885 47.6587L47.8059 47.5534C49.4661 46.065 50.8922 44.2894 52.005 42.2226C56.1189 34.5823 54.6648 25.2837 48.989 19.2033L48.8814 19.0881L49.7885 18.2539L49.8941 18.367C55.926 24.8291 57.469 34.7005 53.0999 42.8149C51.9182 45.0095 50.4032 46.8958 48.6412 48.4754L48.5261 48.5785ZM48.5489 48.1389C50.236 46.6039 51.6881 44.7805 52.8264 42.6664C57.1042 34.7217 55.6287 25.063 49.7724 18.694L49.3249 19.1055C55.0001 25.2824 56.4341 34.6568 52.2804 42.3711C51.1762 44.4221 49.7681 46.1909 48.1318 47.6808L48.5489 48.1389Z" fill="white"/>
<path fill-rule="evenodd" clip-rule="evenodd" d="M25.3478 50.2763C31.3249 53.5086 38.227 53.3606 43.8831 50.4609L44.3025 51.2824C38.3886 54.3142 31.1658 54.4711 24.9106 51.0882C20.2073 48.5447 16.8751 44.4427 15.2017 39.7562L16.0686 39.4453C17.6687 43.9262 20.8528 47.8454 25.3478 50.2763Z" fill="white"/>
<path fill-rule="evenodd" clip-rule="evenodd" d="M44.3702 51.4144C38.4126 54.4685 31.1357 54.6269 24.8332 51.2186C20.0947 48.656 16.7374 44.523 15.0516 39.8017L14.999 39.6545L16.1596 39.2383L16.2121 39.3853C17.7997 43.8315 20.9588 47.7195 25.4186 50.1313C31.3486 53.3382 38.1963 53.1917 43.8088 50.3143L43.9477 50.2431L44.5091 51.3429L44.3702 51.4144ZM44.089 51.2067L43.8118 50.6635C38.1381 53.517 31.2458 53.6379 25.2705 50.4065C20.7893 47.9831 17.6009 44.0922 15.9716 39.6377L15.3983 39.8434C17.0761 44.4337 20.3625 48.4457 24.9814 50.9436C31.1406 54.2744 38.2449 54.1477 44.089 51.2067Z" fill="white"/>
<path fill-rule="evenodd" clip-rule="evenodd" d="M46.0273 45.8091C48.2479 44.2454 50.1418 42.1594 51.5158 39.6074C55.3346 32.5151 54.6309 24.1005 49.388 19.0064L49.8205 18.4961C55.4188 23.9355 56.2983 32.6684 52.3261 40.0456C50.8829 42.7261 48.8918 44.9197 46.5567 46.5641L46.0273 45.8091Z" fill="white"/>
<path fill-rule="evenodd" clip-rule="evenodd" d="M46.5187 46.7757L45.8101 45.765L45.9376 45.6752C48.1387 44.1253 50.0161 42.0575 51.3785 39.5273C55.1712 32.4833 54.4621 24.1484 49.2793 19.1126L49.1744 19.0107L49.8094 18.2617L49.9289 18.3778C55.5849 23.8733 56.4633 32.6847 52.4632 40.1138C51.0082 42.816 49.0007 45.0279 46.6461 46.6859L46.5187 46.7757ZM46.5943 46.3398C48.8552 44.7194 50.7837 42.5753 52.189 39.9654C56.1049 32.6927 55.2651 24.1103 49.8311 18.7191L49.601 18.9906C54.8086 24.1528 55.4725 32.5821 51.6531 39.6757C50.2936 42.2005 48.4293 44.2736 46.2443 45.8405L46.5943 46.3398Z" fill="white"/>
<path fill-rule="evenodd" clip-rule="evenodd" d="M27.0394 46.9897C31.4499 49.3748 36.4292 49.7217 40.8932 48.3469L41.1637 49.2289C36.4746 50.6731 31.2393 50.3095 26.6021 47.8017C22.9755 45.8405 20.2451 42.8489 18.5776 39.3939L19.4065 38.9922C20.993 42.2793 23.5896 45.124 27.0394 46.9897Z" fill="white"/>
<path fill-rule="evenodd" clip-rule="evenodd" d="M41.2078 49.3799C36.4806 50.8359 31.2019 50.4694 26.5264 47.9409C22.8697 45.9634 20.1167 42.947 18.4356 39.4636L18.3677 39.323L19.4773 38.7852L19.5452 38.9258C21.118 42.1845 23.6919 45.0043 27.1118 46.8538C31.4839 49.2182 36.4198 49.5623 40.8457 48.1991L40.9947 48.1532L41.3568 49.3341L41.2078 49.3799ZM40.9669 49.1264L40.788 48.5431C36.3244 49.8765 31.3634 49.5082 26.9636 47.1288C23.5331 45.2736 20.9389 42.4583 19.3329 39.2022L18.7848 39.4679C20.4443 42.835 23.127 45.7474 26.6745 47.6658C31.2241 50.1262 36.3544 50.5057 40.9669 49.1264Z" fill="white"/>
<path d="M38.9022 52.8867C39.445 53.9772 41.0046 54.6948 41.527 54.8515C42.9298 55.3165 43.7369 55.061 43.8813 55.4536C44.0406 55.8962 43.345 56.7993 42.5703 57.0723C40.9621 57.6497 39.4457 57.3958 38.7275 57.1752C37.5354 56.8241 36.6642 56.2271 36.0995 55.8379C35.3167 55.3097 33.4985 53.6344 32.2568 53.0258" fill="white"/>
<path fill-rule="evenodd" clip-rule="evenodd" d="M36.3097 55.5342C36.8713 55.9214 37.7013 56.4882 38.8327 56.8215L38.8348 56.8219L38.837 56.8223C39.5066 57.028 40.9372 57.2671 42.4476 56.725L42.4497 56.7242C42.7586 56.6152 43.0723 56.3698 43.2898 56.0964C43.3972 55.9613 43.4703 55.833 43.5082 55.7286C43.5288 55.6727 43.5352 55.634 43.537 55.6102C43.4625 55.5859 43.3455 55.5695 43.1378 55.5467C43.1195 55.5442 43.0992 55.5425 43.079 55.54C42.6862 55.4974 42.1219 55.436 41.4179 55.2033C41.1202 55.1131 40.5718 54.8802 40.0254 54.53C39.4807 54.1808 38.8894 53.6845 38.5743 53.0512L39.2334 52.7217C39.461 53.179 39.921 53.5867 40.4224 53.9081C40.9189 54.2263 41.4084 54.4299 41.6343 54.4977L41.6389 54.4993L41.6434 54.501C42.2744 54.7101 42.7748 54.7646 43.1628 54.8069C43.181 54.8094 43.1991 54.8111 43.2167 54.8136C43.4038 54.8342 43.6032 54.8565 43.7646 54.9093C43.9426 54.9675 44.138 55.0836 44.2275 55.3269L44.2283 55.3295C44.3095 55.5553 44.2686 55.7915 44.1993 55.9822C44.1273 56.1801 44.0081 56.3776 43.8646 56.5578C43.5806 56.9146 43.1597 57.2569 42.6941 57.4213C40.99 58.0327 39.3897 57.7651 38.6222 57.5298C37.3718 57.1611 36.4603 56.5352 35.8929 56.1441C35.6131 55.9551 35.2059 55.6256 34.7554 55.2612C34.5507 55.0956 34.3371 54.9227 34.1225 54.7526C33.4121 54.1895 32.676 53.6429 32.0957 53.3585L32.4193 52.6953C33.0806 53.0195 33.8745 53.6148 34.5794 54.1736C34.8179 54.3625 35.0452 54.5466 35.2563 54.7174C35.6888 55.0675 36.0532 55.3623 36.3059 55.5328L36.3076 55.5336L36.3097 55.5342Z" fill="white"/>
<path d="M15.0298 39.5965C15.2752 39.918 15.7555 39.8421 16.5675 39.6941C16.8158 39.6607 17.0977 39.6034 17.3709 39.5624C17.3709 39.5624 18.0319 39.5005 18.905 39.5114C19.1769 39.5116 19.4562 39.5368 19.7194 39.5533C20.3854 39.5988 21.191 39.6572 22.1536 39.968C23.7933 40.4981 24.8587 41.4728 25.3709 41.9595C25.6351 42.2072 25.9068 42.4799 26.1771 42.7939C27.0381 43.7209 28.1147 44.8693 30.1019 45.8811C32.0728 46.8841 34.3329 46.8061 35.6937 46.766C36.1227 46.7454 36.5019 46.7418 36.6989 46.7643C37.3386 46.8587 38.134 47.2468 39.1836 47.9402C40.0711 48.546 40.6195 48.9265 41.143 49.3144C41.5057 49.5735 41.8522 49.8238 42.2797 50.1179C43.07 50.6711 44.2965 51.5022 45.9536 51.9998C46.8925 52.2769 49.0883 52.9401 51.4291 51.8572C52.5657 51.3395 53.6681 50.0692 53.3633 49.2752C53.1878 48.8239 52.7114 48.7759 52.063 48.6979C51.5454 48.6486 50.8396 48.5605 49.9668 48.2772C49.3471 48.0679 48.0666 47.6481 47.0286 46.5834L47.0048 46.5497C45.5344 45.0835 45.3781 44.0134 45.4972 43.3647C45.5909 43.2685 45.8692 43.0626 46.1475 42.8566C46.8988 42.2773 48.047 41.3884 48.9746 40.443C50.6849 38.7046 51.8006 36.477 52.6054 34.7103C53.5251 32.6911 54.6573 30.1997 54.4182 27.0297C54.1247 23.2221 52.1041 20.6404 50.3895 18.8114L50.326 18.7352C49.0176 17.3566 47.335 16.0902 45.3092 14.9946C44.1262 14.3548 42.8346 13.7612 41.4257 13.23C41.2873 13.1762 41.1651 13.1311 41.1165 13.1047C40.9458 13.0333 40.7461 13.0932 40.635 13.2218C40.5326 13.3342 40.5276 13.4992 40.606 13.6255C41.3221 14.7048 41.4215 15.2199 41.6885 16.4338C41.7532 16.7414 41.8864 16.9603 42.0307 17.3529C42.5234 18.7307 43.9894 19.5445 44.7799 19.8252C44.2169 20.4434 42.8973 21.8059 42.7732 23.9407C42.6934 25.1768 42.4461 25.7141 42.3149 25.9577L42.2799 26.0228C42.2262 26.1616 42.2297 26.3102 42.3332 26.4291C42.4205 26.5392 42.5662 26.618 42.7072 26.5894C43.9234 26.4293 45.1848 25.8742 46.2744 25.0164C47.1443 24.3334 47.8036 23.5366 48.106 22.8194C48.3653 22.9596 48.648 23.4061 48.923 24.1C49.2354 24.9191 49.5465 27.1005 48.377 29.4668C48.1046 30.0116 47.7499 30.5537 47.3054 31.0683C45.6986 32.9256 43.389 34.0672 40.8283 34.2762C38.2014 34.4912 34.9264 34.3559 31.1028 33.84L30.5778 33.7658C28.5102 33.4865 27.1396 33.3115 26.0471 33.203C22.2758 32.8621 18.5803 34.3238 16.1619 37.1052C16.0844 37.2101 15.9997 37.29 15.9222 37.395C14.7398 38.8526 14.8479 39.3514 15.0298 39.5965ZM30.684 42.0017C31.0513 41.3195 31.8997 41.0653 32.5803 41.4334C33.261 41.8015 33.5147 42.6517 33.1474 43.3338C32.7801 44.0159 31.9317 44.2702 31.2511 43.9021C30.5704 43.534 30.3168 42.6838 30.684 42.0017Z" fill="white"/>
<path fill-rule="evenodd" clip-rule="evenodd" d="M31.103 33.8395L30.578 33.7653C28.5104 33.4859 27.1398 33.311 26.0473 33.2025C22.276 32.8617 18.5805 34.3233 16.1621 37.1048C16.1235 37.1572 16.0829 37.2035 16.0422 37.2497C16.0015 37.296 15.961 37.342 15.9222 37.3947C14.7398 38.8523 14.8478 39.3512 15.0297 39.5963C15.2751 39.9177 15.7554 39.8419 16.5674 39.6939C16.7034 39.6755 16.8496 39.6499 16.9989 39.624C17.1221 39.6034 17.2473 39.5807 17.3708 39.5621C17.3708 39.5621 18.0319 39.5003 18.9049 39.5111C19.1121 39.5113 19.3237 39.5271 19.5292 39.5402C19.5932 39.5444 19.6567 39.5494 19.7193 39.5539C20.3853 39.5995 21.1909 39.6577 22.1535 39.9686C23.7931 40.4988 24.8586 41.4735 25.3708 41.9601C25.635 42.2079 25.9067 42.4806 26.177 42.7946C27.038 43.7216 28.1146 44.87 30.1018 45.8817C32.052 46.8741 34.2852 46.8082 35.6503 46.768L35.6935 46.7663C36.1225 46.7457 36.5017 46.742 36.6987 46.7646C37.3384 46.8589 38.1338 47.2471 39.1834 47.9405C40.0709 48.5463 40.6193 48.9267 41.1428 49.3147C41.2031 49.3578 41.2632 49.4008 41.3231 49.4437C41.6231 49.6582 41.9232 49.873 42.2794 50.1181C43.0697 50.6713 44.2962 51.5024 45.9533 52.0001L45.9771 52.0069C46.9289 52.2879 49.1075 52.9311 51.4288 51.8573C52.5655 51.3397 53.6679 50.0694 53.3631 49.2754C53.1912 48.8336 52.7312 48.7784 52.1036 48.703C52.0898 48.7013 52.0764 48.7004 52.0627 48.6987C51.5452 48.6495 50.8393 48.5613 49.9665 48.2781C49.9551 48.2739 49.946 48.2714 49.9348 48.2666C49.3039 48.0537 48.0488 47.6303 47.0282 46.5836L47.0047 46.5498C45.5343 45.0836 45.3781 44.0135 45.4972 43.3648C45.5909 43.2687 45.8691 43.0627 46.1474 42.8567C46.8988 42.2774 48.047 41.3884 48.9745 40.4431C50.6848 38.7047 51.8005 36.477 52.6053 34.7103C53.525 32.6912 54.6572 30.1999 54.4181 27.0298C54.1247 23.2222 52.104 20.6405 50.3895 18.8115L50.3259 18.7353C49.0175 17.3567 47.3349 16.0903 45.3092 14.9947C44.1261 14.3549 42.8345 13.7613 41.4257 13.2301C41.3966 13.2186 41.3685 13.2072 41.3416 13.1975C41.2394 13.1581 41.1549 13.1256 41.1163 13.1048C40.9456 13.0333 40.7459 13.0933 40.6348 13.2218C40.5324 13.3342 40.5274 13.4992 40.6057 13.6255C41.3019 14.6745 41.4152 15.1905 41.6663 16.3333C41.6731 16.3663 41.68 16.3997 41.6891 16.4338C41.7298 16.6269 41.7972 16.7849 41.8776 16.973C41.9254 17.0845 41.9775 17.2067 42.0312 17.3528C42.4649 18.5658 43.653 19.3417 44.4704 19.7015C44.5814 19.7502 44.6856 19.7915 44.7804 19.8251C44.7598 19.8487 44.7365 19.8732 44.7129 19.8989C44.6638 19.9525 44.6103 20.0109 44.5537 20.0741C43.9236 20.7744 42.8833 22.0569 42.7737 23.9407C42.694 25.1768 42.4466 25.7141 42.3154 25.9577L42.2805 26.0228C42.2268 26.1616 42.2302 26.3102 42.3337 26.4291C42.421 26.5392 42.5668 26.618 42.7077 26.5893C43.9239 26.4293 45.1854 25.8742 46.275 25.0164C47.0321 24.422 47.6297 23.7413 47.9713 23.1019C48.0222 23.0066 48.0675 22.9123 48.1065 22.8193C48.1865 22.8626 48.2688 22.9352 48.3525 23.0351C48.5396 23.2588 48.7335 23.6203 48.9236 24.1C49.2359 24.919 49.547 27.1004 48.3775 29.4668C48.1051 30.0115 47.7504 30.5537 47.3059 31.0683C45.6991 32.9255 43.3895 34.0672 40.8288 34.2761C38.2019 34.4914 34.9266 34.3553 31.103 33.8395ZM40.8539 34.5871C38.1979 34.8047 34.8992 34.6671 31.0614 34.1492L31.0606 34.1491L30.5365 34.0749C30.5362 34.0749 30.5357 34.0748 30.5348 34.0747C28.4684 33.7956 27.1034 33.6214 26.0175 33.5135C22.3472 33.1822 18.755 34.6037 16.4045 37.3011C16.3604 37.3598 16.3156 37.4108 16.2788 37.4527L16.2763 37.4553C16.2347 37.5027 16.2028 37.5393 16.173 37.5794L16.1688 37.5862L16.1646 37.5904C15.5818 38.3088 15.3446 38.7589 15.2642 39.036C15.2251 39.1702 15.2262 39.2529 15.2342 39.3012C15.241 39.3458 15.2577 39.3772 15.279 39.4065C15.3195 39.4588 15.3875 39.505 15.5898 39.5071C15.8059 39.5096 16.0966 39.4606 16.5119 39.3848L16.5187 39.3831L16.5254 39.3822C16.6429 39.3662 16.7699 39.3447 16.906 39.3211L16.9455 39.3143C17.068 39.2937 17.1969 39.2704 17.3242 39.2513L17.3333 39.2505L17.3425 39.2496L17.3715 39.5608C17.3425 39.2496 17.3425 39.2496 17.3425 39.2496L17.3453 39.2494L17.352 39.249C17.3562 39.2486 17.3657 39.2473 17.376 39.2464C17.3965 39.2447 17.4269 39.2422 17.4658 39.2397C17.5434 39.2329 17.6559 39.2259 17.7956 39.2191C18.0747 39.2053 18.4644 39.1916 18.9082 39.1962C19.1267 39.1965 19.3526 39.2121 19.5594 39.2266C19.6215 39.2308 19.6821 39.2358 19.7399 39.2381L19.7416 39.2382C20.4104 39.284 21.2488 39.3438 22.2502 39.6672C23.9572 40.2192 25.0641 41.233 25.5857 41.7287C25.854 41.9803 26.1322 42.2595 26.4103 42.582C27.2643 43.5013 28.3102 44.6145 30.244 45.5991M40.8547 34.5844C43.4922 34.3691 45.8789 33.1922 47.5421 31.2698C48.0038 30.7352 48.373 30.1712 48.6569 29.6036L48.6573 29.6019C49.8687 27.1508 49.556 24.8781 49.2153 23.9847L49.2144 23.983L49.2136 23.9813C49.0717 23.6234 48.9239 23.3188 48.7723 23.0806C48.6253 22.8497 48.4547 22.6491 48.2549 22.541L47.953 22.3777L47.8195 22.6943C47.5441 23.3474 46.9264 24.1047 46.0829 24.767C45.0317 25.5945 43.8213 26.1242 42.6673 26.2761L42.6559 26.2778L42.6467 26.2795C42.6446 26.2793 42.6399 26.2778 42.6307 26.2753C42.6125 26.2661 42.593 26.2517 42.5779 26.2327L42.5734 26.2285L42.5688 26.2242C42.5643 26.22 42.562 26.215 42.562 26.2128C42.5612 26.2102 42.5599 26.2085 42.5599 26.2013C42.5591 26.192 42.5595 26.1754 42.5667 26.1504L42.5907 26.1059C42.7452 25.8192 43.0035 25.2375 43.0857 23.9607L43.0858 23.9598C43.1987 22.0193 44.3573 20.7515 44.9488 20.1047C44.9716 20.0809 44.9915 20.058 45.0116 20.036L45.3285 19.688L44.8854 19.5307C44.5176 19.4002 43.9838 19.1416 43.4865 18.7539C42.9886 18.3658 42.5456 17.8627 42.3257 17.2475L42.3253 17.2458L42.3248 17.2441C42.2682 17.0896 42.2113 16.9568 42.1631 16.844C42.1471 16.8072 42.1327 16.7726 42.119 16.74C42.0621 16.604 42.0216 16.4937 41.9953 16.3688L41.995 16.3671L41.9947 16.3662C41.9879 16.3296 41.9787 16.2934 41.971 16.2579C41.851 15.7111 41.7575 15.2853 41.6111 14.874C41.4532 14.4298 41.2368 14.0096 40.8711 13.4579C40.8665 13.4487 40.8665 13.4418 40.8665 13.4373C40.8667 13.4347 40.867 13.433 40.8674 13.433C40.8674 13.433 40.8674 13.4328 40.8682 13.4322L40.8703 13.4296L40.8724 13.4271C40.8839 13.4133 40.9056 13.3987 40.9332 13.3916C40.9561 13.3849 40.976 13.3874 40.9913 13.3916C41.0322 13.4122 41.082 13.4319 41.1247 13.4486C41.1567 13.4624 41.1946 13.4759 41.2337 13.491C41.2607 13.5025 41.2881 13.5116 41.3146 13.5224L41.3163 13.5228L41.318 13.5232C42.714 14.0495 43.9927 14.6374 45.1632 15.2704C47.161 16.3508 48.8137 17.5956 50.0952 18.944L50.158 19.0195L50.1648 19.0263C51.8635 20.8384 53.8246 23.3544 54.1099 27.0544C54.3422 30.1357 53.2449 32.5603 52.3243 34.5813C51.5213 36.3442 50.4241 38.528 48.7552 40.2245C47.8459 41.1512 46.7156 42.0271 45.9623 42.608C45.8248 42.7099 45.684 42.8141 45.5659 42.9048C45.453 42.9916 45.3417 43.0805 45.2767 43.1474L45.2104 43.2156L45.1944 43.3093C45.0518 44.0863 45.2685 45.2483 46.7692 46.7527L46.792 46.7848L46.8103 46.8031C47.8838 47.9042 49.1988 48.3477 49.8337 48.5617C49.8474 48.566 49.8595 48.571 49.8721 48.5755L49.8737 48.576L49.8754 48.5764C50.7764 48.8688 51.506 48.9601 52.0344 49.0104L52.0436 49.0113C52.375 49.0511 52.6116 49.0797 52.7913 49.1429C52.9515 49.1993 53.0302 49.2708 53.0766 49.3896C53.1189 49.5005 53.1209 49.6506 53.0584 49.8448C52.9948 50.039 52.8717 50.2564 52.6972 50.4775C52.3475 50.9212 51.8269 51.3365 51.3052 51.5741L51.3035 51.575C49.089 52.5994 47.0063 51.9847 46.0618 51.7059L46.048 51.7017C46.0478 51.7016 46.0476 51.7016 46.0472 51.7015C44.4404 51.2188 43.2479 50.4123 42.4631 49.8629L42.4618 49.8621L42.461 49.8612C42.1073 49.6179 41.8098 49.4051 41.51 49.1905C41.4506 49.1479 41.3911 49.1055 41.3311 49.0625C40.8029 48.6712 40.2503 48.2879 39.364 47.6829L39.3619 47.6813L39.3597 47.6804C38.3055 46.9839 37.4612 46.5612 36.7488 46.4562L36.7443 46.4554L36.7397 46.4549C36.5144 46.4291 36.1119 46.4343 35.6873 46.4547L35.6667 46.4551C34.2945 46.4956 32.1281 46.5593 30.2492 45.6032M30.4158 41.8542C30.8648 41.0201 31.9024 40.7092 32.7346 41.1593C33.5669 41.6093 33.8771 42.6491 33.428 43.4831C32.9789 44.3172 31.9414 44.6281 31.1092 44.1781C30.2769 43.728 29.9667 42.6882 30.4158 41.8542ZM32.587 41.4342C31.9063 41.0661 31.058 41.3204 30.6907 42.0025C30.3234 42.6846 30.5771 43.5348 31.2577 43.9028C31.9384 44.271 32.7867 44.0166 33.154 43.3346C33.5213 42.6524 33.2676 41.8023 32.587 41.4342Z" fill="white"/>
</g>
</g>
<defs>
<clipPath id="clip0_2018_5669">
<rect width="73" height="73" fill="white"/>
</clipPath>
<clipPath id="clip1_2018_5669">
<rect width="56" height="52.3212" fill="white" transform="translate(8 10)"/>
</clipPath>
</defs>
</svg>
