<svg width="73" height="73" viewBox="0 0 73 73" fill="none" xmlns="http://www.w3.org/2000/svg">
<g clip-path="url(#clip0_2016_5595)">
<g clip-path="url(#clip1_2016_5595)">
<path d="M19.774 37.4018C19.8561 36.9912 19.8926 36.6034 19.8926 36.2429C19.8926 35.2301 19.6782 34.4271 19.2539 33.8339C19.0595 33.5527 18.7977 33.3248 18.4924 33.171C18.1871 33.0171 17.8481 32.9423 17.5065 32.9534C17.1454 32.9422 16.7874 33.022 16.4653 33.1854C16.1432 33.3489 15.8674 33.5907 15.6632 33.8887C15.207 34.5183 14.9834 35.3624 14.9834 36.4254C14.9834 37.4657 15.2115 38.2824 15.6541 38.8755C16.1012 39.4686 16.7126 39.7698 17.4882 39.7698C17.9003 39.7871 18.3064 39.6667 18.6425 39.4276C18.9492 39.1954 19.2002 38.8977 19.3771 38.5561C19.5683 38.1942 19.7022 37.8048 19.774 37.4018ZM61.4342 29.8828C61.396 29.8827 61.3578 29.8857 61.3201 29.8919V30.2068H61.4342C61.5574 30.2068 61.6669 30.1611 61.6669 30.0471C61.6669 29.9649 61.603 29.8828 61.4342 29.8828Z" fill="black"/>
<path fill-rule="evenodd" clip-rule="evenodd" d="M62.1775 30.2384C62.1787 30.1464 62.1617 30.055 62.1275 29.9696C62.0932 29.8841 62.0424 29.8063 61.9779 29.7405C61.9135 29.6748 61.8366 29.6225 61.7519 29.5866C61.6671 29.5506 61.5761 29.5318 61.484 29.5312C61.2993 29.5336 61.1229 29.6087 60.9931 29.7402C60.8633 29.8718 60.7905 30.0491 60.7905 30.2339C60.7905 30.6308 61.1008 30.9456 61.484 30.9456C61.5764 30.9463 61.668 30.9283 61.7534 30.8928C61.8387 30.8573 61.916 30.8051 61.9807 30.7391C62.0454 30.6731 62.0962 30.5948 62.13 30.5088C62.1638 30.4227 62.18 30.3308 62.1775 30.2384ZM61.4293 30.3206H61.3198V30.7175H61.1647V29.7913C61.2552 29.7776 61.3468 29.7715 61.4384 29.7731C61.5844 29.7731 61.6802 29.8004 61.735 29.8415C61.7943 29.8826 61.8262 29.9464 61.8262 30.0331C61.8262 30.1563 61.7441 30.2293 61.6392 30.2612C61.7258 30.2749 61.7806 30.3571 61.7988 30.4939C61.8083 30.5728 61.8299 30.6497 61.8627 30.7221H61.703C61.6647 30.6483 61.6414 30.5677 61.6346 30.4848C61.6118 30.3708 61.5525 30.3206 61.4293 30.3206Z" fill="black"/>
<path fill-rule="evenodd" clip-rule="evenodd" d="M73 0H0V73H73V0ZM11.1097 39.5569C11.3996 38.9603 11.4565 38.277 11.2694 37.6406C11.1856 37.3882 11.054 37.1542 10.8816 36.9517C10.6529 36.6819 10.3976 36.4358 10.1196 36.2171C9.72328 35.9002 9.31701 35.5959 8.90144 35.3046C8.5405 35.0502 8.19751 34.7712 7.87487 34.4697C7.78148 34.3854 7.70651 34.2827 7.65469 34.1681C7.60287 34.0535 7.57531 33.9294 7.57375 33.8036C7.57375 33.5435 7.68781 33.3245 7.91137 33.1511C8.15951 32.9696 8.46199 32.8779 8.76913 32.8911C9.33488 32.8911 9.87325 33.0644 10.3843 33.4112L11.1371 32.2477C10.733 31.9979 10.295 31.8073 9.83675 31.682C9.36399 31.5529 8.87593 31.4885 8.38588 31.4904C7.91138 31.4904 7.47337 31.5542 7.07187 31.6774C6.69602 31.7852 6.34334 31.9615 6.03163 32.1976C5.74944 32.4127 5.51747 32.6867 5.35181 33.0006C5.1848 33.3248 5.10019 33.6852 5.10544 34.0499C5.10544 34.383 5.16475 34.6841 5.28794 34.9442C5.41005 35.2019 5.57169 35.439 5.767 35.6468C5.96775 35.8613 6.18675 36.0574 6.43312 36.2399C6.67494 36.427 6.92587 36.6049 7.18138 36.7783L8.00262 37.3714C8.18231 37.5042 8.34884 37.654 8.49994 37.8186C8.61856 37.9554 8.70525 38.0923 8.74631 38.2201C8.79242 38.3552 8.81555 38.4971 8.81475 38.6398C8.82047 38.7964 8.78963 38.9521 8.72469 39.0946C8.65975 39.2372 8.56249 39.3626 8.44063 39.4611C8.15723 39.6775 7.80676 39.7873 7.45056 39.7713C7.11116 39.7695 6.77629 39.6932 6.46962 39.5478C6.08342 39.3583 5.72182 39.1223 5.39288 38.8451L4.5625 40.1409C5.06437 40.5241 5.56625 40.7979 6.06356 40.9621C6.56544 41.1309 7.12663 41.2131 7.75625 41.2131C8.28094 41.2131 8.76913 41.1446 9.21169 41.0077C9.622 40.8872 10.008 40.6957 10.3523 40.442C10.6687 40.2102 10.9278 39.9044 11.1097 39.5569ZM22.2741 34.2644C22.4794 34.8301 22.5844 35.4597 22.5844 36.1532C22.5844 36.8832 22.4703 37.5539 22.2331 38.1699C22.0049 38.7813 21.681 39.3151 21.2658 39.7713C20.85 40.2337 20.3401 40.602 19.7705 40.8514C19.2008 41.1008 18.5844 41.2257 17.9626 41.2176C17.6841 41.2195 17.4061 41.195 17.1322 41.1446C16.8784 41.0952 16.6327 41.0107 16.4022 40.8937C16.1561 40.768 15.925 40.615 15.7133 40.4374C15.4851 40.2549 15.257 40.0268 15.0061 39.7531V45.625H12.5332V31.7185H15.0106L15.0243 33.069C15.4187 32.5695 15.9168 32.1616 16.4843 31.8736C17.0609 31.6105 17.6894 31.4811 18.323 31.4949C19.1914 31.4721 20.0442 31.7283 20.7562 32.2259C21.4682 32.7236 22.0018 33.4365 22.2787 34.2598L22.2741 34.2644ZM26.2253 40.9895H23.6794V27.375H26.2207V40.9849L26.2253 40.9895ZM37.0703 31.7094V40.9941L34.5336 40.9986L34.5244 39.7576C34.1021 40.228 33.5903 40.6096 33.0188 40.88C32.4516 41.1179 31.8408 41.2345 31.2257 41.2222C30.5604 41.2444 29.9005 41.0951 29.3095 40.7887C28.7927 40.5042 28.3923 40.0472 28.178 39.4976C28.1147 39.3604 28.0672 39.2166 28.0366 39.0687C27.955 38.6829 27.9092 38.2904 27.8997 37.8961C27.8912 37.592 27.8867 37.2878 27.886 36.9836V31.7094H30.4273V37.0247C30.4273 37.4946 30.4501 37.8551 30.4958 38.1014C30.5414 38.3478 30.6235 38.5714 30.7376 38.7676C31.0341 39.2922 31.5588 39.5523 32.3071 39.5523C33.2652 39.5523 33.9176 39.1645 34.2781 38.398C34.3727 38.1872 34.4386 37.9647 34.4743 37.7364C34.5108 37.4946 34.529 37.1524 34.529 36.7053V31.7094H37.0703ZM48.0203 35.7244V40.9895H45.4881V35.6788C45.4952 35.3201 45.4724 34.9614 45.4197 34.6066C45.3801 34.3724 45.2998 34.1469 45.1824 33.9404C44.8859 33.4203 44.3612 33.1648 43.6129 33.1648C43.1848 33.1514 42.7605 33.2489 42.3811 33.4477C42.0407 33.6371 41.7728 33.9339 41.6191 34.2917C41.5273 34.5073 41.4659 34.7346 41.4366 34.967C41.4047 35.2088 41.391 35.5464 41.391 35.9753V40.9804H38.8269V31.7185H41.3819L41.391 32.9595C41.8139 32.4897 42.3256 32.1083 42.8966 31.8371C43.4632 31.5966 44.0743 31.4784 44.6897 31.4904C45.4471 31.4904 46.0858 31.6409 46.6059 31.9466C46.9242 32.1268 47.2012 32.3718 47.4189 32.6657C47.6366 32.9597 47.7902 33.296 47.8697 33.653C47.959 34.03 48.0079 34.4154 48.0158 34.8027C48.0249 35.0537 48.0294 35.3594 48.0294 35.7153L48.0203 35.7244ZM54.6679 35.7426L58.5414 40.3781L56.1689 41.1766L52.3364 36.062V40.9895H49.7814V27.375H52.3364V35.3685H52.6102L56.0138 31.5679L57.9392 32.3664L54.6679 35.7426ZM68.4375 35.5328V37.0475L60.736 40.7386V39.1097L66.7037 36.2719L60.736 33.4751V31.8098L68.4375 35.5328ZM60.6265 30.2402C60.6265 29.7749 61.0098 29.4053 61.4797 29.4053C61.9542 29.4053 62.3374 29.7703 62.3374 30.2357C62.3381 30.3477 62.3162 30.4586 62.2731 30.562C62.23 30.6653 62.1665 30.7589 62.0865 30.8373C62.0065 30.9156 61.9115 30.977 61.8073 31.0179C61.703 31.0588 61.5916 31.0782 61.4797 31.0752C61.3683 31.077 61.2577 31.0566 61.1542 31.0153C61.0508 30.9739 60.9566 30.9123 60.8772 30.8342C60.7978 30.7561 60.7347 30.6629 60.6917 30.5601C60.6486 30.4574 60.6265 30.3517 60.6265 30.2402Z" fill="black"/>
</g>
</g>
<defs>
<clipPath id="clip0_2016_5595">
<rect width="73" height="73" rx="10" fill="white"/>
</clipPath>
<clipPath id="clip1_2016_5595">
<rect width="73" height="73" fill="white"/>
</clipPath>
</defs>
</svg>
