<svg width="73" height="73" viewBox="0 0 73 73" fill="none" xmlns="http://www.w3.org/2000/svg">
<g clip-path="url(#clip0_2016_5480)">
<rect width="73" height="73" rx="10" fill="#3DB88F"/>
<path d="M15.8006 16.2048C17.1506 17.4911 18.511 18.8927 20.1619 19.7983C21.0647 20.3008 22.0247 20.5342 23.0166 20.7902C27.0806 18.182 31.4897 16.4158 36.3919 16.5498C41.0775 16.5948 45.1988 18.3517 49.1091 20.7873C52.2544 20.2305 54.2035 18.2364 56.3794 16.1055C56.2931 19.8817 56.3344 23.3439 54.4181 26.7358C56.716 30.8345 57.9891 35.3692 57.4069 40.0895C56.8247 45.6414 54.0975 50.8858 49.7044 54.3648C46.0435 57.4848 41.3747 59.0973 36.5906 59.2858H34.9041C33.3235 59.072 31.7588 58.9727 30.2325 58.4673C25.0003 57.0658 20.4113 53.5642 17.6466 48.9152C15.5091 45.4333 14.4497 41.2858 14.5847 37.2058C14.6897 33.5008 15.8288 29.9673 17.6597 26.7648C16.156 23.462 15.4866 19.8273 15.8006 16.2048Z" fill="#030200"/>
<path d="M34.472 17.9215C39.7201 17.4603 44.5173 19.3231 48.7923 22.2256C51.122 21.7128 53.1573 20.8615 54.9713 19.2912C54.8917 21.9593 54.3667 24.4812 52.8854 26.7406C55.5376 31.0287 56.7798 36.0462 55.9538 41.0637C55.0417 46.8078 51.512 52.0203 46.5526 55.0381C39.7201 59.2522 30.482 58.8781 24.0592 54.0462C18.9592 50.3787 15.8035 44.1256 15.9217 37.8443C15.8673 33.8825 17.1507 30.1418 19.2085 26.7978C17.717 24.3181 17.1601 22.2087 17.1892 19.3034C18.9488 20.9 21.0488 21.694 23.3335 22.2256C26.7057 19.9278 30.3601 18.2572 34.472 17.9215Z" fill="#AADBDB"/>
<path d="M25.9826 24.9262C28.8148 24.2062 31.8579 25.1502 33.8351 27.2849C36.3861 30.0046 36.6158 34.4174 34.3404 37.378C31.8579 40.8374 26.7279 41.5377 23.2845 39.1087C20.7533 37.288 19.4961 34.1877 20.0979 31.1118C20.6483 28.0949 23.0389 25.6846 25.9826 24.9262Z" fill="#030200"/>
<path d="M43.5124 24.7662C47.5962 24.1353 51.7334 27.0256 52.4627 31.1019C53.1799 34.5359 51.3809 38.225 48.213 39.7325C45.7849 40.9034 42.8721 40.804 40.533 39.4672C38.4949 38.225 37.0034 36.0847 36.7249 33.694C36.4184 31.4122 37.1252 29.0347 38.6805 27.3294C39.9377 25.969 41.6759 25.0222 43.5124 24.7662Z" fill="#030200"/>
<path d="M26.818 26.1083C27.4162 26.0258 28.0368 26.0445 28.6415 26.0352C28.5909 26.4833 28.5393 26.9342 28.4849 27.3823L29.0774 27.4433C29.1027 26.9914 29.128 26.5377 29.1534 26.0858C29.7749 26.307 30.4021 26.5217 31.019 26.758C30.763 27.1292 30.5043 27.4977 30.2446 27.8652L30.719 28.182C30.9871 27.8014 31.2562 27.417 31.5252 27.0336C31.9377 27.3664 32.3502 27.6955 32.7665 28.0255C32.3568 28.5242 31.8834 28.813 31.9218 29.5292C32.354 29.2002 32.7759 28.8636 33.1893 28.512C33.4837 29.0014 33.7743 29.488 34.0659 29.9773C33.6309 30.1855 33.1987 30.3898 32.7637 30.5914L32.968 31.0911C33.3974 30.8923 33.8259 30.6945 34.258 30.4958C34.3734 31.0873 34.4849 31.6827 34.5937 32.2752C34.0818 32.3042 33.5662 32.3361 33.0543 32.3642C33.074 32.5405 33.0927 32.7195 33.1124 32.8986C33.6149 32.877 34.1174 32.8545 34.6227 32.832C34.514 33.4461 34.4052 34.0602 34.2899 34.6752C33.6627 34.4605 33.2943 34.0864 32.6287 34.4127C33.1087 34.7202 33.599 34.9986 34.0949 35.2733C33.6562 35.9933 33.2559 36.688 32.6549 37.2927C30.8437 39.1489 27.9093 39.7311 25.5055 38.7777C23.9024 38.2273 22.8534 37.0433 21.9505 35.6642C22.3855 35.2958 22.8112 34.9217 23.1984 34.5027C22.6799 34.6527 22.1587 34.7455 21.659 34.9564C21.5287 34.3583 21.4068 33.7602 21.2943 33.1611C21.749 33.1583 22.1999 33.1583 22.6546 33.1583V32.6042C22.1877 32.6108 21.7237 32.6145 21.2559 32.6173C21.3365 32.0314 21.4162 31.4427 21.5024 30.8577C21.883 31.0236 22.2674 31.1905 22.648 31.3536C22.7184 31.1905 22.7924 31.0273 22.8655 30.8642C22.4596 30.6842 22.0565 30.5089 21.6534 30.3298C21.9121 29.833 22.1746 29.3408 22.4371 28.8477C22.7793 29.1195 23.1187 29.3952 23.4609 29.667C23.5602 29.5133 23.6624 29.3595 23.7618 29.2095C23.4355 28.9405 23.1093 28.6714 22.783 28.3995C23.1702 28.0255 23.563 27.6514 23.954 27.2802C24.2896 27.702 24.6224 28.1248 24.9805 28.5242C25.1474 27.8492 24.8371 27.4939 24.5362 26.9314C25.093 26.6811 25.6527 26.4317 26.2162 26.1917C26.2771 26.6202 26.338 27.0458 26.3952 27.4752L26.939 27.4367C26.863 26.9914 26.8209 26.5498 26.818 26.1083Z" fill="white"/>
<path d="M43.5161 26.0568C44.1236 26.054 44.732 26.054 45.3367 26.0568C45.2917 26.5021 45.2467 26.9437 45.1961 27.3852L45.7717 27.4584C45.7904 26.998 45.8129 26.5368 45.8326 26.0765C46.4626 26.3034 47.0936 26.5274 47.7208 26.7674C47.4648 27.1321 47.2089 27.494 46.952 27.8587C47.1029 27.974 47.2501 28.0893 47.4001 28.2046C47.672 27.8137 47.9476 27.4199 48.2195 27.0271C48.6386 27.3693 49.0614 27.7087 49.4804 28.0471C49.0773 28.4727 48.6901 28.9115 48.332 29.3755C48.9714 29.2574 49.4129 28.934 49.9192 28.5534C50.2004 29.0268 50.4854 29.5002 50.7667 29.9737C50.3289 30.179 49.8901 30.3871 49.4486 30.5887L49.6464 31.094C50.0823 30.9018 50.5173 30.703 50.9495 30.5052C51.0704 31.1005 51.1923 31.6959 51.3048 32.294C50.7958 32.3127 50.2867 32.3352 49.7776 32.3549L49.7617 32.9015C50.2801 32.8799 50.8023 32.8602 51.3236 32.8415C51.2148 33.4743 51.0967 34.108 50.9654 34.739C50.5651 34.5309 50.1686 34.3227 49.7683 34.1146L49.4936 34.5984C49.9314 34.8187 50.3664 35.0362 50.8051 35.2574C50.3092 36.0599 49.8742 36.8287 49.1729 37.4812C47.3364 39.1771 44.5464 39.7115 42.2167 38.7834C40.5939 38.2237 39.5064 37.0171 38.6195 35.5959C39.0133 35.3755 39.407 35.1543 39.8008 34.934L39.5251 34.4343C39.1576 34.6527 38.7892 34.873 38.4208 35.0905C38.2548 34.454 38.1011 33.8174 37.9604 33.1743C38.4245 33.1677 38.8914 33.1612 39.3554 33.1584V32.6109C38.8979 32.6109 38.4376 32.6137 37.9792 32.6109C38.0401 32.0634 38.1011 31.513 38.1686 30.9627C38.7189 31.0902 39.1829 31.2384 39.752 31.078C39.2917 30.809 38.8276 30.5465 38.357 30.2971C38.6101 29.8171 38.8661 29.3399 39.1192 28.8637C39.5448 29.1702 39.9761 29.4684 40.4176 29.7496C40.2929 29.1487 39.9508 28.783 39.5636 28.3415C39.9189 27.9871 40.2901 27.644 40.652 27.2924C40.9333 27.6412 41.2117 27.9899 41.4929 28.3415L41.9345 28.0218C41.672 27.6702 41.4104 27.3177 41.1479 26.9662C41.6983 26.7262 42.2486 26.4862 42.8017 26.2555C43.0004 26.7768 43.2311 27.283 43.4964 27.7687C43.5217 27.1996 43.5283 26.6296 43.5161 26.0568Z" fill="white"/>
<path d="M27.7808 26.5898C27.9439 27.9952 28.018 29.4061 28.1455 30.8142L28.3733 30.968C28.0499 30.9548 27.7302 30.9483 27.4067 30.9483C27.5183 29.4961 27.6242 28.0402 27.7808 26.5898Z" fill="#FF676B"/>
<path d="M44.6005 26.6953C44.7055 28.0941 44.7346 29.4919 44.7665 30.8906C44.5462 30.9131 44.3249 30.9412 44.1074 30.9741C44.2134 29.8566 44.2996 28.74 44.459 27.63C44.504 27.3197 44.5518 27.0056 44.6005 26.6953Z" fill="#FF676B"/>
<path d="M44.7663 30.8906C45.7582 31.2103 46.5363 31.8469 46.3057 32.9963C45.9504 34.4428 44.0332 34.8169 43.2082 33.5597C42.5651 32.4581 43.0835 31.5309 44.1073 30.9741C44.3248 30.9412 44.546 30.9131 44.7663 30.8906Z" fill="#030200"/>
<path d="M27.4071 30.9492C27.7306 30.9492 28.0503 30.9558 28.3737 30.9689C28.8884 31.3083 29.3843 31.5192 29.5671 32.1623C29.8934 33.1636 29.1162 34.2614 28.069 34.313C27.1156 34.3861 26.2521 33.6886 26.2418 32.7098C26.1875 31.8267 26.7668 31.417 27.4071 30.9492Z" fill="#030200"/>
<path d="M19.3014 43.2598C30.3414 43.2598 41.3749 43.2411 52.4149 43.2383V44.5977C51.663 44.5977 50.9111 44.5977 50.1592 44.5977V47.0839C48.1136 47.0558 46.0689 47.0558 44.028 47.0839C44.0214 46.2552 44.0214 45.4236 44.0177 44.5911C43.6211 44.5948 43.2274 44.5948 42.8308 44.5977V53.5255C40.7411 53.5255 38.6486 53.5255 36.5589 53.5255C36.5561 50.547 36.5617 47.5677 36.5524 44.5883C36.1942 44.5948 35.8324 44.6014 35.4742 44.607C35.4677 47.0558 35.4742 49.4998 35.4705 51.9486C33.333 51.8877 31.1955 51.9158 29.058 51.9064C29.0514 49.468 29.058 47.0295 29.0552 44.5911C28.7505 44.5911 28.4439 44.5911 28.1392 44.5911C28.1364 45.8783 28.1364 47.1645 28.1364 48.4508C26.0214 48.4508 23.9064 48.4508 21.7942 48.4508C21.8008 47.1673 21.8008 45.8811 21.8008 44.5948C20.9589 44.5977 20.1208 44.5977 19.2817 44.5977C19.2883 44.1533 19.2949 43.708 19.3014 43.2598Z" fill="#030200"/>
<path d="M22.9744 44.6055H26.7984V47.2586C25.5216 47.2586 24.2447 47.2558 22.9688 47.2586C22.9716 46.3755 22.9744 45.4886 22.9744 44.6055Z" fill="white"/>
<path d="M30.2642 44.6124C31.557 44.6031 32.8498 44.6059 34.1426 44.6059C34.1332 46.6065 34.1332 48.6034 34.1426 50.6031C32.8498 50.6031 31.557 50.6059 30.2642 50.5965C30.2642 48.6034 30.2642 46.6065 30.2642 44.6124Z" fill="white"/>
<path d="M37.6948 44.607C38.997 44.607 40.2964 44.6108 41.5986 44.5977V52.1211C40.2964 52.1183 38.997 52.1183 37.6976 52.1183C37.7042 49.6152 37.7042 47.1102 37.6948 44.607Z" fill="white"/>
<path d="M45.2053 44.6279C46.4784 44.5576 47.759 44.6213 49.0321 44.5997C49.0359 44.9804 49.0359 45.361 49.0359 45.7416C47.7168 45.7351 46.3987 45.7454 45.0806 45.7285C45.1124 45.361 45.1537 44.9926 45.2053 44.6279Z" fill="white"/>
</g>
<defs>
<clipPath id="clip0_2016_5480">
<rect width="73" height="73" fill="white"/>
</clipPath>
</defs>
</svg>
