<svg width="73" height="73" viewBox="0 0 73 73" fill="none" xmlns="http://www.w3.org/2000/svg">
<g clip-path="url(#clip0_2018_5785)">
<rect width="73" height="73" rx="10" fill="black"/>
<path d="M55.8356 40.5073C54.7277 41.2245 53.6081 41.2395 52.5059 40.6475C51.3767 40.0409 50.8186 39.0342 50.7381 37.7449C50.6678 36.6199 50.8609 35.5632 51.3748 34.5481C52.3377 32.6459 54.7504 32.5826 56.0145 33.4173C56.193 33.5351 56.3585 33.6731 56.5512 33.8177C56.739 33.5987 56.5105 33.1738 56.8605 33.0822C57.1128 33.0161 57.391 33.0464 57.6577 33.0436C58.0678 33.0395 58.4783 33.0538 58.8882 33.0421C59.3918 33.0277 59.3043 33.2215 59.3373 33.8906C59.355 34.2488 59.2383 34.2395 58.8559 34.2352C58.087 34.2266 58.0862 34.2422 58.0857 35.0294C58.0844 36.9474 58.099 38.8655 58.0776 40.7832C58.0637 42.0346 57.739 43.1675 56.7621 44.0385C55.1212 45.5016 52.0148 44.9502 51.1502 43.0649C50.8907 42.4991 50.7381 42.5763 51.734 41.9466C51.9223 41.9491 51.9537 42.0905 52.0239 42.2153C52.6378 43.3064 53.7498 43.8237 54.8553 43.5378C55.8955 43.2688 56.5951 42.2908 56.6286 41.0449C56.6397 40.6328 56.6304 40.2201 56.6304 39.7512C56.3481 40.0211 56.1069 40.2516 55.8356 40.5073ZM52.2078 37.5368C52.2797 38.038 52.3738 38.5241 52.6966 38.9433C53.2481 39.6596 54.0759 39.9569 54.9227 39.7094C55.7726 39.4609 56.58 38.549 56.6231 37.7494C56.6512 37.2278 56.6465 36.7033 56.634 36.1807C56.6109 35.2146 55.9987 34.4505 55.0885 34.2257C54.0952 33.9805 53.1829 34.3538 52.7027 35.2051C52.3116 35.8983 52.1784 36.6515 52.2078 37.5368Z" fill="white"/>
<path d="M17.843 39.0791C18.7174 37.8966 18.3647 36.6503 17.0627 36.1288C16.1972 35.7822 15.282 35.6176 14.4004 35.3325C12.6667 34.7717 12.0137 33.8842 12.114 32.2214C12.2046 30.7206 13.1868 29.6602 14.8009 29.3692C16.1555 29.125 17.4565 29.3639 18.7127 29.9034C19.048 30.0474 19.2356 30.2601 19.277 30.6679C19.3303 31.1924 19.3261 31.7145 19.3477 32.2377C19.374 32.8741 18.8593 32.6843 18.5483 32.7598C18.1774 32.8497 18.1189 32.5767 18.0959 32.2699C17.9947 30.9174 17.9876 30.8983 16.6807 30.6668C16.0452 30.5543 15.4052 30.5638 14.7858 30.8099C14.0654 31.0962 13.6786 31.626 13.6733 32.3646C13.6676 33.1558 13.9404 33.5429 14.7192 33.8776C15.7086 34.3028 16.7782 34.4527 17.7878 34.806C19.8567 35.53 20.5838 38.1076 19.1748 39.7924C18.4947 40.6056 17.5557 40.9415 16.5359 41.07C15.1445 41.2453 13.8037 41.0806 12.5262 40.4681C12.1833 40.3036 11.9889 40.0943 12.0913 39.6658C12.1703 39.3355 12.1793 38.987 12.2093 38.6457C12.2711 37.943 12.6103 37.7234 13.2629 37.951C13.469 38.0228 13.4605 38.1697 13.4686 38.336C13.5242 39.4749 13.5677 39.5835 14.6631 39.7301C15.7638 39.8775 16.8814 39.9176 17.843 39.0791Z" fill="white"/>
<path d="M27.9382 34.9807C26.8635 37.8137 25.5959 40.5245 24.6293 43.3592C24.87 43.5676 25.1299 43.4827 25.3662 43.4857C25.8063 43.4913 25.8394 43.7756 25.8296 44.1106C25.8202 44.4316 25.8176 44.7317 25.3618 44.7254C24.3104 44.711 23.2585 44.7103 22.207 44.7236C21.7169 44.7298 21.7433 44.4111 21.7315 44.069C21.7189 43.7027 21.805 43.4645 22.2253 43.4917C22.3849 43.502 22.547 43.4773 22.7062 43.4906C23.0406 43.5187 23.2495 43.3832 23.3395 43.0503C23.3817 42.894 23.4235 42.7297 23.5052 42.5935C24.232 41.3824 24.0335 40.2248 23.4081 39.033C22.6881 37.6607 22.1885 36.1841 21.5904 34.7541C21.443 34.4015 21.2858 34.1731 20.8527 34.2231C20.4187 34.2732 20.451 33.9268 20.4529 33.6325C20.4547 33.3393 20.416 33.0376 20.8618 33.043C21.8241 33.0548 22.7867 33.0508 23.7492 33.045C24.2821 33.0418 24.1345 33.4397 24.1633 33.7386C24.1944 34.0626 24.097 34.2568 23.7321 34.2567C23.4923 34.2566 23.24 34.1336 22.9316 34.3502C23.5886 35.8643 24.1424 37.4346 24.9518 39.0725C25.6847 37.4451 26.1718 35.8804 26.7278 34.3883C26.5637 34.1838 26.4173 34.2317 26.2777 34.2365C25.6566 34.2582 25.3899 33.8638 25.615 33.2708C25.6872 33.0806 25.8339 33.0489 26.0002 33.0486C26.927 33.0468 27.8538 33.052 28.7806 33.0461C29.1727 33.0437 29.205 33.3027 29.1831 33.5942C29.1647 33.8391 29.2946 34.2462 28.8751 34.1979C28.271 34.1284 28.0926 34.4814 27.9382 34.9807Z" fill="white"/>
<path d="M49.5489 36.6185C49.8274 39.1663 47.993 41.4751 45.046 41.0853C43.2197 40.8438 42.1635 39.5646 41.9005 38.0764C41.5591 36.1447 42.1383 34.182 43.7408 33.3601C45.9125 32.2463 49.2914 32.8924 49.5489 36.6185ZM43.9907 39.1482C45.1064 40.2875 46.7752 40.0982 47.6529 38.7746C48.165 38.0023 48.1429 37.1651 48.0514 36.3232C47.9139 35.0579 47.035 34.2349 45.7864 34.1188C44.7497 34.0224 43.7832 34.7074 43.4466 35.8688C43.1178 37.0036 43.1473 38.1156 43.9907 39.1482Z" fill="white"/>
<path d="M33.1678 36.3819C33.7219 36.4725 34.2272 36.5742 34.7137 36.7552C36.1428 37.2869 36.5288 39.0441 35.4503 40.1436C34.7847 40.8223 33.9269 41.0716 33.0238 41.1241C32.018 41.1826 31.0418 40.9889 30.1124 40.5756C29.7769 40.4264 29.5764 40.2278 29.7283 39.8239C29.765 39.7262 29.7548 39.6102 29.7652 39.5025C29.8679 38.4424 29.919 38.4065 30.9731 38.6547C30.9835 38.6691 31.002 38.6828 31.0033 38.698C31.0909 39.6854 31.2566 39.8414 32.2573 39.8904C32.8314 39.9186 33.3963 39.8944 33.9303 39.6438C34.3117 39.4648 34.5795 39.2036 34.5895 38.7446C34.5998 38.2691 34.317 38.0251 33.9216 37.8721C33.2196 37.6004 32.4769 37.4975 31.7468 37.3449C30.1694 37.0153 29.4899 36.007 29.8896 34.5463C30.1907 33.4457 31.0899 33.1066 32.0452 32.9651C33.0396 32.8177 34.0294 32.9472 34.9749 33.3547C35.3442 33.5138 35.5499 33.7465 35.5838 34.1485C35.614 34.5075 35.6441 34.8673 35.6958 35.2235C35.7494 35.5928 35.5009 35.6641 35.2483 35.6817C34.9749 35.7007 34.6234 35.8829 34.4893 35.4346C34.4791 35.4005 34.4786 35.3633 34.4751 35.3273C34.4252 34.8098 34.3517 34.3468 33.7044 34.2134C32.9224 34.0523 32.1665 34.0018 31.5334 34.5647C31.097 34.9528 31.2633 35.6957 31.7978 35.9724C32.2148 36.1883 32.6742 36.2646 33.1678 36.3819Z" fill="white"/>
<path d="M39.6712 36.6654C39.6714 37.4785 39.6713 38.2374 39.6717 38.9963C39.672 39.7591 39.6724 39.7792 40.4171 39.7715C40.8263 39.7673 40.9777 39.8954 40.9831 40.3294C40.9889 40.8015 40.8462 40.9627 40.3717 40.9463C39.3932 40.9124 38.4125 40.9204 37.4334 40.9423C37.0196 40.9516 36.9103 40.7749 36.9262 40.3917C36.9407 40.0424 36.9271 39.7469 37.4198 39.7729C38.2755 39.8182 38.2328 39.8288 38.2332 38.8983C38.2342 36.1519 38.2199 33.4053 38.2465 30.6592C38.2518 30.1062 38.0914 29.9252 37.5504 29.958C36.7554 30.0062 36.8958 29.7711 36.8958 29.1028C36.9429 28.917 37.0308 28.8184 37.2214 28.8184C37.916 28.8185 38.6105 28.8142 39.305 28.818C39.7158 28.8202 39.6692 29.1374 39.6696 29.4018C39.6727 31.3171 39.6704 33.2323 39.6701 35.1476C39.67 35.6354 39.6707 36.1233 39.6712 36.6654Z" fill="white"/>
</g>
<defs>
<clipPath id="clip0_2018_5785">
<rect width="73" height="73" fill="white"/>
</clipPath>
</defs>
</svg>
