<svg width="73" height="73" viewBox="0 0 73 73" fill="none" xmlns="http://www.w3.org/2000/svg">
<g clip-path="url(#clip0_2016_5601)">
<g clip-path="url(#clip1_2016_5601)">
<path d="M73 0H0V73H73V0Z" fill="url(#paint0_linear_2016_5601)"/>
<path fill-rule="evenodd" clip-rule="evenodd" d="M55.5889 47.7166L56.7594 46.5367H51.3277L49.8919 45.0895L47.176 47.827L39.2936 39.8819L40.5737 38.5916L47.176 45.2464L49.8919 42.5089L52.0773 44.7117H56.7594L55.5889 43.5319L56.869 42.2416L60.2249 45.6242L56.869 49.0069L55.5889 47.7166ZM47.176 33.3839L48.6118 31.9367H51.4753L54.1866 34.9772L52.8395 36.1963L50.6686 33.7617H49.3614L47.176 35.9645L44.9906 33.7617H39.9337V31.9367H45.7402L47.176 33.3839ZM56.7594 32.8492H55.3237V31.0242H59.8501V35.5867H58.0395V34.1395L55.6984 36.4992L58.0395 38.8589V37.4117H59.8501V41.9742H55.3237V40.1492H56.7594L54.4184 37.7895L52.0773 40.1492H46.6455L45.1002 41.7069L43.8201 40.4166L45.8959 38.3242H51.3277L56.7594 32.8492ZM39.2936 44.9791L41.1042 43.1541L42.3843 44.4444L40.5737 46.2694L39.2936 44.9791ZM29.9755 12.7742C39.0456 12.7742 45.3654 15.6595 45.3654 18.2492C45.3654 20.8389 39.0456 23.7242 29.9755 23.7242C20.9053 23.7242 14.5855 20.8389 14.5855 18.2492C14.5855 15.6595 20.9053 12.7742 29.9755 12.7742ZM39.0284 30.1117H37.2178V50.1867C37.2178 50.6904 37.6225 51.0992 38.1231 51.0992H45.3654V54.7492C45.3654 57.3389 39.0456 60.2242 29.9755 60.2242C21.1941 60.2242 14.5855 57.0496 14.5855 54.991V48.0642C17.353 50.4459 23.0563 52.0117 29.9755 52.0117C32.2242 52.0117 34.4087 51.8393 36.4655 51.498L36.1722 49.6967C34.2113 50.0216 32.1264 50.1867 29.9755 50.1867C20.9053 50.1867 14.5855 47.3014 14.5855 44.7117V35.2892C17.353 37.6709 23.0563 39.2367 29.9755 39.2367C32.2242 39.2367 34.4087 39.0643 36.4655 38.723L36.1722 36.9217C34.2113 37.2466 32.1264 37.4117 29.9755 37.4117C20.9053 37.4117 14.5855 34.5264 14.5855 31.9367V21.6017C17.353 23.9834 23.0563 25.5492 29.9755 25.5492C36.8946 25.5492 42.598 23.9834 45.3654 21.6017V31.0242H47.176V18.2492C47.176 14.0873 39.7816 10.9492 29.9755 10.9492C20.1693 10.9492 12.7749 14.0873 12.7749 18.2492V54.991C12.7749 58.7505 20.813 62.0492 29.9755 62.0492C39.7816 62.0492 47.176 58.9111 47.176 54.7492V51.0992H59.8501V49.2742H39.0284V30.1117Z" fill="white"/>
</g>
</g>
<defs>
<linearGradient id="paint0_linear_2016_5601" x1="0" y1="7300" x2="7300" y2="0" gradientUnits="userSpaceOnUse">
<stop stop-color="#2E27AD"/>
<stop offset="1" stop-color="#527FFF"/>
</linearGradient>
<clipPath id="clip0_2016_5601">
<rect width="73" height="73" fill="white"/>
</clipPath>
<clipPath id="clip1_2016_5601">
<rect width="73" height="73" rx="10" fill="white"/>
</clipPath>
</defs>
</svg>
